<?xml version="1.0" standalone="no"?>
<!DOCTYPE svg PUBLIC "-//W3C//DTD SVG 1.1//EN" "http://www.w3.org/Graphics/SVG/1.1/DTD/svg11.dtd" >
<svg xmlns="http://www.w3.org/2000/svg" xmlns:xlink="http://www.w3.org/1999/xlink" version="1.1">
<metadata>
Created by FontForge 20170924 at Tue Mar 27 15:33:09 2012
 By www-data
Terminal Dosis is a very simple, monoline rounded sans serif. We like you to have some freedom over how the letters should look, so we bundled Terminal Dosis with a few alternates that you can use to make your text look the way you want to.
</metadata>
<defs>
<font id="Dosis-ExtraLight" horiz-adv-x="455" >
  <font-face 
    font-family="Dosis"
    font-weight="250"
    font-stretch="normal"
    units-per-em="1000"
    panose-1="2 1 2 3 2 2 2 6 0 3"
    ascent="800"
    descent="-200"
    x-height="472"
    cap-height="731"
    bbox="-143 -237 994 1027"
    underline-thickness="26"
    underline-position="-51"
    stemh="35"
    stemv="35"
    unicode-range="U+000D-FB02"
  />
<missing-glyph horiz-adv-x="317" 
d="M239 378c9 0 18 -7 18 -18c0 -3 -1 -6 -3 -9l-74 -115l73 -114c2 -3 3 -6 3 -10c0 -9 -8 -17 -18 -17c-5 0 -11 3 -14 8l-65 100l-66 -100c-4 -5 -9 -8 -15 -8c-10 0 -18 8 -18 17c0 4 1 7 3 10l74 114l-74 115c-2 3 -3 6 -3 9c0 10 8 18 18 18c6 0 11 -3 15 -8l66 -102
l66 102c3 5 9 8 14 8z" />
    <glyph glyph-name="fi" unicode="fi" horiz-adv-x="477" 
d="M262 733c-126 0 -158 -93 -158 -143v-118h139c10 0 18 -8 18 -17c0 -10 -8 -18 -18 -18h-139v-420c0 -10 -9 -17 -19 -17c-9 0 -16 7 -16 17v573c0 84 64 178 190 178c69 0 145 -28 145 -58c0 -11 -10 -18 -16 -18c-15 0 -43 41 -126 41zM392 472c10 0 18 -7 18 -17v-437
c0 -9 -8 -18 -18 -18c-9 0 -17 9 -17 18v437c0 10 8 17 17 17z" />
    <glyph glyph-name="fl" unicode="fl" horiz-adv-x="487" 
d="M375 693c-31 32 -73 47 -113 47c-80 0 -158 -58 -158 -150v-118h139c10 0 18 -8 18 -17c0 -10 -8 -18 -18 -18h-139v-420c0 -10 -9 -17 -19 -17c-9 0 -16 7 -16 17v573c0 110 96 178 193 178c54 0 110 -22 148 -70v-680c0 -9 -8 -18 -18 -18c-9 0 -17 9 -17 18v675z" />
    <glyph glyph-name=".notdef" horiz-adv-x="317" 
d="M239 378c9 0 18 -7 18 -18c0 -3 -1 -6 -3 -9l-74 -115l73 -114c2 -3 3 -6 3 -10c0 -9 -8 -17 -18 -17c-5 0 -11 3 -14 8l-65 100l-66 -100c-4 -5 -9 -8 -15 -8c-10 0 -18 8 -18 17c0 4 1 7 3 10l74 114l-74 115c-2 3 -3 6 -3 9c0 10 8 18 18 18c6 0 11 -3 15 -8l66 -102
l66 102c3 5 9 8 14 8z" />
    <glyph glyph-name="A" unicode="A" horiz-adv-x="521" 
d="M43 0c-9 0 -18 6 -18 16c0 2 0 4 1 6l217 701c3 10 10 14 18 14s16 -5 19 -14l215 -701c0 -2 1 -3 1 -5c0 -9 -10 -17 -20 -17c-7 0 -13 4 -16 13l-51 164h-298l-50 -164c-3 -9 -10 -13 -18 -13zM122 213h276l-137 448z" />
    <glyph glyph-name="AE" unicode="&#xc6;" horiz-adv-x="680" 
d="M398 695v-311h160c11 0 17 -9 17 -19c0 -8 -5 -17 -17 -17h-160v-312h237c11 0 17 -9 17 -19c0 -8 -5 -17 -17 -17h-255c-9 0 -18 6 -18 18v330h-247v-325c0 -13 -2 -23 -18 -23c-13 0 -18 10 -18 23v502c0 150 86 206 196 206h360c12 0 17 -9 17 -17
c0 -10 -6 -19 -17 -19h-237zM115 525v-141h247v311h-87c-100 0 -160 -54 -160 -170z" />
    <glyph glyph-name="AEacute" unicode="&#x1fc;" horiz-adv-x="680" 
d="M398 695v-311h160c11 0 17 -9 17 -19c0 -8 -5 -17 -17 -17h-160v-312h237c11 0 17 -9 17 -19c0 -8 -5 -17 -17 -17h-255c-9 0 -18 6 -18 18v330h-247v-325c0 -13 -2 -23 -18 -23c-13 0 -18 10 -18 23v502c0 150 86 206 196 206h360c12 0 17 -9 17 -17
c0 -10 -6 -19 -17 -19h-237zM115 525v-141h247v311h-87c-100 0 -160 -54 -160 -170zM398 917l-95 -54c-3 -2 -6 -3 -9 -3c-10 0 -19 8 -19 18c0 5 2 10 8 13l102 60c2 1 5 2 7 2c10 0 16 -9 16 -18c0 -7 -3 -14 -10 -18z" />
    <glyph glyph-name="Aacute" unicode="&#xc1;" horiz-adv-x="521" 
d="M43 0c-9 0 -18 6 -18 16c0 2 0 4 1 6l217 701c3 10 10 14 18 14s16 -5 19 -14l215 -701c0 -2 1 -3 1 -5c0 -9 -10 -17 -20 -17c-7 0 -13 4 -16 13l-51 164h-298l-50 -164c-3 -9 -10 -13 -18 -13zM122 213h276l-137 448zM317 917l-95 -54c-3 -2 -6 -3 -9 -3
c-10 0 -19 8 -19 18c0 5 2 10 8 13l102 60c2 1 5 2 7 2c10 0 16 -9 16 -18c0 -7 -3 -14 -10 -18z" />
    <glyph glyph-name="Abreve" unicode="&#x102;" horiz-adv-x="521" 
d="M43 0c-9 0 -18 6 -18 16c0 2 0 4 1 6l217 701c3 10 10 14 18 14s16 -5 19 -14l215 -701c0 -2 1 -3 1 -5c0 -9 -10 -17 -20 -17c-7 0 -13 4 -16 13l-51 164h-298l-50 -164c-3 -9 -10 -13 -18 -13zM122 213h276l-137 448zM336 969h33c0 -59 -52 -109 -109 -109
c-58 0 -109 50 -109 109h32c0 -46 35 -83 77 -83c41 0 76 37 76 83z" />
    <glyph glyph-name="Acircumflex" unicode="&#xc2;" horiz-adv-x="521" 
d="M43 0c-9 0 -18 6 -18 16c0 2 0 4 1 6l217 701c3 10 10 14 18 14s16 -5 19 -14l215 -701c0 -2 1 -3 1 -5c0 -9 -10 -17 -20 -17c-7 0 -13 4 -16 13l-51 164h-298l-50 -164c-3 -9 -10 -13 -18 -13zM122 213h276l-137 448zM260 918l-104 -56c-3 -1 -6 -3 -8 -3
c-9 0 -18 8 -18 19c0 5 3 11 9 14l104 56c5 3 11 5 17 5s12 -2 17 -5l104 -55c6 -3 9 -10 9 -17c0 -9 -8 -16 -17 -16c-3 0 -6 2 -9 3z" />
    <glyph glyph-name="Adieresis" unicode="&#xc4;" horiz-adv-x="521" 
d="M43 0c-9 0 -18 6 -18 16c0 2 0 4 1 6l217 701c3 10 10 14 18 14s16 -5 19 -14l215 -701c0 -2 1 -3 1 -5c0 -9 -10 -17 -20 -17c-7 0 -13 4 -16 13l-51 164h-298l-50 -164c-3 -9 -10 -13 -18 -13zM122 213h276l-137 448zM205 918c17 0 29 -12 29 -29s-12 -30 -29 -30
c-18 0 -30 13 -30 30s12 29 30 29zM316 918c17 0 29 -12 29 -29s-12 -30 -29 -30c-18 0 -30 13 -30 30s12 29 30 29z" />
    <glyph glyph-name="Agrave" unicode="&#xc0;" horiz-adv-x="521" 
d="M43 0c-9 0 -18 6 -18 16c0 2 0 4 1 6l217 701c3 10 10 14 18 14s16 -5 19 -14l215 -701c0 -2 1 -3 1 -5c0 -9 -10 -17 -20 -17c-7 0 -13 4 -16 13l-51 164h-298l-50 -164c-3 -9 -10 -13 -18 -13zM122 213h276l-137 448zM299 863l-95 54c-7 4 -10 11 -10 18
c0 9 6 18 16 18c2 0 5 -1 7 -2l102 -60c6 -3 8 -8 8 -13c0 -10 -9 -18 -19 -18c-3 0 -6 1 -9 3z" />
    <glyph glyph-name="Amacron" unicode="&#x100;" horiz-adv-x="521" 
d="M43 0c-9 0 -18 6 -18 16c0 2 0 4 1 6l217 701c3 10 10 14 18 14s16 -5 19 -14l215 -701c0 -2 1 -3 1 -5c0 -9 -10 -17 -20 -17c-7 0 -13 4 -16 13l-51 164h-298l-50 -164c-3 -9 -10 -13 -18 -13zM122 213h276l-137 448zM133 923c0 10 7 18 17 18h220c9 0 18 -8 18 -18
s-9 -17 -18 -17h-220c-10 0 -17 7 -17 17z" />
    <glyph glyph-name="Aogonek" unicode="&#x104;" horiz-adv-x="521" 
d="M476 -169c10 0 18 -3 18 -13s-6 -13 -23 -13c-36 0 -87 13 -87 67c0 58 31 104 74 145l-49 160h-298l-50 -164c-3 -9 -10 -13 -18 -13c-9 0 -18 6 -18 16c0 2 0 4 1 6l217 701c3 10 10 14 18 14s16 -5 19 -14l215 -701c0 -2 1 -3 1 -5c0 -6 -5 -12 -11 -15
c-40 -39 -72 -76 -72 -128c0 -33 25 -43 63 -43zM122 213h276l-137 448z" />
    <glyph glyph-name="Aring" unicode="&#xc5;" horiz-adv-x="521" 
d="M43 0c-9 0 -18 6 -18 16c0 2 0 4 1 6l217 701c3 10 10 14 18 14s16 -5 19 -14l215 -701c0 -2 1 -3 1 -5c0 -9 -10 -17 -20 -17c-7 0 -13 4 -16 13l-51 164h-298l-50 -164c-3 -9 -10 -13 -18 -13zM122 213h276l-137 448zM260 1027c47 0 90 -43 90 -91
c0 -49 -43 -93 -90 -93c-50 0 -90 44 -90 93c0 47 39 91 90 91zM325 936c0 31 -30 65 -65 65c-37 0 -66 -34 -66 -65c0 -35 30 -70 66 -70c35 0 65 35 65 70z" />
    <glyph glyph-name="Atilde" unicode="&#xc3;" horiz-adv-x="521" 
d="M43 0c-9 0 -18 6 -18 16c0 2 0 4 1 6l217 701c3 10 10 14 18 14s16 -5 19 -14l215 -701c0 -2 1 -3 1 -5c0 -9 -10 -17 -20 -17c-7 0 -13 4 -16 13l-51 164h-298l-50 -164c-3 -9 -10 -13 -18 -13zM122 213h276l-137 448zM329 912c46 0 49 32 65 32c7 0 14 -6 14 -15
c0 -31 -52 -51 -84 -51c-48 0 -73 37 -129 37c-43 0 -55 -35 -69 -35c-7 0 -13 6 -13 17c0 26 53 52 89 52c49 0 76 -37 127 -37z" />
    <glyph glyph-name="B" unicode="B" horiz-adv-x="527" 
d="M83 17v696c0 12 9 18 18 18h150c116 0 205 -27 205 -167c0 -86 -34 -146 -85 -168c62 -26 103 -73 103 -176v-17c0 -150 -86 -203 -196 -203h-177c-11 0 -18 8 -18 17zM119 36h159c100 0 160 51 160 167v17c0 116 -60 158 -160 158h-159v-342zM119 695v-281h139
c110 0 162 34 162 150c0 111 -70 131 -167 131h-134z" />
    <glyph glyph-name="C" unicode="C" horiz-adv-x="512" 
d="M112 525v-325c0 -117 57 -170 166 -170c132 0 145 79 153 131c1 9 3 18 18 18c12 0 18 -6 18 -29c0 -77 -67 -156 -195 -156c-107 0 -196 56 -196 206v325c0 150 91 206 199 206c128 0 192 -79 192 -157c0 -23 -6 -28 -18 -28c-17 0 -18 11 -18 18
c-3 48 -27 131 -157 131c-105 0 -162 -54 -162 -170z" />
    <glyph glyph-name="CR" unicode="&#xd;" horiz-adv-x="0" 
 />
    <glyph glyph-name="Cacute" unicode="&#x106;" horiz-adv-x="512" 
d="M112 525v-325c0 -117 57 -170 166 -170c132 0 145 79 153 131c1 9 3 18 18 18c12 0 18 -6 18 -29c0 -77 -67 -156 -195 -156c-107 0 -196 56 -196 206v325c0 150 91 206 199 206c128 0 192 -79 192 -157c0 -23 -6 -28 -18 -28c-17 0 -18 11 -18 18
c-3 48 -27 131 -157 131c-105 0 -162 -54 -162 -170zM328 917l-95 -54c-3 -2 -6 -3 -9 -3c-10 0 -19 8 -19 18c0 5 2 10 8 13l102 60c2 1 5 2 7 2c10 0 16 -9 16 -18c0 -7 -3 -14 -10 -18z" />
    <glyph glyph-name="Ccaron" unicode="&#x10c;" horiz-adv-x="512" 
d="M112 525v-325c0 -117 57 -170 166 -170c132 0 145 79 153 131c1 9 3 18 18 18c12 0 18 -6 18 -29c0 -77 -67 -156 -195 -156c-107 0 -196 56 -196 206v325c0 150 91 206 199 206c128 0 192 -79 192 -157c0 -23 -6 -28 -18 -28c-17 0 -18 11 -18 18
c-3 48 -27 131 -157 131c-105 0 -162 -54 -162 -170zM391 959l-100 -101c-7 -7 -14 -11 -21 -11s-15 4 -21 11l-100 101c-5 6 -8 11 -8 16c0 7 6 15 15 15c5 0 11 -2 16 -8l98 -103l98 103c5 6 11 8 16 8c9 0 15 -8 15 -15c0 -5 -3 -10 -8 -16z" />
    <glyph glyph-name="Ccedilla" unicode="&#xc7;" horiz-adv-x="512" 
d="M112 525v-325c0 -117 57 -170 166 -170c132 0 145 79 153 131c1 9 3 18 18 18c12 0 18 -6 18 -29c0 -70 -55 -140 -159 -153l-15 -62c68 -2 94 -36 94 -70c0 -37 -30 -72 -82 -72c-23 0 -74 7 -74 24c0 6 6 18 12 18c7 0 23 -13 56 -13c42 0 55 20 55 41
c0 31 -27 42 -70 45l-29 2l21 84h-4c-107 0 -196 56 -196 206v325c0 150 91 206 199 206c128 0 192 -79 192 -157c0 -23 -6 -28 -18 -28c-17 0 -18 11 -18 18c-3 48 -27 131 -157 131c-105 0 -162 -54 -162 -170z" />
    <glyph glyph-name="Ccircumflex" unicode="&#x108;" horiz-adv-x="512" 
d="M112 525v-325c0 -117 57 -170 166 -170c132 0 145 79 153 131c1 9 3 18 18 18c12 0 18 -6 18 -29c0 -77 -67 -156 -195 -156c-107 0 -196 56 -196 206v325c0 150 91 206 199 206c128 0 192 -79 192 -157c0 -23 -6 -28 -18 -28c-17 0 -18 11 -18 18
c-3 48 -27 131 -157 131c-105 0 -162 -54 -162 -170zM271 918l-104 -56c-3 -1 -6 -3 -8 -3c-9 0 -18 8 -18 19c0 5 3 11 9 14l104 56c5 3 11 5 17 5s12 -2 17 -5l104 -55c6 -3 9 -10 9 -17c0 -9 -8 -16 -17 -16c-3 0 -6 2 -9 3z" />
    <glyph glyph-name="Cdotaccent" unicode="&#x10a;" horiz-adv-x="512" 
d="M112 525v-325c0 -117 57 -170 166 -170c132 0 145 79 153 131c1 9 3 18 18 18c12 0 18 -6 18 -29c0 -77 -67 -156 -195 -156c-107 0 -196 56 -196 206v325c0 150 91 206 199 206c128 0 192 -79 192 -157c0 -23 -6 -28 -18 -28c-17 0 -18 11 -18 18
c-3 48 -27 131 -157 131c-105 0 -162 -54 -162 -170zM272 918c17 0 29 -12 29 -29s-12 -30 -29 -30c-18 0 -30 13 -30 30s12 29 30 29z" />
    <glyph glyph-name="D" unicode="D" horiz-adv-x="550" 
d="M101 731h177c110 0 196 -56 196 -206v-319c0 -150 -86 -206 -196 -206h-177c-11 0 -18 8 -18 17v697c0 9 7 17 18 17zM278 695h-159v-659h159c100 0 160 54 160 170v319c0 116 -60 170 -160 170z" />
    <glyph glyph-name="Dcaron" unicode="&#x10e;" horiz-adv-x="550" 
d="M101 731h177c110 0 196 -56 196 -206v-319c0 -150 -86 -206 -196 -206h-177c-11 0 -18 8 -18 17v697c0 9 7 17 18 17zM278 695h-159v-659h159c100 0 160 54 160 170v319c0 116 -60 170 -160 170zM398 959l-100 -101c-7 -7 -14 -11 -21 -11s-15 4 -21 11l-100 101
c-5 6 -8 11 -8 16c0 7 6 15 15 15c5 0 11 -2 16 -8l98 -103l98 103c5 6 11 8 16 8c9 0 15 -8 15 -15c0 -5 -3 -10 -8 -16z" />
    <glyph glyph-name="Dcroat" unicode="&#x110;" horiz-adv-x="560" 
d="M111 731h177c110 0 196 -56 196 -206v-319c0 -150 -86 -206 -196 -206h-177c-11 0 -18 8 -18 17v350h-73c-10 0 -17 7 -17 17s7 18 17 18h73v312c0 9 7 17 18 17zM288 695h-159v-293h131c9 0 18 -8 18 -18s-9 -17 -18 -17h-131v-331h159c100 0 160 54 160 170v319
c0 116 -60 170 -160 170z" />
    <glyph glyph-name="Delta" unicode="&#x2206;" horiz-adv-x="481" 
d="M456 16c0 -11 -8 -16 -17 -16h-397c-9 0 -17 5 -17 16c0 2 0 3 1 6l197 701c3 10 10 14 18 14c9 0 16 -5 19 -14l195 -701c1 -3 1 -4 1 -6zM241 661l-174 -625h346z" />
    <glyph glyph-name="E" unicode="E" horiz-adv-x="498" 
d="M119 695v-311h160c11 0 17 -9 17 -19c0 -8 -5 -17 -17 -17h-160v-312h338c11 0 17 -9 17 -19c0 -8 -5 -17 -17 -17h-356c-9 0 -18 6 -18 18v695c0 12 9 18 18 18h356c12 0 17 -9 17 -17c0 -10 -6 -19 -17 -19h-338z" />
    <glyph glyph-name="Eacute" unicode="&#xc9;" horiz-adv-x="498" 
d="M119 695v-311h160c11 0 17 -9 17 -19c0 -8 -5 -17 -17 -17h-160v-312h338c11 0 17 -9 17 -19c0 -8 -5 -17 -17 -17h-356c-9 0 -18 6 -18 18v695c0 12 9 18 18 18h356c12 0 17 -9 17 -17c0 -10 -6 -19 -17 -19h-338zM335 917l-95 -54c-3 -2 -6 -3 -9 -3
c-10 0 -19 8 -19 18c0 5 2 10 8 13l102 60c2 1 5 2 7 2c10 0 16 -9 16 -18c0 -7 -3 -14 -10 -18z" />
    <glyph glyph-name="Ebreve" unicode="&#x114;" horiz-adv-x="498" 
d="M119 695v-311h160c11 0 17 -9 17 -19c0 -8 -5 -17 -17 -17h-160v-312h338c11 0 17 -9 17 -19c0 -8 -5 -17 -17 -17h-356c-9 0 -18 6 -18 18v695c0 12 9 18 18 18h356c12 0 17 -9 17 -17c0 -10 -6 -19 -17 -19h-338zM354 969h33c0 -59 -52 -109 -109 -109
c-58 0 -109 50 -109 109h32c0 -46 35 -83 77 -83c41 0 76 37 76 83z" />
    <glyph glyph-name="Ecaron" unicode="&#x11a;" horiz-adv-x="498" 
d="M119 695v-311h160c11 0 17 -9 17 -19c0 -8 -5 -17 -17 -17h-160v-312h338c11 0 17 -9 17 -19c0 -8 -5 -17 -17 -17h-356c-9 0 -18 6 -18 18v695c0 12 9 18 18 18h356c12 0 17 -9 17 -17c0 -10 -6 -19 -17 -19h-338zM398 959l-100 -101c-7 -7 -14 -11 -21 -11
s-15 4 -21 11l-100 101c-5 6 -8 11 -8 16c0 7 6 15 15 15c5 0 11 -2 16 -8l98 -103l98 103c5 6 11 8 16 8c9 0 15 -8 15 -15c0 -5 -3 -10 -8 -16z" />
    <glyph glyph-name="Ecircumflex" unicode="&#xca;" horiz-adv-x="498" 
d="M119 695v-311h160c11 0 17 -9 17 -19c0 -8 -5 -17 -17 -17h-160v-312h338c11 0 17 -9 17 -19c0 -8 -5 -17 -17 -17h-356c-9 0 -18 6 -18 18v695c0 12 9 18 18 18h356c12 0 17 -9 17 -17c0 -10 -6 -19 -17 -19h-338zM278 918l-104 -56c-3 -1 -6 -3 -8 -3
c-9 0 -18 8 -18 19c0 5 3 11 9 14l104 56c5 3 11 5 17 5s12 -2 17 -5l104 -55c6 -3 9 -10 9 -17c0 -9 -8 -16 -17 -16c-3 0 -6 2 -9 3z" />
    <glyph glyph-name="Edieresis" unicode="&#xcb;" horiz-adv-x="498" 
d="M119 695v-311h160c11 0 17 -9 17 -19c0 -8 -5 -17 -17 -17h-160v-312h338c11 0 17 -9 17 -19c0 -8 -5 -17 -17 -17h-356c-9 0 -18 6 -18 18v695c0 12 9 18 18 18h356c12 0 17 -9 17 -17c0 -10 -6 -19 -17 -19h-338zM223 918c17 0 29 -12 29 -29s-12 -30 -29 -30
c-18 0 -30 13 -30 30s12 29 30 29zM334 918c17 0 29 -12 29 -29s-12 -30 -29 -30c-18 0 -30 13 -30 30s12 29 30 29z" />
    <glyph glyph-name="Edotaccent" unicode="&#x116;" horiz-adv-x="498" 
d="M119 695v-311h160c11 0 17 -9 17 -19c0 -8 -5 -17 -17 -17h-160v-312h338c11 0 17 -9 17 -19c0 -8 -5 -17 -17 -17h-356c-9 0 -18 6 -18 18v695c0 12 9 18 18 18h356c12 0 17 -9 17 -17c0 -10 -6 -19 -17 -19h-338zM279 918c17 0 29 -12 29 -29s-12 -30 -29 -30
c-18 0 -30 13 -30 30s12 29 30 29z" />
    <glyph glyph-name="Egrave" unicode="&#xc8;" horiz-adv-x="498" 
d="M119 695v-311h160c11 0 17 -9 17 -19c0 -8 -5 -17 -17 -17h-160v-312h338c11 0 17 -9 17 -19c0 -8 -5 -17 -17 -17h-356c-9 0 -18 6 -18 18v695c0 12 9 18 18 18h356c12 0 17 -9 17 -17c0 -10 -6 -19 -17 -19h-338zM317 863l-95 54c-7 4 -10 11 -10 18c0 9 6 18 16 18
c2 0 5 -1 7 -2l102 -60c6 -3 8 -8 8 -13c0 -10 -9 -18 -19 -18c-3 0 -6 1 -9 3z" />
    <glyph glyph-name="Emacron" unicode="&#x112;" horiz-adv-x="498" 
d="M119 695v-311h160c11 0 17 -9 17 -19c0 -8 -5 -17 -17 -17h-160v-312h338c11 0 17 -9 17 -19c0 -8 -5 -17 -17 -17h-356c-9 0 -18 6 -18 18v695c0 12 9 18 18 18h356c12 0 17 -9 17 -17c0 -10 -6 -19 -17 -19h-338zM151 923c0 10 7 18 17 18h220c9 0 18 -8 18 -18
s-9 -17 -18 -17h-220c-10 0 -17 7 -17 17z" />
    <glyph glyph-name="Eng" unicode="&#x14a;" horiz-adv-x="557" 
d="M132 695l306 -606v625c0 12 9 17 18 17s18 -5 18 -17v-762c0 -111 -30 -189 -122 -189c-10 0 -18 9 -18 18c0 10 8 17 18 17c77 0 87 65 87 154v48c0 7 -3 18 -12 36l-308 607v-625c0 -12 -9 -18 -18 -18s-18 6 -18 18v696c0 13 8 17 18 17c13 0 26 -27 31 -36z" />
    <glyph glyph-name="Eogonek" unicode="&#x118;" horiz-adv-x="498" 
d="M456 -169c10 0 18 -3 18 -13s-6 -13 -23 -13c-36 0 -87 13 -87 67c0 50 22 91 57 128h-320c-9 0 -18 6 -18 18v695c0 12 9 18 18 18h356c12 0 17 -9 17 -17c0 -10 -6 -19 -17 -19h-338v-311h160c11 0 17 -9 17 -19c0 -8 -5 -17 -17 -17h-160v-312h338c11 0 17 -9 17 -19
c0 -6 -3 -14 -10 -16c-40 -38 -71 -75 -71 -127c0 -33 25 -43 63 -43z" />
    <glyph glyph-name="Eth" unicode="&#xd0;" horiz-adv-x="560" 
d="M111 731h177c110 0 196 -56 196 -206v-319c0 -150 -86 -206 -196 -206h-177c-11 0 -18 8 -18 17v350h-73c-10 0 -17 7 -17 17s7 18 17 18h73v312c0 9 7 17 18 17zM288 695h-159v-293h131c9 0 18 -8 18 -18s-9 -17 -18 -17h-131v-331h159c100 0 160 54 160 170v319
c0 116 -60 170 -160 170z" />
    <glyph glyph-name="Euro" unicode="&#x20ac;" horiz-adv-x="567" 
d="M37 424c0 10 7 18 17 18h70v83c0 150 85 206 195 206c123 0 196 -73 196 -165c0 -14 -9 -20 -18 -20s-18 6 -18 18c0 90 -72 131 -160 131c-100 0 -159 -54 -159 -170v-83h204c9 0 18 -8 18 -18s-9 -17 -18 -17h-204v-108h204c9 0 18 -8 18 -18s-9 -17 -18 -17h-204v-64
c0 -116 59 -170 159 -170c88 0 160 41 160 131c0 12 9 18 18 18s18 -6 18 -20c0 -92 -73 -165 -196 -165c-110 0 -195 56 -195 206v64h-70c-10 0 -17 7 -17 17s7 18 17 18h70v108h-70c-10 0 -17 7 -17 17z" />
    <glyph glyph-name="F" unicode="F" horiz-adv-x="489" 
d="M101 731h356c12 0 17 -9 17 -17c0 -10 -6 -19 -17 -19h-338v-311h160c11 0 17 -9 17 -19c0 -8 -5 -17 -17 -17h-160v-331c0 -12 -9 -17 -18 -17s-18 5 -18 17v696c0 12 9 18 18 18z" />
    <glyph glyph-name="G" unicode="G" horiz-adv-x="531" 
d="M431 348h-159c-11 0 -17 9 -17 18s6 18 17 18h178c11 0 17 -9 17 -19v-165c0 -150 -86 -206 -196 -206s-195 56 -195 206v325c0 150 85 206 195 206c123 0 196 -73 196 -165c0 -14 -9 -20 -18 -20s-17 6 -18 18c-12 90 -72 131 -160 131c-100 0 -159 -54 -159 -170v-325
c0 -116 59 -170 159 -170s160 54 160 170v148z" />
    <glyph glyph-name="Gbreve" unicode="&#x11e;" horiz-adv-x="531" 
d="M431 348h-159c-11 0 -17 9 -17 18s6 18 17 18h178c11 0 17 -9 17 -19v-165c0 -150 -86 -206 -196 -206s-195 56 -195 206v325c0 150 85 206 195 206c123 0 196 -73 196 -165c0 -14 -9 -20 -18 -20s-17 6 -18 18c-12 90 -72 131 -160 131c-100 0 -159 -54 -159 -170v-325
c0 -116 59 -170 159 -170s160 54 160 170v148zM347 969h33c0 -59 -52 -109 -109 -109c-58 0 -109 50 -109 109h32c0 -46 35 -83 77 -83c41 0 76 37 76 83z" />
    <glyph glyph-name="Gcircumflex" unicode="&#x11c;" horiz-adv-x="531" 
d="M431 348h-159c-11 0 -17 9 -17 18s6 18 17 18h178c11 0 17 -9 17 -19v-165c0 -150 -86 -206 -196 -206s-195 56 -195 206v325c0 150 85 206 195 206c123 0 196 -73 196 -165c0 -14 -9 -20 -18 -20s-17 6 -18 18c-12 90 -72 131 -160 131c-100 0 -159 -54 -159 -170v-325
c0 -116 59 -170 159 -170s160 54 160 170v148zM271 918l-104 -56c-3 -1 -6 -3 -8 -3c-9 0 -18 8 -18 19c0 5 3 11 9 14l104 56c5 3 11 5 17 5s12 -2 17 -5l104 -55c6 -3 9 -10 9 -17c0 -9 -8 -16 -17 -16c-3 0 -6 2 -9 3z" />
    <glyph glyph-name="Gcommaaccent" unicode="&#x122;" horiz-adv-x="531" 
d="M431 348h-159c-11 0 -17 9 -17 18s6 18 17 18h178c11 0 17 -9 17 -19v-165c0 -150 -86 -206 -196 -206s-195 56 -195 206v325c0 150 85 206 195 206c123 0 196 -73 196 -165c0 -14 -9 -20 -18 -20s-17 6 -18 18c-12 90 -72 131 -160 131c-100 0 -159 -54 -159 -170v-325
c0 -116 59 -170 159 -170s160 54 160 170v148zM325 -84l-95 -54c-3 -2 -6 -3 -9 -3c-10 0 -19 8 -19 18c0 5 2 10 8 13l102 60c2 1 5 2 7 2c10 0 16 -9 16 -18c0 -7 -3 -14 -10 -18z" />
    <glyph glyph-name="Gdotaccent" unicode="&#x120;" horiz-adv-x="531" 
d="M431 348h-159c-11 0 -17 9 -17 18s6 18 17 18h178c11 0 17 -9 17 -19v-165c0 -150 -86 -206 -196 -206s-195 56 -195 206v325c0 150 85 206 195 206c123 0 196 -73 196 -165c0 -14 -9 -20 -18 -20s-17 6 -18 18c-12 90 -72 131 -160 131c-100 0 -159 -54 -159 -170v-325
c0 -116 59 -170 159 -170s160 54 160 170v148zM272 918c17 0 29 -12 29 -29s-12 -30 -29 -30c-18 0 -30 13 -30 30s12 29 30 29z" />
    <glyph glyph-name="H" unicode="H" horiz-adv-x="557" 
d="M438 18v343h-319v-343c0 -12 -9 -18 -18 -18s-18 6 -18 18v696c0 12 9 17 18 17s18 -5 18 -17v-317h319v317c0 12 9 17 18 17s18 -5 18 -17v-696c0 -12 -9 -18 -18 -18s-18 6 -18 18z" />
    <glyph glyph-name="Hbar" unicode="&#x126;" horiz-adv-x="557" 
d="M438 18v343h-319v-343c0 -12 -9 -18 -18 -18s-18 6 -18 18v525h-45c-10 0 -17 7 -17 17s7 18 17 18h45v136c0 12 9 17 18 17s18 -5 18 -17v-136h319v136c0 12 9 17 18 17s18 -5 18 -17v-136h44c9 0 18 -8 18 -18s-9 -17 -18 -17h-44v-525c0 -12 -9 -18 -18 -18
s-18 6 -18 18zM119 397h319v146h-319v-146z" />
    <glyph glyph-name="Hcircumflex" unicode="&#x124;" horiz-adv-x="557" 
d="M438 18v343h-319v-343c0 -12 -9 -18 -18 -18s-18 6 -18 18v696c0 12 9 17 18 17s18 -5 18 -17v-317h319v317c0 12 9 17 18 17s18 -5 18 -17v-696c0 -12 -9 -18 -18 -18s-18 6 -18 18zM279 918l-104 -56c-3 -1 -6 -3 -8 -3c-9 0 -18 8 -18 19c0 5 3 11 9 14l104 56
c5 3 11 5 17 5s12 -2 17 -5l104 -55c6 -3 9 -10 9 -17c0 -9 -8 -16 -17 -16c-3 0 -6 2 -9 3z" />
    <glyph glyph-name="I" unicode="I" horiz-adv-x="202" 
d="M83 18v696c0 12 9 17 18 17s18 -5 18 -17v-696c0 -12 -9 -18 -18 -18s-18 6 -18 18z" />
    <glyph glyph-name="IJ" unicode="&#x132;" horiz-adv-x="696" 
d="M83 18v696c0 12 9 17 18 17s18 -5 18 -17v-696c0 -12 -9 -18 -18 -18s-18 6 -18 18zM422 731h177c9 0 18 -6 18 -18v-513c0 -150 -85 -206 -195 -206c-123 0 -196 73 -196 165c0 14 8 20 17 20s19 -6 19 -18c0 -89 72 -131 160 -131c100 0 159 54 159 170v495h-159
c-11 0 -17 9 -17 19c0 8 5 17 17 17z" />
    <glyph glyph-name="Iacute" unicode="&#xcd;" horiz-adv-x="202" 
d="M83 18v696c0 12 9 17 18 17s18 -5 18 -17v-696c0 -12 -9 -18 -18 -18s-18 6 -18 18zM157 917l-95 -54c-3 -2 -6 -3 -9 -3c-10 0 -19 8 -19 18c0 5 2 10 8 13l102 60c2 1 5 2 7 2c10 0 16 -9 16 -18c0 -7 -3 -14 -10 -18z" />
    <glyph glyph-name="Ibreve" unicode="&#x12c;" horiz-adv-x="202" 
d="M83 18v696c0 12 9 17 18 17s18 -5 18 -17v-696c0 -12 -9 -18 -18 -18s-18 6 -18 18zM177 969h33c0 -59 -52 -109 -109 -109c-58 0 -109 50 -109 109h32c0 -46 35 -83 77 -83c41 0 76 37 76 83z" />
    <glyph glyph-name="Icircumflex" unicode="&#xce;" horiz-adv-x="202" 
d="M83 18v696c0 12 9 17 18 17s18 -5 18 -17v-696c0 -12 -9 -18 -18 -18s-18 6 -18 18zM101 918l-104 -56c-3 -1 -6 -3 -8 -3c-9 0 -18 8 -18 19c0 5 3 11 9 14l104 56c5 3 11 5 17 5s12 -2 17 -5l104 -55c6 -3 9 -10 9 -17c0 -9 -8 -16 -17 -16c-3 0 -6 2 -9 3z" />
    <glyph glyph-name="Idieresis" unicode="&#xcf;" horiz-adv-x="202" 
d="M83 18v696c0 12 9 17 18 17s18 -5 18 -17v-696c0 -12 -9 -18 -18 -18s-18 6 -18 18zM46 918c17 0 29 -12 29 -29s-12 -30 -29 -30c-18 0 -30 13 -30 30s12 29 30 29zM157 918c17 0 29 -12 29 -29s-12 -30 -29 -30c-18 0 -30 13 -30 30s12 29 30 29z" />
    <glyph glyph-name="Idotaccent" unicode="&#x130;" horiz-adv-x="202" 
d="M83 18v696c0 12 9 17 18 17s18 -5 18 -17v-696c0 -12 -9 -18 -18 -18s-18 6 -18 18zM101 918c17 0 29 -12 29 -29s-12 -30 -29 -30c-18 0 -30 13 -30 30s12 29 30 29z" />
    <glyph glyph-name="Igrave" unicode="&#xcc;" horiz-adv-x="202" 
d="M83 18v696c0 12 9 17 18 17s18 -5 18 -17v-696c0 -12 -9 -18 -18 -18s-18 6 -18 18zM139 863l-95 54c-7 4 -10 11 -10 18c0 9 6 18 16 18c2 0 5 -1 7 -2l102 -60c6 -3 8 -8 8 -13c0 -10 -9 -18 -19 -18c-3 0 -6 1 -9 3z" />
    <glyph glyph-name="Imacron" unicode="&#x12a;" horiz-adv-x="202" 
d="M83 18v696c0 12 9 17 18 17s18 -5 18 -17v-696c0 -12 -9 -18 -18 -18s-18 6 -18 18zM-26 923c0 10 7 18 17 18h220c9 0 18 -8 18 -18s-9 -17 -18 -17h-220c-10 0 -17 7 -17 17z" />
    <glyph glyph-name="Iogonek" unicode="&#x12e;" horiz-adv-x="203" 
d="M107 -164c10 0 18 -3 18 -13s-6 -13 -23 -13c-36 0 -87 13 -87 67c0 56 28 100 69 140v697c0 12 9 17 18 17s18 -5 18 -17v-696c0 -8 -4 -13 -9 -16c-38 -37 -67 -73 -67 -123c0 -33 25 -43 63 -43z" />
    <glyph glyph-name="Itilde" unicode="&#x128;" horiz-adv-x="202" 
d="M83 18v696c0 12 9 17 18 17s18 -5 18 -17v-696c0 -12 -9 -18 -18 -18s-18 6 -18 18zM170 912c46 0 49 32 65 32c7 0 14 -6 14 -15c0 -31 -52 -51 -84 -51c-48 0 -73 37 -129 37c-43 0 -55 -35 -69 -35c-7 0 -13 6 -13 17c0 26 53 52 89 52c49 0 76 -37 127 -37z" />
    <glyph glyph-name="J" unicode="J" horiz-adv-x="496" 
d="M222 731h177c9 0 18 -6 18 -18v-513c0 -150 -85 -206 -195 -206c-123 0 -196 73 -196 165c0 14 8 20 17 20s19 -6 19 -18c0 -89 72 -131 160 -131c100 0 159 54 159 170v495h-159c-11 0 -17 9 -17 19c0 8 5 17 17 17z" />
    <glyph glyph-name="Jcircumflex" unicode="&#x134;" horiz-adv-x="496" 
d="M222 731h177c9 0 18 -6 18 -18v-513c0 -150 -85 -206 -195 -206c-123 0 -196 73 -196 165c0 14 8 20 17 20s19 -6 19 -18c0 -89 72 -131 160 -131c100 0 159 54 159 170v495h-159c-11 0 -17 9 -17 19c0 8 5 17 17 17zM248 918l-104 -56c-3 -1 -6 -3 -8 -3
c-9 0 -18 8 -18 19c0 5 3 11 9 14l104 56c5 3 11 5 17 5s12 -2 17 -5l104 -55c6 -3 9 -10 9 -17c0 -9 -8 -16 -17 -16c-3 0 -6 2 -9 3z" />
    <glyph glyph-name="K" unicode="K" horiz-adv-x="508" 
d="M466 9l-251 376l-96 -120v-247c0 -12 -9 -18 -18 -18s-18 6 -18 18v696c0 12 9 17 18 17s18 -5 18 -17v-392l323 403c3 4 9 6 14 6c9 0 18 -9 18 -19c0 -3 -1 -7 -4 -10l-231 -287l258 -388c2 -3 3 -6 3 -9c0 -10 -9 -18 -19 -18c-5 0 -11 3 -15 9z" />
    <glyph glyph-name="Kcommaaccent" unicode="&#x136;" horiz-adv-x="508" 
d="M466 9l-251 376l-96 -120v-247c0 -12 -9 -18 -18 -18s-18 6 -18 18v696c0 12 9 17 18 17s18 -5 18 -17v-392l323 403c3 4 9 6 14 6c9 0 18 -9 18 -19c0 -3 -1 -7 -4 -10l-231 -287l258 -388c2 -3 3 -6 3 -9c0 -10 -9 -18 -19 -18c-5 0 -11 3 -15 9zM310 -84l-95 -54
c-3 -2 -6 -3 -9 -3c-10 0 -19 8 -19 18c0 5 2 10 8 13l102 60c2 1 5 2 7 2c10 0 16 -9 16 -18c0 -7 -3 -14 -10 -18z" />
    <glyph glyph-name="L" unicode="L" horiz-adv-x="452" 
d="M423 0h-322c-9 0 -18 6 -18 18v696c0 12 9 17 18 17s18 -5 18 -17v-678h304c10 0 15 -9 15 -18s-5 -18 -15 -18z" />
    <glyph glyph-name="Lacute" unicode="&#x139;" horiz-adv-x="452" 
d="M423 0h-322c-9 0 -18 6 -18 18v696c0 12 9 17 18 17s18 -5 18 -17v-678h304c10 0 15 -9 15 -18s-5 -18 -15 -18zM317 917l-95 -54c-3 -2 -6 -3 -9 -3c-10 0 -19 8 -19 18c0 5 2 10 8 13l102 60c2 1 5 2 7 2c10 0 16 -9 16 -18c0 -7 -3 -14 -10 -18z" />
    <glyph glyph-name="Lcaron" unicode="&#x13d;" horiz-adv-x="453" 
d="M423 0h-322c-9 0 -18 6 -18 18v696c0 12 9 17 18 17s18 -5 18 -17v-678h304c10 0 15 -9 15 -18s-5 -18 -15 -18zM324 741c19 0 35 -16 35 -36c0 -16 -17 -65 -33 -97c-3 -6 -9 -10 -14 -10c-8 0 -16 6 -16 15c0 2 0 4 1 6l18 51c-16 4 -27 19 -27 35c0 20 15 36 36 36z
" />
    <glyph glyph-name="Lcommaaccent" unicode="&#x13b;" horiz-adv-x="452" 
d="M423 0h-322c-9 0 -18 6 -18 18v696c0 12 9 17 18 17s18 -5 18 -17v-678h304c10 0 15 -9 15 -18s-5 -18 -15 -18zM309 -84l-95 -54c-3 -2 -6 -3 -9 -3c-10 0 -19 8 -19 18c0 5 2 10 8 13l102 60c2 1 5 2 7 2c10 0 16 -9 16 -18c0 -7 -3 -14 -10 -18z" />
    <glyph glyph-name="Ldot" unicode="&#x13f;" horiz-adv-x="453" 
d="M423 0h-322c-9 0 -18 6 -18 18v696c0 12 9 17 18 17s18 -5 18 -17v-678h304c10 0 15 -9 15 -18s-5 -18 -15 -18zM322 457c19 0 35 -16 35 -36c0 -19 -16 -36 -35 -36c-21 0 -36 17 -36 36c0 20 15 36 36 36z" />
    <glyph glyph-name="Lslash" unicode="&#x141;" horiz-adv-x="458" 
d="M429 0h-322c-9 0 -18 6 -18 18v285l-57 -33c-3 -2 -6 -3 -9 -3c-8 0 -17 9 -17 19c0 5 3 11 9 14l74 43v371c0 12 9 17 18 17s18 -5 18 -17v-351l115 67c3 2 6 2 9 2c9 0 17 -7 17 -16c0 -7 -4 -13 -9 -16l-132 -76v-288h304c10 0 15 -9 15 -18s-5 -18 -15 -18z" />
    <glyph glyph-name="M" unicode="M" horiz-adv-x="653" 
d="M534 643l-189 -364c-7 -13 -13 -19 -19 -19s-13 6 -19 19l-188 364v-625c0 -12 -9 -18 -18 -18s-18 6 -18 18v696c0 13 8 17 18 17c13 0 26 -27 31 -36l194 -382l195 382c5 9 18 36 31 36c10 0 18 -4 18 -17v-696c0 -12 -9 -18 -18 -18s-18 6 -18 18v625z" />
    <glyph glyph-name="N" unicode="N" horiz-adv-x="557" 
d="M132 695l306 -606v625c0 12 9 17 18 17s18 -5 18 -17v-696c0 -12 -9 -18 -18 -18c-13 0 -22 22 -29 36l-308 607v-625c0 -12 -9 -18 -18 -18s-18 6 -18 18v696c0 13 8 17 18 17c13 0 26 -27 31 -36z" />
    <glyph glyph-name="Nacute" unicode="&#x143;" horiz-adv-x="557" 
d="M132 695l306 -606v625c0 12 9 17 18 17s18 -5 18 -17v-696c0 -12 -9 -18 -18 -18c-13 0 -22 22 -29 36l-308 607v-625c0 -12 -9 -18 -18 -18s-18 6 -18 18v696c0 13 8 17 18 17c13 0 26 -27 31 -36zM335 917l-95 -54c-3 -2 -6 -3 -9 -3c-10 0 -19 8 -19 18c0 5 2 10 8 13
l102 60c2 1 5 2 7 2c10 0 16 -9 16 -18c0 -7 -3 -14 -10 -18z" />
    <glyph glyph-name="Ncaron" unicode="&#x147;" horiz-adv-x="557" 
d="M132 695l306 -606v625c0 12 9 17 18 17s18 -5 18 -17v-696c0 -12 -9 -18 -18 -18c-13 0 -22 22 -29 36l-308 607v-625c0 -12 -9 -18 -18 -18s-18 6 -18 18v696c0 13 8 17 18 17c13 0 26 -27 31 -36zM398 959l-100 -101c-7 -7 -14 -11 -21 -11s-15 4 -21 11l-100 101
c-5 6 -8 11 -8 16c0 7 6 15 15 15c5 0 11 -2 16 -8l98 -103l98 103c5 6 11 8 16 8c9 0 15 -8 15 -15c0 -5 -3 -10 -8 -16z" />
    <glyph glyph-name="Ncommaaccent" unicode="&#x145;" horiz-adv-x="557" 
d="M132 695l306 -606v625c0 12 9 17 18 17s18 -5 18 -17v-696c0 -12 -9 -18 -18 -18c-13 0 -22 22 -29 36l-308 607v-625c0 -12 -9 -18 -18 -18s-18 6 -18 18v696c0 13 8 17 18 17c13 0 26 -27 31 -36zM332 -84l-95 -54c-3 -2 -6 -3 -9 -3c-10 0 -19 8 -19 18c0 5 2 10 8 13
l102 60c2 1 5 2 7 2c10 0 16 -9 16 -18c0 -7 -3 -14 -10 -18z" />
    <glyph glyph-name="Ntilde" unicode="&#xd1;" horiz-adv-x="557" 
d="M132 695l306 -606v625c0 12 9 17 18 17s18 -5 18 -17v-696c0 -12 -9 -18 -18 -18c-13 0 -22 22 -29 36l-308 607v-625c0 -12 -9 -18 -18 -18s-18 6 -18 18v696c0 13 8 17 18 17c13 0 26 -27 31 -36zM347 912c46 0 49 32 65 32c7 0 14 -6 14 -15c0 -31 -52 -51 -84 -51
c-48 0 -73 37 -129 37c-43 0 -55 -35 -69 -35c-7 0 -13 6 -13 17c0 26 53 52 89 52c49 0 76 -37 127 -37z" />
    <glyph glyph-name="O" unicode="O" horiz-adv-x="543" 
d="M271 -6c-110 0 -195 56 -195 206v325c0 150 85 206 195 206s196 -56 196 -206v-325c0 -150 -86 -206 -196 -206zM431 200v325c0 116 -60 170 -160 170s-159 -54 -159 -170v-325c0 -116 59 -170 159 -170s160 54 160 170z" />
    <glyph glyph-name="OE" unicode="&#x152;" horiz-adv-x="845" 
d="M466 695v-311h160c11 0 17 -9 17 -19c0 -8 -5 -17 -17 -17h-160v-312h338c11 0 17 -9 17 -19c0 -8 -5 -17 -17 -17h-354c-9 0 -18 6 -18 18v48c-35 -51 -94 -72 -161 -72c-110 0 -195 56 -195 206v325c0 150 85 206 195 206c67 0 126 -21 161 -72v54c0 12 9 18 18 18h354
c12 0 17 -9 17 -17c0 -10 -6 -19 -17 -19h-338zM431 200v325c0 116 -60 170 -160 170s-159 -54 -159 -170v-325c0 -116 59 -170 159 -170s160 54 160 170z" />
    <glyph glyph-name="Oacute" unicode="&#xd3;" horiz-adv-x="543" 
d="M271 -6c-110 0 -195 56 -195 206v325c0 150 85 206 195 206s196 -56 196 -206v-325c0 -150 -86 -206 -196 -206zM431 200v325c0 116 -60 170 -160 170s-159 -54 -159 -170v-325c0 -116 59 -170 159 -170s160 54 160 170zM328 917l-95 -54c-3 -2 -6 -3 -9 -3
c-10 0 -19 8 -19 18c0 5 2 10 8 13l102 60c2 1 5 2 7 2c10 0 16 -9 16 -18c0 -7 -3 -14 -10 -18z" />
    <glyph glyph-name="Obreve" unicode="&#x14e;" horiz-adv-x="543" 
d="M271 -6c-110 0 -195 56 -195 206v325c0 150 85 206 195 206s196 -56 196 -206v-325c0 -150 -86 -206 -196 -206zM431 200v325c0 116 -60 170 -160 170s-159 -54 -159 -170v-325c0 -116 59 -170 159 -170s160 54 160 170zM347 969h33c0 -59 -52 -109 -109 -109
c-58 0 -109 50 -109 109h32c0 -46 35 -83 77 -83c41 0 76 37 76 83z" />
    <glyph glyph-name="Ocircumflex" unicode="&#xd4;" horiz-adv-x="543" 
d="M271 -6c-110 0 -195 56 -195 206v325c0 150 85 206 195 206s196 -56 196 -206v-325c0 -150 -86 -206 -196 -206zM431 200v325c0 116 -60 170 -160 170s-159 -54 -159 -170v-325c0 -116 59 -170 159 -170s160 54 160 170zM271 918l-104 -56c-3 -1 -6 -3 -8 -3
c-9 0 -18 8 -18 19c0 5 3 11 9 14l104 56c5 3 11 5 17 5s12 -2 17 -5l104 -55c6 -3 9 -10 9 -17c0 -9 -8 -16 -17 -16c-3 0 -6 2 -9 3z" />
    <glyph glyph-name="Odieresis" unicode="&#xd6;" horiz-adv-x="543" 
d="M271 -6c-110 0 -195 56 -195 206v325c0 150 85 206 195 206s196 -56 196 -206v-325c0 -150 -86 -206 -196 -206zM431 200v325c0 116 -60 170 -160 170s-159 -54 -159 -170v-325c0 -116 59 -170 159 -170s160 54 160 170zM216 918c17 0 29 -12 29 -29s-12 -30 -29 -30
c-18 0 -30 13 -30 30s12 29 30 29zM327 918c17 0 29 -12 29 -29s-12 -30 -29 -30c-18 0 -30 13 -30 30s12 29 30 29z" />
    <glyph glyph-name="Ograve" unicode="&#xd2;" horiz-adv-x="543" 
d="M271 -6c-110 0 -195 56 -195 206v325c0 150 85 206 195 206s196 -56 196 -206v-325c0 -150 -86 -206 -196 -206zM431 200v325c0 116 -60 170 -160 170s-159 -54 -159 -170v-325c0 -116 59 -170 159 -170s160 54 160 170zM310 863l-95 54c-7 4 -10 11 -10 18
c0 9 6 18 16 18c2 0 5 -1 7 -2l102 -60c6 -3 8 -8 8 -13c0 -10 -9 -18 -19 -18c-3 0 -6 1 -9 3z" />
    <glyph glyph-name="Ohungarumlaut" unicode="&#x150;" horiz-adv-x="543" 
d="M271 -6c-110 0 -195 56 -195 206v325c0 150 85 206 195 206s196 -56 196 -206v-325c0 -150 -86 -206 -196 -206zM431 200v325c0 116 -60 170 -160 170s-159 -54 -159 -170v-325c0 -116 59 -170 159 -170s160 54 160 170zM294 917l-95 -54c-3 -2 -6 -3 -9 -3
c-10 0 -19 8 -19 18c0 5 2 10 8 13l102 60c2 1 5 2 7 2c10 0 16 -9 16 -18c0 -7 -3 -14 -10 -18zM441 917l-95 -54c-3 -2 -6 -3 -9 -3c-10 0 -19 8 -19 18c0 5 2 10 8 13l102 60c2 1 5 2 7 2c10 0 16 -9 16 -18c0 -7 -3 -14 -10 -18z" />
    <glyph glyph-name="Omacron" unicode="&#x14c;" horiz-adv-x="543" 
d="M271 -6c-110 0 -195 56 -195 206v325c0 150 85 206 195 206s196 -56 196 -206v-325c0 -150 -86 -206 -196 -206zM431 200v325c0 116 -60 170 -160 170s-159 -54 -159 -170v-325c0 -116 59 -170 159 -170s160 54 160 170zM144 923c0 10 7 18 17 18h220c9 0 18 -8 18 -18
s-9 -17 -18 -17h-220c-10 0 -17 7 -17 17z" />
    <glyph glyph-name="Omega" unicode="&#x2126;" horiz-adv-x="534" 
d="M315 0v103c72 16 111 69 111 165v257c0 116 -59 170 -159 170s-159 -54 -159 -170v-257c0 -96 39 -149 111 -165v-103h-142c-10 0 -17 8 -17 18s8 17 17 17h107v40c-67 24 -112 84 -112 193v257c0 150 85 206 195 206s195 -56 195 -206v-257c0 -109 -46 -169 -112 -193
v-40h107c9 0 17 -7 17 -17s-7 -18 -17 -18h-142z" />
    <glyph glyph-name="Oslash" unicode="&#xd8;" horiz-adv-x="543" 
d="M480 738l-44 -85c19 -32 31 -74 31 -128v-325c0 -150 -86 -206 -196 -206c-60 0 -113 16 -148 56l-31 -59c-4 -8 -10 -11 -17 -11c-8 0 -16 6 -16 15c0 3 0 6 2 9l40 77c-16 31 -25 70 -25 119v325c0 150 85 206 195 206c56 0 105 -15 141 -49l40 78c3 6 8 8 13 8
c8 0 18 -8 18 -19c0 -4 -1 -7 -3 -11zM431 200v325c0 35 -5 64 -16 88l-274 -527c27 -38 72 -56 130 -56c100 0 160 54 160 170zM112 200c0 -29 4 -55 11 -76l271 523c-28 32 -70 48 -123 48c-100 0 -159 -54 -159 -170v-325z" />
    <glyph glyph-name="Oslashacute" unicode="&#x1fe;" horiz-adv-x="543" 
d="M480 738l-44 -85c19 -32 31 -74 31 -128v-325c0 -150 -86 -206 -196 -206c-60 0 -113 16 -148 56l-31 -59c-4 -8 -10 -11 -17 -11c-8 0 -16 6 -16 15c0 3 0 6 2 9l40 77c-16 31 -25 70 -25 119v325c0 150 85 206 195 206c56 0 105 -15 141 -49l40 78c3 6 8 8 13 8
c8 0 18 -8 18 -19c0 -4 -1 -7 -3 -11zM431 200v325c0 35 -5 64 -16 88l-274 -527c27 -38 72 -56 130 -56c100 0 160 54 160 170zM112 200c0 -29 4 -55 11 -76l271 523c-28 32 -70 48 -123 48c-100 0 -159 -54 -159 -170v-325zM328 917l-95 -54c-3 -2 -6 -3 -9 -3
c-10 0 -19 8 -19 18c0 5 2 10 8 13l102 60c2 1 5 2 7 2c10 0 16 -9 16 -18c0 -7 -3 -14 -10 -18z" />
    <glyph glyph-name="Otilde" unicode="&#xd5;" horiz-adv-x="543" 
d="M271 -6c-110 0 -195 56 -195 206v325c0 150 85 206 195 206s196 -56 196 -206v-325c0 -150 -86 -206 -196 -206zM431 200v325c0 116 -60 170 -160 170s-159 -54 -159 -170v-325c0 -116 59 -170 159 -170s160 54 160 170zM340 912c46 0 49 32 65 32c7 0 14 -6 14 -15
c0 -31 -52 -51 -84 -51c-48 0 -73 37 -129 37c-43 0 -55 -35 -69 -35c-7 0 -13 6 -13 17c0 26 53 52 89 52c49 0 76 -37 127 -37z" />
    <glyph glyph-name="P" unicode="P" horiz-adv-x="513" 
d="M83 18v696c0 9 7 16 18 17h177c110 0 196 -56 196 -206v-12c0 -150 -86 -207 -196 -207h-159v-288c0 -12 -9 -18 -18 -18s-18 6 -18 18zM278 695h-159v-353h159c100 0 160 55 160 171v12c0 116 -60 170 -160 170z" />
    <glyph glyph-name="Q" unicode="Q" horiz-adv-x="543" 
d="M254 -91v86c-102 5 -178 62 -178 205v325c0 150 85 206 195 206s196 -56 196 -206v-325c0 -142 -76 -200 -177 -205v-86c0 -12 -9 -18 -18 -18s-18 6 -18 18zM431 200v325c0 116 -60 170 -160 170s-159 -54 -159 -170v-325c0 -110 52 -164 142 -170v84c0 12 9 17 18 17
s18 -5 18 -17v-83c88 6 141 60 141 169z" />
    <glyph glyph-name="R" unicode="R" horiz-adv-x="509" 
d="M83 18v696c0 9 7 16 18 17h167c110 0 206 -46 206 -191c0 -128 -75 -179 -168 -190l165 -321c2 -4 3 -8 3 -11c0 -10 -8 -18 -18 -18c-14 0 -22 22 -29 36l-160 312h-148v-330c0 -12 -9 -18 -18 -18s-18 6 -18 18zM268 695h-149v-311h149c100 0 170 45 170 156
s-70 155 -170 155z" />
    <glyph glyph-name="Racute" unicode="&#x154;" horiz-adv-x="509" 
d="M83 18v696c0 9 7 16 18 17h167c110 0 206 -46 206 -191c0 -128 -75 -179 -168 -190l165 -321c2 -4 3 -8 3 -11c0 -10 -8 -18 -18 -18c-14 0 -22 22 -29 36l-160 312h-148v-330c0 -12 -9 -18 -18 -18s-18 6 -18 18zM268 695h-149v-311h149c100 0 170 45 170 156
s-70 155 -170 155zM335 917l-95 -54c-3 -2 -6 -3 -9 -3c-10 0 -19 8 -19 18c0 5 2 10 8 13l102 60c2 1 5 2 7 2c10 0 16 -9 16 -18c0 -7 -3 -14 -10 -18z" />
    <glyph glyph-name="Rcaron" unicode="&#x158;" horiz-adv-x="509" 
d="M83 18v696c0 9 7 16 18 17h167c110 0 206 -46 206 -191c0 -128 -75 -179 -168 -190l165 -321c2 -4 3 -8 3 -11c0 -10 -8 -18 -18 -18c-14 0 -22 22 -29 36l-160 312h-148v-330c0 -12 -9 -18 -18 -18s-18 6 -18 18zM268 695h-149v-311h149c100 0 170 45 170 156
s-70 155 -170 155zM398 959l-100 -101c-7 -7 -14 -11 -21 -11s-15 4 -21 11l-100 101c-5 6 -8 11 -8 16c0 7 6 15 15 15c5 0 11 -2 16 -8l98 -103l98 103c5 6 11 8 16 8c9 0 15 -8 15 -15c0 -5 -3 -10 -8 -16z" />
    <glyph glyph-name="Rcommaaccent" unicode="&#x156;" horiz-adv-x="509" 
d="M83 18v696c0 9 7 16 18 17h167c110 0 206 -46 206 -191c0 -128 -75 -179 -168 -190l165 -321c2 -4 3 -8 3 -11c0 -10 -8 -18 -18 -18c-14 0 -22 22 -29 36l-160 312h-148v-330c0 -12 -9 -18 -18 -18s-18 6 -18 18zM268 695h-149v-311h149c100 0 170 45 170 156
s-70 155 -170 155zM297 -84l-95 -54c-3 -2 -6 -3 -9 -3c-10 0 -19 8 -19 18c0 5 2 10 8 13l102 60c2 1 5 2 7 2c10 0 16 -9 16 -18c0 -7 -3 -14 -10 -18z" />
    <glyph glyph-name="S" unicode="S" horiz-adv-x="481" 
d="M230 30c109 0 167 56 167 162c0 255 -337 118 -337 366c0 145 115 173 197 173s158 -29 158 -52c0 -8 -9 -22 -18 -22c-14 0 -51 38 -141 38c-75 0 -160 -26 -160 -134c0 -215 337 -81 337 -366c0 -142 -83 -201 -198 -201c-128 0 -193 74 -193 101c0 10 10 21 17 21
c19 0 36 -86 171 -86z" />
    <glyph glyph-name="Sacute" unicode="&#x15a;" horiz-adv-x="481" 
d="M230 30c109 0 167 56 167 162c0 255 -337 118 -337 366c0 145 115 173 197 173s158 -29 158 -52c0 -8 -9 -22 -18 -22c-14 0 -51 38 -141 38c-75 0 -160 -26 -160 -134c0 -215 337 -81 337 -366c0 -142 -83 -201 -198 -201c-128 0 -193 74 -193 101c0 10 10 21 17 21
c19 0 36 -86 171 -86zM294 917l-95 -54c-3 -2 -6 -3 -9 -3c-10 0 -19 8 -19 18c0 5 2 10 8 13l102 60c2 1 5 2 7 2c10 0 16 -9 16 -18c0 -7 -3 -14 -10 -18z" />
    <glyph glyph-name="Scaron" unicode="&#x160;" horiz-adv-x="481" 
d="M230 30c109 0 167 56 167 162c0 255 -337 118 -337 366c0 145 115 173 197 173s158 -29 158 -52c0 -8 -9 -22 -18 -22c-14 0 -51 38 -141 38c-75 0 -160 -26 -160 -134c0 -215 337 -81 337 -366c0 -142 -83 -201 -198 -201c-128 0 -193 74 -193 101c0 10 10 21 17 21
c19 0 36 -86 171 -86zM357 959l-100 -101c-7 -7 -14 -11 -21 -11s-15 4 -21 11l-100 101c-5 6 -8 11 -8 16c0 7 6 15 15 15c5 0 11 -2 16 -8l98 -103l98 103c5 6 11 8 16 8c9 0 15 -8 15 -15c0 -5 -3 -10 -8 -16z" />
    <glyph glyph-name="Scedilla" unicode="&#x15e;" horiz-adv-x="481" 
d="M230 30c109 0 167 56 167 162c0 255 -337 118 -337 366c0 145 115 173 197 173s158 -29 158 -52c0 -8 -9 -22 -18 -22c-14 0 -51 38 -141 38c-75 0 -160 -26 -160 -134c0 -215 337 -81 337 -366c0 -124 -63 -185 -155 -198l-15 -62c68 -2 94 -36 94 -70
c0 -37 -30 -72 -82 -72c-23 0 -74 7 -74 24c0 6 6 18 12 18c7 0 23 -13 56 -13c42 0 55 20 55 41c0 31 -27 42 -70 45l-29 2l20 84h-10c-128 0 -193 74 -193 101c0 10 10 21 17 21c19 0 36 -86 171 -86z" />
    <glyph glyph-name="Scircumflex" unicode="&#x15c;" horiz-adv-x="481" 
d="M230 30c109 0 167 56 167 162c0 255 -337 118 -337 366c0 145 115 173 197 173s158 -29 158 -52c0 -8 -9 -22 -18 -22c-14 0 -51 38 -141 38c-75 0 -160 -26 -160 -134c0 -215 337 -81 337 -366c0 -142 -83 -201 -198 -201c-128 0 -193 74 -193 101c0 10 10 21 17 21
c19 0 36 -86 171 -86zM237 918l-104 -56c-3 -1 -6 -3 -8 -3c-9 0 -18 8 -18 19c0 5 3 11 9 14l104 56c5 3 11 5 17 5s12 -2 17 -5l104 -55c6 -3 9 -10 9 -17c0 -9 -8 -16 -17 -16c-3 0 -6 2 -9 3z" />
    <glyph glyph-name="Scommaaccent" unicode="&#x218;" horiz-adv-x="481" 
d="M230 30c109 0 167 56 167 162c0 255 -337 118 -337 366c0 145 115 173 197 173s158 -29 158 -52c0 -8 -9 -22 -18 -22c-14 0 -51 38 -141 38c-75 0 -160 -26 -160 -134c0 -215 337 -81 337 -366c0 -142 -83 -201 -198 -201c-128 0 -193 74 -193 101c0 10 10 21 17 21
c19 0 36 -86 171 -86zM308 -84l-95 -54c-3 -2 -6 -3 -9 -3c-10 0 -19 8 -19 18c0 5 2 10 8 13l102 60c2 1 5 2 7 2c10 0 16 -9 16 -18c0 -7 -3 -14 -10 -18z" />
    <glyph glyph-name="T" unicode="T" 
d="M210 695h-178c-11 0 -18 9 -18 18s7 18 18 18h391c12 0 18 -8 18 -17s-5 -19 -18 -19h-177v-677c0 -12 -9 -18 -18 -18s-18 6 -18 18v677z" />
    <glyph glyph-name="Tbar" unicode="&#x166;" horiz-adv-x="459" 
d="M212 695h-178c-11 0 -18 9 -18 18s7 18 18 18h391c12 0 18 -8 18 -17s-5 -19 -18 -19h-177v-312h147c12 0 18 -8 18 -17s-5 -19 -18 -19h-147v-329c0 -12 -9 -18 -18 -18s-18 6 -18 18v329h-148c-11 0 -18 9 -18 18s7 18 18 18h148v312z" />
    <glyph glyph-name="Tcaron" unicode="&#x164;" 
d="M210 695h-178c-11 0 -18 9 -18 18s7 18 18 18h391c12 0 18 -8 18 -17s-5 -19 -18 -19h-177v-677c0 -12 -9 -18 -18 -18s-18 6 -18 18v677zM347 959l-100 -101c-7 -7 -14 -11 -21 -11s-15 4 -21 11l-100 101c-5 6 -8 11 -8 16c0 7 6 15 15 15c5 0 11 -2 16 -8l98 -103
l98 103c5 6 11 8 16 8c9 0 15 -8 15 -15c0 -5 -3 -10 -8 -16z" />
    <glyph glyph-name="Tcommaaccent" unicode="&#x162;" 
d="M210 695h-178c-11 0 -18 9 -18 18s7 18 18 18h391c12 0 18 -8 18 -17s-5 -19 -18 -19h-177v-677c0 -12 -9 -18 -18 -18s-18 6 -18 18v677zM284 -84l-95 -54c-3 -2 -6 -3 -9 -3c-10 0 -19 8 -19 18c0 5 2 10 8 13l102 60c2 1 5 2 7 2c10 0 16 -9 16 -18
c0 -7 -3 -14 -10 -18z" />
    <glyph glyph-name="Thorn" unicode="&#xde;" horiz-adv-x="483" 
d="M83 18v697c0 11 8 16 17 16c11 0 18 -7 18 -17v-172c23 41 69 76 143 76c87 0 171 -49 171 -145v-192c0 -96 -87 -147 -166 -147c-63 0 -131 32 -148 78v-194c0 -9 -8 -18 -17 -18c-10 0 -18 9 -18 18zM263 169c66 0 134 35 134 112v192c0 75 -67 110 -134 110
c-77 0 -145 -45 -145 -110v-192c0 -54 61 -112 145 -112z" />
    <glyph glyph-name="U" unicode="U" horiz-adv-x="549" 
d="M79 200v514c0 12 9 17 18 17s18 -5 18 -17v-514c0 -116 59 -170 159 -170s160 54 160 170v514c0 12 9 17 18 17s18 -5 18 -17v-514c0 -150 -86 -206 -196 -206s-195 56 -195 206z" />
    <glyph glyph-name="Uacute" unicode="&#xda;" horiz-adv-x="549" 
d="M79 200v514c0 12 9 17 18 17s18 -5 18 -17v-514c0 -116 59 -170 159 -170s160 54 160 170v514c0 12 9 17 18 17s18 -5 18 -17v-514c0 -150 -86 -206 -196 -206s-195 56 -195 206zM331 917l-95 -54c-3 -2 -6 -3 -9 -3c-10 0 -19 8 -19 18c0 5 2 10 8 13l102 60
c2 1 5 2 7 2c10 0 16 -9 16 -18c0 -7 -3 -14 -10 -18z" />
    <glyph glyph-name="Ubreve" unicode="&#x16c;" horiz-adv-x="549" 
d="M79 200v514c0 12 9 17 18 17s18 -5 18 -17v-514c0 -116 59 -170 159 -170s160 54 160 170v514c0 12 9 17 18 17s18 -5 18 -17v-514c0 -150 -86 -206 -196 -206s-195 56 -195 206zM350 969h33c0 -59 -52 -109 -109 -109c-58 0 -109 50 -109 109h32c0 -46 35 -83 77 -83
c41 0 76 37 76 83z" />
    <glyph glyph-name="Ucircumflex" unicode="&#xdb;" horiz-adv-x="549" 
d="M79 200v514c0 12 9 17 18 17s18 -5 18 -17v-514c0 -116 59 -170 159 -170s160 54 160 170v514c0 12 9 17 18 17s18 -5 18 -17v-514c0 -150 -86 -206 -196 -206s-195 56 -195 206zM274 918l-104 -56c-3 -1 -6 -3 -8 -3c-9 0 -18 8 -18 19c0 5 3 11 9 14l104 56
c5 3 11 5 17 5s12 -2 17 -5l104 -55c6 -3 9 -10 9 -17c0 -9 -8 -16 -17 -16c-3 0 -6 2 -9 3z" />
    <glyph glyph-name="Udieresis" unicode="&#xdc;" horiz-adv-x="549" 
d="M79 200v514c0 12 9 17 18 17s18 -5 18 -17v-514c0 -116 59 -170 159 -170s160 54 160 170v514c0 12 9 17 18 17s18 -5 18 -17v-514c0 -150 -86 -206 -196 -206s-195 56 -195 206zM219 918c17 0 29 -12 29 -29s-12 -30 -29 -30c-18 0 -30 13 -30 30s12 29 30 29zM330 918
c17 0 29 -12 29 -29s-12 -30 -29 -30c-18 0 -30 13 -30 30s12 29 30 29z" />
    <glyph glyph-name="Ugrave" unicode="&#xd9;" horiz-adv-x="549" 
d="M79 200v514c0 12 9 17 18 17s18 -5 18 -17v-514c0 -116 59 -170 159 -170s160 54 160 170v514c0 12 9 17 18 17s18 -5 18 -17v-514c0 -150 -86 -206 -196 -206s-195 56 -195 206zM313 863l-95 54c-7 4 -10 11 -10 18c0 9 6 18 16 18c2 0 5 -1 7 -2l102 -60
c6 -3 8 -8 8 -13c0 -10 -9 -18 -19 -18c-3 0 -6 1 -9 3z" />
    <glyph glyph-name="Uhungarumlaut" unicode="&#x170;" horiz-adv-x="549" 
d="M79 200v514c0 12 9 17 18 17s18 -5 18 -17v-514c0 -116 59 -170 159 -170s160 54 160 170v514c0 12 9 17 18 17s18 -5 18 -17v-514c0 -150 -86 -206 -196 -206s-195 56 -195 206zM308 917l-95 -54c-3 -2 -6 -3 -9 -3c-10 0 -19 8 -19 18c0 5 2 10 8 13l102 60
c2 1 5 2 7 2c10 0 16 -9 16 -18c0 -7 -3 -14 -10 -18zM455 917l-95 -54c-3 -2 -6 -3 -9 -3c-10 0 -19 8 -19 18c0 5 2 10 8 13l102 60c2 1 5 2 7 2c10 0 16 -9 16 -18c0 -7 -3 -14 -10 -18z" />
    <glyph glyph-name="Umacron" unicode="&#x16a;" horiz-adv-x="549" 
d="M79 200v514c0 12 9 17 18 17s18 -5 18 -17v-514c0 -116 59 -170 159 -170s160 54 160 170v514c0 12 9 17 18 17s18 -5 18 -17v-514c0 -150 -86 -206 -196 -206s-195 56 -195 206zM147 923c0 10 7 18 17 18h220c9 0 18 -8 18 -18s-9 -17 -18 -17h-220c-10 0 -17 7 -17 17z
" />
    <glyph glyph-name="Uogonek" unicode="&#x172;" horiz-adv-x="549" 
d="M331 -169c10 0 18 -3 18 -13s-6 -13 -23 -13c-36 0 -87 13 -87 67c0 48 20 87 52 123c-6 -1 -12 -1 -17 -1c-110 0 -195 56 -195 206v514c0 12 9 17 18 17s18 -5 18 -17v-514c0 -116 59 -170 159 -170s160 54 160 170v514c0 12 9 17 18 17s18 -5 18 -17v-514
c0 -118 -54 -178 -130 -198c-40 -39 -72 -76 -72 -128c0 -33 25 -43 63 -43z" />
    <glyph glyph-name="Uring" unicode="&#x16e;" horiz-adv-x="549" 
d="M79 200v514c0 12 9 17 18 17s18 -5 18 -17v-514c0 -116 59 -170 159 -170s160 54 160 170v514c0 12 9 17 18 17s18 -5 18 -17v-514c0 -150 -86 -206 -196 -206s-195 56 -195 206zM274 1027c47 0 90 -43 90 -91c0 -49 -43 -93 -90 -93c-50 0 -90 44 -90 93
c0 47 39 91 90 91zM339 936c0 31 -30 65 -65 65c-37 0 -66 -34 -66 -65c0 -35 30 -70 66 -70c35 0 65 35 65 70z" />
    <glyph glyph-name="Utilde" unicode="&#x168;" horiz-adv-x="549" 
d="M79 200v514c0 12 9 17 18 17s18 -5 18 -17v-514c0 -116 59 -170 159 -170s160 54 160 170v514c0 12 9 17 18 17s18 -5 18 -17v-514c0 -150 -86 -206 -196 -206s-195 56 -195 206zM343 912c46 0 49 32 65 32c7 0 14 -6 14 -15c0 -31 -52 -51 -84 -51c-48 0 -73 37 -129 37
c-43 0 -55 -35 -69 -35c-7 0 -13 6 -13 17c0 26 53 52 89 52c49 0 76 -37 127 -37z" />
    <glyph glyph-name="V" unicode="V" horiz-adv-x="519" 
d="M60 718l200 -648l199 648c3 9 9 13 16 13c10 0 20 -8 20 -17c0 -2 -1 -3 -1 -5l-215 -701c-3 -9 -11 -14 -19 -14s-15 4 -18 14l-217 701c-1 2 -1 4 -1 6c0 10 9 16 18 16c8 0 15 -4 18 -13z" />
    <glyph glyph-name="W" unicode="W" horiz-adv-x="739" 
d="M242 70l106 385c4 14 12 17 22 17s16 -3 20 -17l108 -385l179 648c2 8 11 13 19 13c9 0 17 -5 17 -16c0 -2 0 -3 -1 -6l-195 -701c-3 -9 -10 -14 -19 -14c-8 0 -16 4 -18 14l-110 392l-109 -392c-3 -9 -10 -14 -19 -14c-8 0 -16 4 -18 14l-197 701c-1 3 -1 4 -1 6
c0 11 8 16 17 16c8 0 17 -5 19 -13z" />
    <glyph glyph-name="Wacute" unicode="&#x1e82;" horiz-adv-x="739" 
d="M242 70l106 385c4 14 12 17 22 17s16 -3 20 -17l108 -385l179 648c2 8 11 13 19 13c9 0 17 -5 17 -16c0 -2 0 -3 -1 -6l-195 -701c-3 -9 -10 -14 -19 -14c-8 0 -16 4 -18 14l-110 392l-109 -392c-3 -9 -10 -14 -19 -14c-8 0 -16 4 -18 14l-197 701c-1 3 -1 4 -1 6
c0 11 8 16 17 16c8 0 17 -5 19 -13zM426 917l-95 -54c-3 -2 -6 -3 -9 -3c-10 0 -19 8 -19 18c0 5 2 10 8 13l102 60c2 1 5 2 7 2c10 0 16 -9 16 -18c0 -7 -3 -14 -10 -18z" />
    <glyph glyph-name="Wcircumflex" unicode="&#x174;" horiz-adv-x="739" 
d="M242 70l106 385c4 14 12 17 22 17s16 -3 20 -17l108 -385l179 648c2 8 11 13 19 13c9 0 17 -5 17 -16c0 -2 0 -3 -1 -6l-195 -701c-3 -9 -10 -14 -19 -14c-8 0 -16 4 -18 14l-110 392l-109 -392c-3 -9 -10 -14 -19 -14c-8 0 -16 4 -18 14l-197 701c-1 3 -1 4 -1 6
c0 11 8 16 17 16c8 0 17 -5 19 -13zM369 918l-104 -56c-3 -1 -6 -3 -8 -3c-9 0 -18 8 -18 19c0 5 3 11 9 14l104 56c5 3 11 5 17 5s12 -2 17 -5l104 -55c6 -3 9 -10 9 -17c0 -9 -8 -16 -17 -16c-3 0 -6 2 -9 3z" />
    <glyph glyph-name="Wdieresis" unicode="&#x1e84;" horiz-adv-x="739" 
d="M242 70l106 385c4 14 12 17 22 17s16 -3 20 -17l108 -385l179 648c2 8 11 13 19 13c9 0 17 -5 17 -16c0 -2 0 -3 -1 -6l-195 -701c-3 -9 -10 -14 -19 -14c-8 0 -16 4 -18 14l-110 392l-109 -392c-3 -9 -10 -14 -19 -14c-8 0 -16 4 -18 14l-197 701c-1 3 -1 4 -1 6
c0 11 8 16 17 16c8 0 17 -5 19 -13zM314 918c17 0 29 -12 29 -29s-12 -30 -29 -30c-18 0 -30 13 -30 30s12 29 30 29zM425 918c17 0 29 -12 29 -29s-12 -30 -29 -30c-18 0 -30 13 -30 30s12 29 30 29z" />
    <glyph glyph-name="Wgrave" unicode="&#x1e80;" horiz-adv-x="739" 
d="M242 70l106 385c4 14 12 17 22 17s16 -3 20 -17l108 -385l179 648c2 8 11 13 19 13c9 0 17 -5 17 -16c0 -2 0 -3 -1 -6l-195 -701c-3 -9 -10 -14 -19 -14c-8 0 -16 4 -18 14l-110 392l-109 -392c-3 -9 -10 -14 -19 -14c-8 0 -16 4 -18 14l-197 701c-1 3 -1 4 -1 6
c0 11 8 16 17 16c8 0 17 -5 19 -13zM408 863l-95 54c-7 4 -10 11 -10 18c0 9 6 18 16 18c2 0 5 -1 7 -2l102 -60c6 -3 8 -8 8 -13c0 -10 -9 -18 -19 -18c-3 0 -6 1 -9 3z" />
    <glyph glyph-name="X" unicode="X" horiz-adv-x="447" 
d="M76 695l147 -290l148 290c7 14 16 36 30 36c12 0 18 -5 18 -14c0 -5 -2 -11 -5 -17l-171 -334l173 -337c2 -4 3 -8 3 -11c0 -10 -8 -18 -18 -18c-14 0 -22 22 -29 36l-149 291l-148 -291c-7 -14 -15 -36 -29 -36c-10 0 -18 8 -18 18c0 3 1 7 3 11l172 337l-170 334
c-3 6 -5 12 -5 17c0 9 6 14 18 14c14 0 23 -22 30 -36z" />
    <glyph glyph-name="Y" unicode="Y" horiz-adv-x="509" 
d="M481 695l-208 -416c-1 -2 -1 -4 -1 -6v-255c0 -12 -9 -18 -18 -18s-18 6 -18 18v255c0 2 0 4 -1 6l-207 416c-4 8 -6 15 -6 20c0 10 6 16 13 16c6 0 14 -5 20 -17l199 -401l200 401c6 12 14 17 20 17c7 0 12 -6 12 -16c0 -5 -1 -12 -5 -20z" />
    <glyph glyph-name="Yacute" unicode="&#xdd;" horiz-adv-x="509" 
d="M481 695l-208 -416c-1 -2 -1 -4 -1 -6v-255c0 -12 -9 -18 -18 -18s-18 6 -18 18v255c0 2 0 4 -1 6l-207 416c-4 8 -6 15 -6 20c0 10 6 16 13 16c6 0 14 -5 20 -17l199 -401l200 401c6 12 14 17 20 17c7 0 12 -6 12 -16c0 -5 -1 -12 -5 -20zM310 917l-95 -54
c-3 -2 -6 -3 -9 -3c-10 0 -19 8 -19 18c0 5 2 10 8 13l102 60c2 1 5 2 7 2c10 0 16 -9 16 -18c0 -7 -3 -14 -10 -18z" />
    <glyph glyph-name="Ycircumflex" unicode="&#x176;" horiz-adv-x="509" 
d="M481 695l-208 -416c-1 -2 -1 -4 -1 -6v-255c0 -12 -9 -18 -18 -18s-18 6 -18 18v255c0 2 0 4 -1 6l-207 416c-4 8 -6 15 -6 20c0 10 6 16 13 16c6 0 14 -5 20 -17l199 -401l200 401c6 12 14 17 20 17c7 0 12 -6 12 -16c0 -5 -1 -12 -5 -20zM254 918l-104 -56
c-3 -1 -6 -3 -8 -3c-9 0 -18 8 -18 19c0 5 3 11 9 14l104 56c5 3 11 5 17 5s12 -2 17 -5l104 -55c6 -3 9 -10 9 -17c0 -9 -8 -16 -17 -16c-3 0 -6 2 -9 3z" />
    <glyph glyph-name="Ydieresis" unicode="&#x178;" horiz-adv-x="509" 
d="M481 695l-208 -416c-1 -2 -1 -4 -1 -6v-255c0 -12 -9 -18 -18 -18s-18 6 -18 18v255c0 2 0 4 -1 6l-207 416c-4 8 -6 15 -6 20c0 10 6 16 13 16c6 0 14 -5 20 -17l199 -401l200 401c6 12 14 17 20 17c7 0 12 -6 12 -16c0 -5 -1 -12 -5 -20zM199 918c17 0 29 -12 29 -29
s-12 -30 -29 -30c-18 0 -30 13 -30 30s12 29 30 29zM310 918c17 0 29 -12 29 -29s-12 -30 -29 -30c-18 0 -30 13 -30 30s12 29 30 29z" />
    <glyph glyph-name="Ygrave" unicode="&#x1ef2;" horiz-adv-x="509" 
d="M481 695l-208 -416c-1 -2 -1 -4 -1 -6v-255c0 -12 -9 -18 -18 -18s-18 6 -18 18v255c0 2 0 4 -1 6l-207 416c-4 8 -6 15 -6 20c0 10 6 16 13 16c6 0 14 -5 20 -17l199 -401l200 401c6 12 14 17 20 17c7 0 12 -6 12 -16c0 -5 -1 -12 -5 -20zM293 863l-95 54
c-7 4 -10 11 -10 18c0 9 6 18 16 18c2 0 5 -1 7 -2l102 -60c6 -3 8 -8 8 -13c0 -10 -9 -18 -19 -18c-3 0 -6 1 -9 3z" />
    <glyph glyph-name="Z" unicode="Z" horiz-adv-x="464" 
d="M420 0h-375c-10 0 -18 7 -18 17c0 4 1 8 3 12l350 666h-325c-12 0 -18 9 -18 18s6 18 18 18h355c12 0 18 -6 18 -15c0 -5 -2 -11 -5 -16l-349 -664h346c12 0 18 -9 18 -18s-6 -18 -18 -18z" />
    <glyph glyph-name="Zacute" unicode="&#x179;" horiz-adv-x="464" 
d="M420 0h-375c-10 0 -18 7 -18 17c0 4 1 8 3 12l350 666h-325c-12 0 -18 9 -18 18s6 18 18 18h355c12 0 18 -6 18 -15c0 -5 -2 -11 -5 -16l-349 -664h346c12 0 18 -9 18 -18s-6 -18 -18 -18zM279 917l-95 -54c-3 -2 -6 -3 -9 -3c-10 0 -19 8 -19 18c0 5 2 10 8 13l102 60
c2 1 5 2 7 2c10 0 16 -9 16 -18c0 -7 -3 -14 -10 -18z" />
    <glyph glyph-name="Zcaron" unicode="&#x17d;" horiz-adv-x="464" 
d="M420 0h-375c-10 0 -18 7 -18 17c0 4 1 8 3 12l350 666h-325c-12 0 -18 9 -18 18s6 18 18 18h355c12 0 18 -6 18 -15c0 -5 -2 -11 -5 -16l-349 -664h346c12 0 18 -9 18 -18s-6 -18 -18 -18zM342 959l-100 -101c-7 -7 -14 -11 -21 -11s-15 4 -21 11l-100 101
c-5 6 -8 11 -8 16c0 7 6 15 15 15c5 0 11 -2 16 -8l98 -103l98 103c5 6 11 8 16 8c9 0 15 -8 15 -15c0 -5 -3 -10 -8 -16z" />
    <glyph glyph-name="Zdotaccent" unicode="&#x17b;" horiz-adv-x="464" 
d="M420 0h-375c-10 0 -18 7 -18 17c0 4 1 8 3 12l350 666h-325c-12 0 -18 9 -18 18s6 18 18 18h355c12 0 18 -6 18 -15c0 -5 -2 -11 -5 -16l-349 -664h346c12 0 18 -9 18 -18s-6 -18 -18 -18zM223 918c17 0 29 -12 29 -29s-12 -30 -29 -30c-18 0 -30 13 -30 30s12 29 30 29z
" />
    <glyph glyph-name="a" unicode="a" horiz-adv-x="423" 
d="M194 478c123 0 165 -93 165 -192v-268c0 -10 -7 -18 -17 -18s-18 8 -18 18v52c-34 -39 -84 -76 -150 -76c-78 0 -139 42 -139 132c0 106 94 132 233 132h56v28c0 75 -37 157 -132 157c-62 0 -92 -27 -104 -27c-11 0 -18 13 -18 20c0 19 63 42 124 42zM324 139v84h-55
c-103 0 -199 -10 -199 -97c0 -67 45 -97 103 -97c75 0 151 67 151 110z" />
    <glyph glyph-name="a.ss01" horiz-adv-x="431" 
d="M193 478c123 0 165 -93 165 -192v-196c0 -36 12 -61 42 -61c10 0 18 -7 18 -17c0 -9 -8 -18 -18 -18c-52 0 -68 30 -73 76c-38 -41 -87 -76 -156 -76c-74 0 -137 42 -137 130c0 108 93 133 233 133h56v29c0 75 -37 157 -132 157c-62 0 -92 -27 -104 -27
c-11 0 -18 13 -18 20c0 19 63 42 124 42zM323 139v84h-55c-107 0 -199 -10 -199 -99c0 -63 45 -95 100 -95c80 0 154 67 154 110z" />
    <glyph glyph-name="aacute" unicode="&#xe1;" horiz-adv-x="423" 
d="M194 478c123 0 165 -93 165 -192v-268c0 -10 -7 -18 -17 -18s-18 8 -18 18v52c-34 -39 -84 -76 -150 -76c-78 0 -139 42 -139 132c0 106 94 132 233 132h56v28c0 75 -37 157 -132 157c-62 0 -92 -27 -104 -27c-11 0 -18 13 -18 20c0 19 63 42 124 42zM324 139v84h-55
c-103 0 -199 -10 -199 -97c0 -67 45 -97 103 -97c75 0 151 67 151 110zM253 658l-95 -54c-3 -2 -6 -3 -9 -3c-10 0 -19 8 -19 18c0 5 2 10 8 13l102 60c2 1 5 2 7 2c10 0 16 -9 16 -18c0 -7 -3 -14 -10 -18z" />
    <glyph glyph-name="abreve" unicode="&#x103;" horiz-adv-x="423" 
d="M283 710h33c0 -59 -52 -109 -109 -109c-58 0 -109 50 -109 109h32c0 -46 35 -83 77 -83c41 0 76 37 76 83zM194 478c123 0 165 -93 165 -192v-268c0 -10 -7 -18 -17 -18s-18 8 -18 18v52c-34 -39 -84 -76 -150 -76c-78 0 -139 42 -139 132c0 106 94 132 233 132h56v28
c0 75 -37 157 -132 157c-62 0 -92 -27 -104 -27c-11 0 -18 13 -18 20c0 19 63 42 124 42zM324 139v84h-55c-103 0 -199 -10 -199 -97c0 -67 45 -97 103 -97c75 0 151 67 151 110z" />
    <glyph glyph-name="acircumflex" unicode="&#xe2;" horiz-adv-x="423" 
d="M201 659l-104 -56c-3 -1 -6 -3 -8 -3c-9 0 -18 8 -18 19c0 5 3 11 9 14l104 56c5 3 11 5 17 5s12 -2 17 -5l104 -55c6 -3 9 -10 9 -17c0 -9 -8 -16 -17 -16c-3 0 -6 2 -9 3zM194 478c123 0 165 -93 165 -192v-268c0 -10 -7 -18 -17 -18s-18 8 -18 18v52
c-34 -39 -84 -76 -150 -76c-78 0 -139 42 -139 132c0 106 94 132 233 132h56v28c0 75 -37 157 -132 157c-62 0 -92 -27 -104 -27c-11 0 -18 13 -18 20c0 19 63 42 124 42zM324 139v84h-55c-103 0 -199 -10 -199 -97c0 -67 45 -97 103 -97c75 0 151 67 151 110z" />
    <glyph glyph-name="acute" unicode="&#xb4;" horiz-adv-x="133" 
d="M123 658l-95 -54c-3 -2 -6 -3 -9 -3c-10 0 -19 8 -19 18c0 5 2 10 8 13l102 60c2 1 5 2 7 2c10 0 16 -9 16 -18c0 -7 -3 -14 -10 -18z" />
    <glyph glyph-name="adieresis" unicode="&#xe4;" horiz-adv-x="423" 
d="M142 659c17 0 29 -12 29 -29s-12 -30 -29 -30c-18 0 -30 13 -30 30s12 29 30 29zM253 659c17 0 29 -12 29 -29s-12 -30 -29 -30c-18 0 -30 13 -30 30s12 29 30 29zM194 478c123 0 165 -93 165 -192v-268c0 -10 -7 -18 -17 -18s-18 8 -18 18v52c-34 -39 -84 -76 -150 -76
c-78 0 -139 42 -139 132c0 106 94 132 233 132h56v28c0 75 -37 157 -132 157c-62 0 -92 -27 -104 -27c-11 0 -18 13 -18 20c0 19 63 42 124 42zM324 139v84h-55c-103 0 -199 -10 -199 -97c0 -67 45 -97 103 -97c75 0 151 67 151 110z" />
    <glyph glyph-name="ae" unicode="&#xe6;" horiz-adv-x="719" 
d="M192 479c83 0 130 -43 151 -101c29 57 88 100 158 100c75 0 178 -50 178 -194c0 -51 -13 -61 -83 -61h-235v-47c0 -91 71 -147 165 -147c81 0 102 41 120 41c7 0 18 -7 18 -18c0 -29 -85 -58 -150 -58c-73 0 -143 37 -173 104c-41 -77 -112 -104 -170 -104
c-73 0 -136 42 -136 131c0 107 92 133 231 133h56v29c0 76 -36 157 -135 157c-57 0 -90 -27 -102 -27c-9 0 -17 13 -17 20c0 19 63 42 124 42zM361 258h223c53 0 60 8 60 35c0 75 -56 150 -142 150c-81 0 -141 -66 -141 -141v-44zM322 139v84h-55c-106 0 -197 -10 -197 -99
c0 -63 45 -95 102 -95c83 0 150 69 150 110z" />
    <glyph glyph-name="aeacute" unicode="&#x1fd;" horiz-adv-x="719" 
d="M192 479c83 0 130 -43 151 -101c29 57 88 100 158 100c75 0 178 -50 178 -194c0 -51 -13 -61 -83 -61h-235v-47c0 -91 71 -147 165 -147c81 0 102 41 120 41c7 0 18 -7 18 -18c0 -29 -85 -58 -150 -58c-73 0 -143 37 -173 104c-41 -77 -112 -104 -170 -104
c-73 0 -136 42 -136 131c0 107 92 133 231 133h56v29c0 76 -36 157 -135 157c-57 0 -90 -27 -102 -27c-9 0 -17 13 -17 20c0 19 63 42 124 42zM361 258h223c53 0 60 8 60 35c0 75 -56 150 -142 150c-81 0 -141 -66 -141 -141v-44zM322 139v84h-55c-106 0 -197 -10 -197 -99
c0 -63 45 -95 102 -95c83 0 150 69 150 110zM416 658l-95 -54c-3 -2 -6 -3 -9 -3c-10 0 -19 8 -19 18c0 5 2 10 8 13l102 60c2 1 5 2 7 2c10 0 16 -9 16 -18c0 -7 -3 -14 -10 -18z" />
    <glyph glyph-name="agrave" unicode="&#xe0;" horiz-adv-x="423" 
d="M235 604l-95 54c-7 4 -10 11 -10 18c0 9 6 18 16 18c2 0 5 -1 7 -2l102 -60c6 -3 8 -8 8 -13c0 -10 -9 -18 -19 -18c-3 0 -6 1 -9 3zM194 478c123 0 165 -93 165 -192v-268c0 -10 -7 -18 -17 -18s-18 8 -18 18v52c-34 -39 -84 -76 -150 -76c-78 0 -139 42 -139 132
c0 106 94 132 233 132h56v28c0 75 -37 157 -132 157c-62 0 -92 -27 -104 -27c-11 0 -18 13 -18 20c0 19 63 42 124 42zM324 139v84h-55c-103 0 -199 -10 -199 -97c0 -67 45 -97 103 -97c75 0 151 67 151 110z" />
    <glyph glyph-name="amacron" unicode="&#x101;" horiz-adv-x="423" 
d="M79 664c0 10 7 18 17 18h220c9 0 18 -8 18 -18s-9 -17 -18 -17h-220c-10 0 -17 7 -17 17zM194 478c123 0 165 -93 165 -192v-268c0 -10 -7 -18 -17 -18s-18 8 -18 18v52c-34 -39 -84 -76 -150 -76c-78 0 -139 42 -139 132c0 106 94 132 233 132h56v28
c0 75 -37 157 -132 157c-62 0 -92 -27 -104 -27c-11 0 -18 13 -18 20c0 19 63 42 124 42zM324 139v84h-55c-103 0 -199 -10 -199 -97c0 -67 45 -97 103 -97c75 0 151 67 151 110z" />
    <glyph glyph-name="ampersand" unicode="&#x26;" horiz-adv-x="595" 
d="M263 748c104 0 148 -67 148 -87c0 -10 -6 -16 -17 -16c-19 0 -30 71 -127 71c-81 0 -129 -55 -129 -136c0 -74 40 -125 89 -179l223 -247c31 71 38 154 39 205c0 16 5 21 17 21c10 0 15 -6 15 -23c0 -36 -4 -142 -47 -230l97 -106c3 -4 5 -8 5 -11c0 -9 -8 -16 -16 -16
c-4 0 -8 2 -12 6l-90 97c-39 -61 -101 -107 -198 -107c-141 0 -219 97 -219 209c0 107 72 169 141 198c-41 49 -86 105 -86 186c0 106 77 165 167 165zM266 25c85 0 136 41 168 97l-231 249c-50 -27 -125 -69 -125 -168c0 -93 67 -178 188 -178z" />
    <glyph glyph-name="aogonek" unicode="&#x105;" horiz-adv-x="423" 
d="M194 478c123 0 165 -93 165 -192v-268c0 -7 -4 -13 -9 -16c-40 -39 -72 -76 -72 -128c0 -33 25 -43 63 -43c10 0 18 -3 18 -13s-6 -13 -23 -13c-36 0 -87 13 -87 67c0 58 31 104 75 146v52c-34 -39 -84 -76 -150 -76c-78 0 -139 42 -139 132c0 106 94 132 233 132h56v28
c0 75 -37 157 -132 157c-62 0 -92 -27 -104 -27c-11 0 -18 13 -18 20c0 19 63 42 124 42zM324 139v84h-55c-103 0 -199 -10 -199 -97c0 -67 45 -97 103 -97c75 0 151 67 151 110z" />
    <glyph glyph-name="approxequal" unicode="&#x2248;" horiz-adv-x="441" 
d="M289 174c46 0 49 32 65 32c7 0 14 -6 14 -15c0 -31 -52 -51 -84 -51c-48 0 -73 37 -129 37c-43 0 -55 -35 -69 -35c-7 0 -13 6 -13 17c0 26 53 52 89 52c49 0 76 -37 127 -37zM289 375c46 0 49 32 65 32c7 0 14 -6 14 -15c0 -31 -52 -51 -84 -51c-48 0 -73 37 -129 37
c-43 0 -55 -35 -69 -35c-7 0 -13 6 -13 17c0 26 53 52 89 52c49 0 76 -37 127 -37z" />
    <glyph glyph-name="aring" unicode="&#xe5;" horiz-adv-x="423" 
d="M197 768c47 0 90 -43 90 -91c0 -49 -43 -93 -90 -93c-50 0 -90 44 -90 93c0 47 39 91 90 91zM262 677c0 31 -30 65 -65 65c-37 0 -66 -34 -66 -65c0 -35 30 -70 66 -70c35 0 65 35 65 70zM194 478c123 0 165 -93 165 -192v-268c0 -10 -7 -18 -17 -18s-18 8 -18 18v52
c-34 -39 -84 -76 -150 -76c-78 0 -139 42 -139 132c0 106 94 132 233 132h56v28c0 75 -37 157 -132 157c-62 0 -92 -27 -104 -27c-11 0 -18 13 -18 20c0 19 63 42 124 42zM324 139v84h-55c-103 0 -199 -10 -199 -97c0 -67 45 -97 103 -97c75 0 151 67 151 110z" />
    <glyph glyph-name="arrowdown" unicode="&#x2193;" horiz-adv-x="771" 
d="M167 179c4 0 9 -1 12 -5l189 -190v555c0 10 7 17 17 17s18 -7 18 -17v-555l189 190c4 4 8 5 12 5c10 0 18 -8 18 -17c0 -5 -2 -9 -5 -13l-214 -215c-6 -6 -12 -9 -18 -9c-5 0 -11 3 -17 9l-214 215c-4 4 -5 8 -5 13c0 11 9 17 18 17z" />
    <glyph glyph-name="arrowleft" unicode="&#x2190;" horiz-adv-x="771" 
d="M324 22c0 -9 -6 -18 -17 -18c-5 0 -9 1 -13 5l-215 214c-6 6 -9 12 -9 17c0 6 3 12 9 18l215 214c4 3 8 5 13 5c9 0 17 -8 17 -18c0 -4 -1 -8 -5 -12l-190 -189h555c10 0 17 -8 17 -18s-7 -17 -17 -17h-555l190 -189c4 -3 5 -8 5 -12z" />
    <glyph glyph-name="arrowright" unicode="&#x2192;" horiz-adv-x="771" 
d="M447 22c0 4 1 9 5 12l190 189h-555c-10 0 -17 7 -17 17s7 18 17 18h555l-190 189c-4 4 -5 8 -5 12c0 10 8 18 17 18c5 0 9 -2 13 -5l215 -214c6 -6 9 -12 9 -18c0 -5 -3 -11 -9 -17l-215 -214c-4 -4 -8 -5 -13 -5c-11 0 -17 9 -17 18z" />
    <glyph glyph-name="arrowup" unicode="&#x2191;" horiz-adv-x="771" 
d="M167 302c-9 0 -18 6 -18 17c0 5 1 9 5 13l214 215c6 6 12 9 17 9c6 0 12 -3 18 -9l214 -215c3 -4 5 -8 5 -13c0 -9 -8 -17 -18 -17c-4 0 -8 1 -12 5l-189 190v-555c0 -10 -8 -17 -18 -17s-17 7 -17 17v555l-189 -190c-3 -4 -8 -5 -12 -5z" />
    <glyph glyph-name="asciicircum" unicode="^" horiz-adv-x="260" 
d="M130 659l-104 -56c-3 -1 -6 -3 -8 -3c-9 0 -18 8 -18 19c0 5 3 11 9 14l104 56c5 3 11 5 17 5s12 -2 17 -5l104 -55c6 -3 9 -10 9 -17c0 -9 -8 -16 -17 -16c-3 0 -6 2 -9 3z" />
    <glyph glyph-name="asciitilde" unicode="~" horiz-adv-x="400" 
d="M269 257c46 0 49 32 65 32c7 0 14 -6 14 -15c0 -31 -52 -51 -84 -51c-48 0 -73 37 -129 37c-43 0 -55 -35 -69 -35c-7 0 -13 6 -13 17c0 26 53 52 89 52c49 0 76 -37 127 -37z" />
    <glyph glyph-name="asterisk" unicode="*" horiz-adv-x="416" 
d="M232 547l85 -112c2 -3 3 -6 3 -9c0 -11 -10 -19 -20 -19c-4 0 -9 2 -13 7l-79 115l-80 -116c-3 -4 -7 -6 -11 -6c-8 0 -21 7 -21 18c0 4 1 7 4 11l84 110l-134 40c-8 2 -11 9 -11 16c0 10 7 20 18 20c1 0 3 0 5 -1l133 -47l-5 140c0 11 9 17 18 17s18 -6 18 -17l-5 -141
l133 48c2 1 5 1 6 1c9 0 17 -11 17 -20c0 -7 -4 -14 -12 -16z" />
    <glyph glyph-name="at" unicode="@" horiz-adv-x="707" 
d="M236 374c0 23 65 40 119 40c88 0 133 -46 133 -125v-164c3 -28 35 -51 65 -51c58 0 72 88 72 159c0 175 -86 282 -265 282c-199 0 -265 -142 -265 -294c0 -141 60 -276 234 -276c91 0 128 33 146 33c8 0 15 -8 15 -14c0 -21 -81 -54 -164 -54c-137 0 -265 93 -265 310
c0 182 85 332 302 332c191 0 296 -109 296 -318c0 -97 -23 -193 -108 -193c-47 0 -85 30 -94 61c-35 -33 -62 -50 -121 -50c-71 0 -126 26 -126 106c0 90 72 109 194 109h49v21c0 62 -33 91 -107 91c-66 0 -77 -23 -93 -23c-11 0 -17 11 -17 18zM453 166v67h-48
c-90 0 -160 -5 -160 -76c0 -52 39 -72 89 -72c78 0 119 46 119 81z" />
    <glyph glyph-name="atilde" unicode="&#xe3;" horiz-adv-x="423" 
d="M265 653c46 0 49 32 65 32c7 0 14 -6 14 -15c0 -31 -52 -51 -84 -51c-48 0 -73 37 -129 37c-43 0 -55 -35 -69 -35c-7 0 -13 6 -13 17c0 26 53 52 89 52c49 0 76 -37 127 -37zM194 478c123 0 165 -93 165 -192v-268c0 -10 -7 -18 -17 -18s-18 8 -18 18v52
c-34 -39 -84 -76 -150 -76c-78 0 -139 42 -139 132c0 106 94 132 233 132h56v28c0 75 -37 157 -132 157c-62 0 -92 -27 -104 -27c-11 0 -18 13 -18 20c0 19 63 42 124 42zM324 139v84h-55c-103 0 -199 -10 -199 -97c0 -67 45 -97 103 -97c75 0 151 67 151 110z" />
    <glyph glyph-name="b" unicode="b" horiz-adv-x="468" 
d="M86 768c10 0 18 -7 18 -17v-349c22 39 67 76 134 76c98 0 180 -81 180 -180v-122c0 -95 -83 -182 -178 -182c-61 0 -114 35 -136 76v-52c0 -9 -8 -18 -18 -18s-17 9 -17 18v733c0 10 7 17 17 17zM383 176v122c0 73 -64 145 -142 145c-68 0 -137 -54 -137 -145v-159
c0 -34 59 -110 138 -110c76 0 141 72 141 147z" />
    <glyph glyph-name="b.ss02" horiz-adv-x="466" 
d="M83 768c10 0 18 -7 18 -17v-349c22 39 67 76 134 76c98 0 180 -81 180 -180v-122c0 -78 -48 -182 -181 -182c-81 0 -168 39 -168 152v606c0 10 7 16 17 16zM380 176v122c0 73 -64 145 -142 145c-68 0 -137 -54 -137 -145v-143c0 -87 61 -126 136 -126
c115 0 143 93 143 147z" />
    <glyph glyph-name="backslash" unicode="\" horiz-adv-x="340" 
d="M279 12l-250 715c-1 3 -1 6 -1 8c0 12 9 19 18 19c6 0 12 -3 14 -9l252 -724c1 -2 1 -4 1 -6c0 -9 -8 -15 -17 -15c-7 0 -14 3 -17 12z" />
    <glyph glyph-name="bar" unicode="|" horiz-adv-x="184" 
d="M92 -21c-10 0 -18 8 -18 17v755c0 9 8 17 18 17c9 0 18 -8 18 -17v-755c0 -9 -9 -17 -18 -17z" />
    <glyph glyph-name="braceleft" unicode="{" horiz-adv-x="285" 
d="M34 384c0 32 60 7 60 38c0 18 -21 155 -21 185c0 86 78 161 175 161c9 0 17 -8 17 -17c0 -10 -8 -18 -17 -18c-82 0 -139 -64 -139 -129c0 -31 21 -163 21 -182c0 -22 -22 -35 -34 -38c12 -4 34 -16 34 -37c0 -23 -21 -182 -21 -220c0 -88 94 -112 139 -112
c13 0 17 -10 17 -17c0 -11 -9 -18 -17 -18c-98 0 -175 60 -175 149c0 33 21 199 21 218c0 31 -60 4 -60 37z" />
    <glyph glyph-name="braceright" unicode="}" horiz-adv-x="285" 
d="M251 384c0 -33 -60 -6 -60 -37c0 -19 21 -185 21 -218c0 -89 -77 -149 -175 -149c-8 0 -17 7 -17 18c0 7 4 17 17 17c45 0 139 24 139 112c0 38 -21 197 -21 220c0 21 21 33 34 37c-13 3 -34 16 -34 38c0 19 21 151 21 182c0 65 -57 129 -139 129c-9 0 -17 8 -17 18
c0 9 8 17 17 17c97 0 175 -75 175 -161c0 -30 -21 -167 -21 -185c0 -31 60 -6 60 -38z" />
    <glyph glyph-name="bracketleft" unicode="[" horiz-adv-x="285" 
d="M248 -21h-156c-9 0 -18 7 -18 17v755c0 9 8 17 18 17h156c9 0 17 -8 17 -17c0 -10 -8 -18 -17 -18h-138v-719h138c9 0 17 -8 17 -18c0 -9 -8 -17 -17 -17z" />
    <glyph glyph-name="bracketright" unicode="]" horiz-adv-x="285" 
d="M193 -21h-156c-9 0 -17 8 -17 17c0 10 8 18 17 18h138v719h-138c-9 0 -17 8 -17 18c0 9 8 17 17 17h156c10 0 18 -8 18 -17v-755c0 -10 -9 -17 -18 -17z" />
    <glyph glyph-name="breve" unicode="&#x2d8;" horiz-adv-x="218" 
d="M185 710h33c0 -59 -52 -109 -109 -109c-58 0 -109 50 -109 109h32c0 -46 35 -83 77 -83c41 0 76 37 76 83z" />
    <glyph glyph-name="brokenbar" unicode="&#xa6;" horiz-adv-x="186" 
d="M93 -21c-10 0 -18 8 -18 17v282c0 9 8 17 18 17c9 0 18 -8 18 -17v-282c0 -9 -9 -17 -18 -17zM93 452c-10 0 -18 8 -18 17v282c0 9 8 17 18 17c9 0 18 -8 18 -17v-282c0 -9 -9 -17 -18 -17z" />
    <glyph glyph-name="bullet" unicode="&#x2022;" horiz-adv-x="304" 
d="M152 393c51 0 95 -44 95 -93c0 -50 -44 -94 -95 -94c-52 0 -96 44 -96 94c0 49 44 93 96 93z" />
    <glyph glyph-name="c" unicode="c" horiz-adv-x="402" 
d="M235 -6c-124 0 -183 78 -183 182v120c0 102 58 182 183 182c80 0 131 -38 131 -59c0 -9 -9 -17 -18 -17c-17 0 -34 41 -113 41c-96 0 -148 -56 -148 -147v-120c0 -91 51 -147 149 -147c84 0 101 41 119 41c9 0 17 -8 17 -17c0 -21 -52 -59 -137 -59z" />
    <glyph glyph-name="cacute" unicode="&#x107;" horiz-adv-x="402" 
d="M235 -6c-124 0 -183 78 -183 182v120c0 102 58 182 183 182c80 0 131 -38 131 -59c0 -9 -9 -17 -18 -17c-17 0 -34 41 -113 41c-96 0 -148 -56 -148 -147v-120c0 -91 51 -147 149 -147c84 0 101 41 119 41c9 0 17 -8 17 -17c0 -21 -52 -59 -137 -59zM268 658l-95 -54
c-3 -2 -6 -3 -9 -3c-10 0 -19 8 -19 18c0 5 2 10 8 13l102 60c2 1 5 2 7 2c10 0 16 -9 16 -18c0 -7 -3 -14 -10 -18z" />
    <glyph glyph-name="caron" unicode="&#x2c7;" horiz-adv-x="280" 
d="M261 700l-100 -101c-7 -7 -14 -11 -21 -11s-15 4 -21 11l-100 101c-5 6 -8 11 -8 16c0 7 6 15 15 15c5 0 11 -2 16 -8l98 -103l98 103c5 6 11 8 16 8c9 0 15 -8 15 -15c0 -5 -3 -10 -8 -16z" />
    <glyph glyph-name="caron.alt" horiz-adv-x="71" 
d="M36 741c19 0 35 -16 35 -36c0 -16 -17 -65 -33 -97c-3 -6 -9 -10 -14 -10c-8 0 -16 6 -16 15c0 2 0 4 1 6l18 51c-16 4 -27 19 -27 35c0 20 15 36 36 36z" />
    <glyph glyph-name="ccaron" unicode="&#x10d;" horiz-adv-x="402" 
d="M235 -6c-124 0 -183 78 -183 182v120c0 102 58 182 183 182c80 0 131 -38 131 -59c0 -9 -9 -17 -18 -17c-17 0 -34 41 -113 41c-96 0 -148 -56 -148 -147v-120c0 -91 51 -147 149 -147c84 0 101 41 119 41c9 0 17 -8 17 -17c0 -21 -52 -59 -137 -59zM332 700l-100 -101
c-7 -7 -14 -11 -21 -11s-15 4 -21 11l-100 101c-5 6 -8 11 -8 16c0 7 6 15 15 15c5 0 11 -2 16 -8l98 -103l98 103c5 6 11 8 16 8c9 0 15 -8 15 -15c0 -5 -3 -10 -8 -16z" />
    <glyph glyph-name="ccedilla" unicode="&#xe7;" horiz-adv-x="402" 
d="M372 53c0 -20 -46 -54 -123 -58l-14 -60c68 -2 94 -36 94 -70c0 -37 -30 -72 -82 -72c-23 0 -74 7 -74 24c0 6 6 18 12 18c7 0 23 -13 56 -13c42 0 55 20 55 41c0 31 -27 42 -70 45l-29 2l20 85c-112 6 -165 82 -165 181v120c0 102 58 182 183 182c80 0 131 -38 131 -59
c0 -9 -9 -17 -18 -17c-17 0 -34 41 -113 41c-96 0 -148 -56 -148 -147v-120c0 -91 51 -147 149 -147c84 0 101 41 119 41c9 0 17 -8 17 -17z" />
    <glyph glyph-name="ccircumflex" unicode="&#x109;" horiz-adv-x="402" 
d="M235 -6c-124 0 -183 78 -183 182v120c0 102 58 182 183 182c80 0 131 -38 131 -59c0 -9 -9 -17 -18 -17c-17 0 -34 41 -113 41c-96 0 -148 -56 -148 -147v-120c0 -91 51 -147 149 -147c84 0 101 41 119 41c9 0 17 -8 17 -17c0 -21 -52 -59 -137 -59zM212 659l-104 -56
c-3 -1 -6 -3 -8 -3c-9 0 -18 8 -18 19c0 5 3 11 9 14l104 56c5 3 11 5 17 5s12 -2 17 -5l104 -55c6 -3 9 -10 9 -17c0 -9 -8 -16 -17 -16c-3 0 -6 2 -9 3z" />
    <glyph glyph-name="cdotaccent" unicode="&#x10b;" horiz-adv-x="402" 
d="M235 -6c-124 0 -183 78 -183 182v120c0 102 58 182 183 182c80 0 131 -38 131 -59c0 -9 -9 -17 -18 -17c-17 0 -34 41 -113 41c-96 0 -148 -56 -148 -147v-120c0 -91 51 -147 149 -147c84 0 101 41 119 41c9 0 17 -8 17 -17c0 -21 -52 -59 -137 -59zM212 659
c17 0 29 -12 29 -29s-12 -30 -29 -30c-18 0 -30 13 -30 30s12 29 30 29z" />
    <glyph glyph-name="cedilla" unicode="&#xb8;" horiz-adv-x="156" 
d="M80 9l-18 -74c68 -2 94 -36 94 -70c0 -37 -30 -72 -82 -72c-23 0 -74 7 -74 24c0 6 6 18 12 18c7 0 23 -13 56 -13c42 0 55 20 55 41c0 31 -27 42 -70 45l-29 2l24 99h32z" />
    <glyph glyph-name="cent" unicode="&#xa2;" horiz-adv-x="406" 
d="M201 40c-10 0 -18 8 -18 17v120c-95 15 -142 87 -142 179v20c0 90 44 163 142 179v122c0 9 8 17 18 17c9 0 18 -8 18 -17v-119c76 0 142 -29 142 -58c0 -11 -10 -18 -19 -18c-18 0 -35 41 -123 41v-314c89 0 104 41 123 41c9 0 19 -7 19 -18c0 -31 -73 -58 -142 -58v-117
c0 -9 -9 -17 -18 -17zM76 376v-20c0 -77 35 -129 107 -143v306c-72 -15 -107 -67 -107 -143z" />
    <glyph glyph-name="circumflex" unicode="&#x2c6;" horiz-adv-x="260" 
d="M130 659l-104 -56c-3 -1 -6 -3 -8 -3c-9 0 -18 8 -18 19c0 5 3 11 9 14l104 56c5 3 11 5 17 5s12 -2 17 -5l104 -55c6 -3 9 -10 9 -17c0 -9 -8 -16 -17 -16c-3 0 -6 2 -9 3z" />
    <glyph glyph-name="colon" unicode=":" horiz-adv-x="193" 
d="M97 66c19 0 35 -16 35 -36c0 -19 -16 -36 -35 -36c-21 0 -36 17 -36 36c0 20 15 36 36 36zM97 422c19 0 35 -16 35 -36c0 -19 -16 -36 -35 -36c-21 0 -36 17 -36 36c0 20 15 36 36 36z" />
    <glyph glyph-name="comma" unicode="," horiz-adv-x="162" 
d="M80 66c17 0 36 -12 36 -37c0 -6 -1 -18 -31 -95c-3 -7 -9 -11 -16 -11c-8 0 -16 5 -16 13c0 3 0 5 1 8l18 51c-16 4 -27 19 -27 35c0 20 15 36 35 36z" />
    <glyph glyph-name="commaaccent" unicode="&#xf6c3;" horiz-adv-x="205" 
d="M151 -84l-95 -54c-3 -2 -6 -3 -9 -3c-10 0 -19 8 -19 18c0 5 2 10 8 13l102 60c2 1 5 2 7 2c10 0 16 -9 16 -18c0 -7 -3 -14 -10 -18z" />
    <glyph glyph-name="copyright" unicode="&#xa9;" horiz-adv-x="728" 
d="M57 358c0 223 171 327 310 327c141 0 304 -106 304 -323c0 -223 -171 -327 -310 -327c-141 0 -304 106 -304 323zM636 362c0 167 -108 288 -269 288c-159 0 -275 -119 -275 -292c0 -167 108 -288 269 -288c159 0 275 119 275 292zM427 467c-1 23 -9 65 -61 65
c-40 0 -63 -26 -63 -82v-167c0 -56 23 -82 64 -82c52 0 57 41 60 67c1 9 7 14 18 14c13 0 18 -5 18 -22c0 -50 -37 -92 -99 -92c-53 0 -97 31 -97 115v167c0 84 45 116 98 116c62 0 98 -42 98 -91c0 -18 -5 -22 -18 -22c-12 0 -18 6 -18 14z" />
    <glyph glyph-name="currency" unicode="&#xa4;" horiz-adv-x="489" 
d="M246 652c41 0 79 -15 110 -40l28 28c3 3 8 5 13 5c9 0 17 -8 17 -17c0 -5 -2 -10 -5 -13l-28 -28c27 -31 43 -71 43 -115c0 -43 -17 -83 -44 -115l29 -29c3 -4 5 -8 5 -12c0 -8 -8 -17 -17 -17c-4 0 -9 1 -12 5l-29 28c-31 -26 -69 -42 -110 -42c-44 0 -84 18 -116 47
l-33 -33c-4 -4 -8 -5 -12 -5c-9 0 -17 8 -17 17c0 4 1 8 5 12l34 34c-24 31 -38 69 -38 110c0 40 14 79 37 109l-26 27c-3 3 -5 8 -5 13c0 10 9 17 18 17c4 0 9 -2 12 -5l25 -26c31 28 72 45 116 45zM386 472c0 72 -62 142 -140 142s-139 -70 -139 -142
c0 -74 62 -144 139 -144s140 70 140 144z" />
    <glyph glyph-name="d" unicode="d" horiz-adv-x="468" 
d="M382 768c10 0 17 -7 17 -17v-733c0 -9 -7 -18 -17 -18s-18 9 -18 18v52c-22 -41 -75 -76 -136 -76c-95 0 -178 87 -178 182v122c0 99 82 180 180 180c67 0 112 -37 134 -76v349c0 10 8 17 18 17zM85 298v-122c0 -75 65 -147 141 -147c79 0 138 76 138 110v159
c0 91 -69 145 -137 145c-78 0 -142 -72 -142 -145z" />
    <glyph glyph-name="dagger" unicode="&#x2020;" horiz-adv-x="403" 
d="M24 454c0 10 7 18 17 18l142 -6v248c0 9 8 17 18 17c9 0 18 -8 18 -17v-248l142 6c9 0 18 -8 18 -18s-9 -17 -18 -17l-142 6v-447c0 -9 -9 -17 -18 -17c-10 0 -18 8 -18 17v447l-142 -6c-10 0 -17 7 -17 17z" />
    <glyph glyph-name="daggerdbl" unicode="&#x2021;" horiz-adv-x="437" 
d="M41 454c0 10 7 18 17 18l142 -6v248c0 9 8 17 18 17c9 0 18 -8 18 -17v-248l142 6c9 0 18 -8 18 -18s-9 -17 -18 -17l-142 6v-191l142 6c9 0 18 -7 18 -17s-9 -18 -18 -18l-142 6v-233c0 -9 -9 -17 -18 -17c-10 0 -18 8 -18 17v233l-142 -6c-10 0 -17 8 -17 18
s7 17 17 17l142 -6v191l-142 -6c-10 0 -17 7 -17 17z" />
    <glyph glyph-name="dcaron" unicode="&#x10f;" horiz-adv-x="468" 
d="M382 768c10 0 17 -7 17 -17v-733c0 -9 -7 -18 -17 -18s-18 9 -18 18v52c-22 -41 -75 -76 -136 -76c-95 0 -178 87 -178 182v122c0 99 82 180 180 180c67 0 112 -37 134 -76v349c0 10 8 17 18 17zM85 298v-122c0 -75 65 -147 141 -147c79 0 138 76 138 110v159
c0 91 -69 145 -137 145c-78 0 -142 -72 -142 -145zM498 741c19 0 35 -16 35 -36c0 -16 -17 -65 -33 -97c-3 -6 -9 -10 -14 -10c-8 0 -16 6 -16 15c0 2 0 4 1 6l18 51c-16 4 -27 19 -27 35c0 20 15 36 36 36z" />
    <glyph glyph-name="dcroat" unicode="&#x111;" horiz-adv-x="468" 
d="M382 768c10 0 17 -7 17 -17v-133h57c9 0 18 -8 18 -18s-9 -17 -18 -17h-57v-565c0 -9 -7 -18 -17 -18s-18 9 -18 18v52c-22 -41 -75 -76 -136 -76c-95 0 -178 87 -178 182v122c0 99 82 180 180 180c67 0 112 -37 134 -76v181h-138c-10 0 -17 7 -17 17s7 18 17 18h138v133
c0 10 8 17 18 17zM85 298v-122c0 -75 65 -147 141 -147c79 0 138 76 138 110v159c0 91 -69 145 -137 145c-78 0 -142 -72 -142 -145z" />
    <glyph glyph-name="degree" unicode="&#xb0;" horiz-adv-x="429" 
d="M214 768c95 0 178 -81 178 -180c0 -95 -83 -182 -178 -182s-177 86 -177 182s80 180 177 180zM354 588c0 72 -62 142 -140 142s-139 -70 -139 -142c0 -74 62 -144 139 -144s140 70 140 144z" />
    <glyph glyph-name="dieresis" unicode="&#xa8;" horiz-adv-x="170" 
d="M30 659c17 0 29 -12 29 -29s-12 -30 -29 -30c-18 0 -30 13 -30 30s12 29 30 29zM141 659c17 0 29 -12 29 -29s-12 -30 -29 -30c-18 0 -30 13 -30 30s12 29 30 29z" />
    <glyph glyph-name="divide" unicode="&#xf7;" horiz-adv-x="461" 
d="M227 123c23 0 43 -20 43 -43s-20 -43 -43 -43c-24 0 -44 20 -44 43s20 43 44 43zM227 444c23 0 43 -20 43 -43s-20 -43 -43 -43c-24 0 -44 20 -44 43s20 43 44 43zM53 240c0 10 7 18 17 18h320c9 0 18 -8 18 -18s-9 -17 -18 -17h-320c-10 0 -17 7 -17 17z" />
    <glyph glyph-name="dollar" unicode="$" horiz-adv-x="484" 
d="M238 40v335c-87 29 -176 55 -176 183c0 125 96 158 176 162v31c0 9 8 17 18 17c9 0 18 -8 18 -17v-30c76 -3 143 -31 143 -52c0 -8 -9 -22 -18 -22c-13 0 -47 33 -125 37v-282c81 -29 161 -69 161 -207c0 -120 -66 -178 -161 -189v-41c0 -9 -9 -17 -18 -17
c-10 0 -18 8 -18 17v39c-128 0 -194 74 -194 101c0 10 10 21 17 21c19 0 36 -86 177 -86zM399 192c0 105 -58 143 -125 170v-319c82 12 125 63 125 149zM98 561c0 -95 66 -122 140 -147v270c-70 -4 -140 -32 -140 -123z" />
    <glyph glyph-name="dotaccent" unicode="&#x2d9;" horiz-adv-x="207" 
d="M110 659c17 0 29 -12 29 -29s-12 -30 -29 -30c-18 0 -30 13 -30 30s12 29 30 29z" />
    <glyph glyph-name="dotlessi" unicode="&#x131;" horiz-adv-x="171" 
d="M85 472c10 0 18 -7 18 -17v-437c0 -9 -8 -18 -18 -18c-9 0 -17 9 -17 18v437c0 10 8 17 17 17z" />
    <glyph glyph-name="dotlessj" unicode="&#x237;" horiz-adv-x="173" 
d="M86 472c10 0 18 -7 18 -17v-503c0 -111 -30 -189 -122 -189c-10 0 -18 9 -18 18c0 10 8 17 18 17c77 0 87 65 87 154v503c0 10 7 17 17 17z" />
    <glyph glyph-name="e" unicode="e" horiz-adv-x="445" 
d="M229 478c94 0 177 -76 177 -180c0 -73 -40 -75 -83 -75h-237v-47c0 -91 71 -147 169 -147c84 0 99 41 118 41c9 0 18 -10 18 -18c0 -19 -52 -58 -138 -58c-118 0 -202 73 -202 182v125c0 96 81 177 178 177zM86 258h225c49 0 60 6 60 37c0 72 -56 148 -142 148
c-81 0 -143 -67 -143 -142v-43z" />
    <glyph glyph-name="eacute" unicode="&#xe9;" horiz-adv-x="445" 
d="M229 478c94 0 177 -76 177 -180c0 -73 -40 -75 -83 -75h-237v-47c0 -91 71 -147 169 -147c84 0 99 41 118 41c9 0 18 -10 18 -18c0 -19 -52 -58 -138 -58c-118 0 -202 73 -202 182v125c0 96 81 177 178 177zM86 258h225c49 0 60 6 60 37c0 72 -56 148 -142 148
c-81 0 -143 -67 -143 -142v-43zM285 658l-95 -54c-3 -2 -6 -3 -9 -3c-10 0 -19 8 -19 18c0 5 2 10 8 13l102 60c2 1 5 2 7 2c10 0 16 -9 16 -18c0 -7 -3 -14 -10 -18z" />
    <glyph glyph-name="ebreve" unicode="&#x115;" horiz-adv-x="445" 
d="M229 478c94 0 177 -76 177 -180c0 -73 -40 -75 -83 -75h-237v-47c0 -91 71 -147 169 -147c84 0 99 41 118 41c9 0 18 -10 18 -18c0 -19 -52 -58 -138 -58c-118 0 -202 73 -202 182v125c0 96 81 177 178 177zM86 258h225c49 0 60 6 60 37c0 72 -56 148 -142 148
c-81 0 -143 -67 -143 -142v-43zM304 710h33c0 -59 -52 -109 -109 -109c-58 0 -109 50 -109 109h32c0 -46 35 -83 77 -83c41 0 76 37 76 83z" />
    <glyph glyph-name="ecaron" unicode="&#x11b;" horiz-adv-x="445" 
d="M229 478c94 0 177 -76 177 -180c0 -73 -40 -75 -83 -75h-237v-47c0 -91 71 -147 169 -147c84 0 99 41 118 41c9 0 18 -10 18 -18c0 -19 -52 -58 -138 -58c-118 0 -202 73 -202 182v125c0 96 81 177 178 177zM86 258h225c49 0 60 6 60 37c0 72 -56 148 -142 148
c-81 0 -143 -67 -143 -142v-43zM348 700l-100 -101c-7 -7 -14 -11 -21 -11s-15 4 -21 11l-100 101c-5 6 -8 11 -8 16c0 7 6 15 15 15c5 0 11 -2 16 -8l98 -103l98 103c5 6 11 8 16 8c9 0 15 -8 15 -15c0 -5 -3 -10 -8 -16z" />
    <glyph glyph-name="ecircumflex" unicode="&#xea;" horiz-adv-x="445" 
d="M229 478c94 0 177 -76 177 -180c0 -73 -40 -75 -83 -75h-237v-47c0 -91 71 -147 169 -147c84 0 99 41 118 41c9 0 18 -10 18 -18c0 -19 -52 -58 -138 -58c-118 0 -202 73 -202 182v125c0 96 81 177 178 177zM86 258h225c49 0 60 6 60 37c0 72 -56 148 -142 148
c-81 0 -143 -67 -143 -142v-43zM228 659l-104 -56c-3 -1 -6 -3 -8 -3c-9 0 -18 8 -18 19c0 5 3 11 9 14l104 56c5 3 11 5 17 5s12 -2 17 -5l104 -55c6 -3 9 -10 9 -17c0 -9 -8 -16 -17 -16c-3 0 -6 2 -9 3z" />
    <glyph glyph-name="edieresis" unicode="&#xeb;" horiz-adv-x="445" 
d="M229 478c94 0 177 -76 177 -180c0 -73 -40 -75 -83 -75h-237v-47c0 -91 71 -147 169 -147c84 0 99 41 118 41c9 0 18 -10 18 -18c0 -19 -52 -58 -138 -58c-118 0 -202 73 -202 182v125c0 96 81 177 178 177zM86 258h225c49 0 60 6 60 37c0 72 -56 148 -142 148
c-81 0 -143 -67 -143 -142v-43zM173 659c17 0 29 -12 29 -29s-12 -30 -29 -30c-18 0 -30 13 -30 30s12 29 30 29zM284 659c17 0 29 -12 29 -29s-12 -30 -29 -30c-18 0 -30 13 -30 30s12 29 30 29z" />
    <glyph glyph-name="edotaccent" unicode="&#x117;" horiz-adv-x="445" 
d="M229 478c94 0 177 -76 177 -180c0 -73 -40 -75 -83 -75h-237v-47c0 -91 71 -147 169 -147c84 0 99 41 118 41c9 0 18 -10 18 -18c0 -19 -52 -58 -138 -58c-118 0 -202 73 -202 182v125c0 96 81 177 178 177zM86 258h225c49 0 60 6 60 37c0 72 -56 148 -142 148
c-81 0 -143 -67 -143 -142v-43zM229 659c17 0 29 -12 29 -29s-12 -30 -29 -30c-18 0 -30 13 -30 30s12 29 30 29z" />
    <glyph glyph-name="egrave" unicode="&#xe8;" horiz-adv-x="445" 
d="M229 478c94 0 177 -76 177 -180c0 -73 -40 -75 -83 -75h-237v-47c0 -91 71 -147 169 -147c84 0 99 41 118 41c9 0 18 -10 18 -18c0 -19 -52 -58 -138 -58c-118 0 -202 73 -202 182v125c0 96 81 177 178 177zM86 258h225c49 0 60 6 60 37c0 72 -56 148 -142 148
c-81 0 -143 -67 -143 -142v-43zM267 604l-95 54c-7 4 -10 11 -10 18c0 9 6 18 16 18c2 0 5 -1 7 -2l102 -60c6 -3 8 -8 8 -13c0 -10 -9 -18 -19 -18c-3 0 -6 1 -9 3z" />
    <glyph glyph-name="eight" unicode="8" horiz-adv-x="489" 
d="M245 731c100 0 177 -40 177 -174c0 -87 -34 -136 -85 -159c62 -26 103 -83 103 -186v-12c0 -149 -85 -206 -195 -206s-196 57 -196 206v12c0 103 42 160 104 186c-51 23 -85 72 -85 159c0 134 77 174 177 174zM404 200v12c0 115 -60 167 -159 167s-160 -52 -160 -167v-12
c0 -116 61 -170 161 -170c99 0 158 55 158 170zM245 695c-88 0 -141 -39 -141 -138c0 -100 53 -141 141 -141s141 41 141 141c0 99 -53 138 -141 138z" />
    <glyph glyph-name="eightinferior" unicode="&#x2088;" horiz-adv-x="312" 
d="M156 366c60 0 104 -22 104 -88c0 -43 -19 -68 -49 -79c36 -13 60 -41 60 -93v-6c0 -74 -50 -103 -115 -103c-64 0 -115 29 -115 103v6c0 52 24 80 60 93c-29 11 -49 36 -49 79c0 66 45 88 104 88zM238 102v8c0 51 -31 74 -82 74c-50 0 -81 -23 -81 -74v-8
c0 -51 31 -76 82 -76s81 25 81 76zM156 336c-44 0 -71 -17 -71 -61c0 -43 27 -61 71 -61c45 0 71 18 71 61c0 44 -26 61 -71 61z" />
    <glyph glyph-name="eightsuperior" unicode="&#x2078;" horiz-adv-x="314" 
d="M157 731c60 0 104 -22 104 -88c0 -43 -19 -68 -49 -79c36 -13 60 -41 60 -93v-6c0 -74 -50 -103 -115 -103c-64 0 -115 29 -115 103v6c0 52 24 80 60 93c-29 11 -49 36 -49 79c0 66 45 88 104 88zM239 467v8c0 51 -31 74 -82 74c-50 0 -81 -23 -81 -74v-8
c0 -51 31 -76 82 -76s81 25 81 76zM157 701c-44 0 -71 -17 -71 -61c0 -43 27 -61 71 -61c45 0 71 18 71 61c0 44 -26 61 -71 61z" />
    <glyph glyph-name="ellipsis" unicode="&#x2026;" horiz-adv-x="514" 
d="M81 66c19 0 35 -16 35 -36c0 -19 -16 -36 -35 -36c-21 0 -36 17 -36 36c0 20 15 36 36 36zM258 66c19 0 35 -16 35 -36c0 -19 -16 -36 -35 -36c-21 0 -36 17 -36 36c0 20 15 36 36 36zM434 66c19 0 35 -16 35 -36c0 -19 -16 -36 -35 -36c-21 0 -36 17 -36 36
c0 20 15 36 36 36z" />
    <glyph glyph-name="emacron" unicode="&#x113;" horiz-adv-x="445" 
d="M229 478c94 0 177 -76 177 -180c0 -73 -40 -75 -83 -75h-237v-47c0 -91 71 -147 169 -147c84 0 99 41 118 41c9 0 18 -10 18 -18c0 -19 -52 -58 -138 -58c-118 0 -202 73 -202 182v125c0 96 81 177 178 177zM86 258h225c49 0 60 6 60 37c0 72 -56 148 -142 148
c-81 0 -143 -67 -143 -142v-43zM101 664c0 10 7 18 17 18h220c9 0 18 -8 18 -18s-9 -17 -18 -17h-220c-10 0 -17 7 -17 17z" />
    <glyph glyph-name="emdash" unicode="&#x2014;" horiz-adv-x="735" 
d="M50 240c0 10 7 18 17 18h600c9 0 18 -8 18 -18s-9 -17 -18 -17h-600c-10 0 -17 7 -17 17z" />
    <glyph glyph-name="endash" unicode="&#x2013;" 
d="M50 240c0 10 7 18 17 18h320c9 0 18 -8 18 -18s-9 -17 -18 -17h-320c-10 0 -17 7 -17 17z" />
    <glyph glyph-name="eng" unicode="&#x14b;" horiz-adv-x="481" 
d="M237 478c98 0 180 -81 180 -180v-346c0 -111 -30 -189 -122 -189c-10 0 -18 9 -18 18c0 10 8 17 18 17c77 0 87 65 87 154v346c0 73 -64 145 -142 145c-68 0 -137 -54 -137 -145v-280c0 -9 -8 -18 -18 -18s-17 9 -17 18v437c0 10 7 17 17 17s18 -7 18 -17v-53
c22 39 67 76 134 76z" />
    <glyph glyph-name="eogonek" unicode="&#x119;" horiz-adv-x="445" 
d="M361 -144c10 0 18 -3 18 -13s-6 -13 -23 -13c-36 0 -87 13 -87 67c0 39 14 72 36 102c-16 -3 -33 -5 -52 -5c-118 0 -202 73 -202 182v125c0 96 81 177 178 177c94 0 177 -76 177 -180c0 -73 -40 -75 -83 -75h-237v-47c0 -91 71 -147 169 -147c84 0 99 41 118 41
c9 0 18 -10 18 -18s-10 -20 -27 -31c-37 -36 -66 -72 -66 -122c0 -33 25 -43 63 -43zM86 258h225c49 0 60 6 60 37c0 72 -56 148 -142 148c-81 0 -143 -67 -143 -142v-43z" />
    <glyph glyph-name="equal" unicode="=" horiz-adv-x="431" 
d="M73 176c0 10 7 18 17 18h250c9 0 18 -8 18 -18s-9 -17 -18 -17h-250c-10 0 -17 7 -17 17zM73 379c0 10 7 18 17 18h250c9 0 18 -8 18 -18s-9 -17 -18 -17h-250c-10 0 -17 7 -17 17z" />
    <glyph glyph-name="estimated" unicode="&#x212e;" horiz-adv-x="535" 
d="M277 478c110 0 207 -76 207 -180c0 -73 -41 -75 -83 -75h-257v-47c0 -91 69 -147 159 -147c105 0 124 41 148 41c9 0 18 -10 18 -18c0 -19 -63 -58 -168 -58c-142 0 -242 85 -242 212v65c0 111 101 207 218 207zM144 258h205c49 0 60 6 60 37c0 72 -52 148 -132 148
c-75 0 -133 -67 -133 -142v-43z" />
    <glyph glyph-name="eth" unicode="&#xf0;" horiz-adv-x="468" 
d="M127 731c-8 0 -12 8 -12 17c0 10 6 20 24 20c47 0 106 -28 157 -85l80 46c2 1 4 2 7 2c9 0 18 -8 18 -17c0 -6 -3 -12 -9 -15l-74 -43c50 -67 87 -164 87 -291v-189c0 -95 -83 -182 -178 -182s-177 86 -177 182v122c0 96 80 180 177 180c57 0 126 -31 143 -86
c-10 110 -42 191 -83 246l-98 -56c-3 -2 -6 -3 -9 -3c-9 0 -17 10 -17 19c0 5 3 11 9 14l92 53c-43 45 -93 66 -137 66zM370 176v127c0 71 -65 140 -143 140c-80 0 -142 -72 -142 -145v-122c0 -75 63 -147 142 -147s143 72 143 147z" />
    <glyph glyph-name="exclam" unicode="!" horiz-adv-x="193" 
d="M123 717c0 -180 -11 -374 -11 -554c0 -10 -10 -16 -16 -16c-7 0 -15 6 -15 16c0 180 -11 374 -11 554c0 20 11 31 26 31s27 -11 27 -31zM97 66c19 0 35 -16 35 -36c0 -19 -16 -36 -35 -36c-21 0 -36 17 -36 36c0 20 15 36 36 36z" />
    <glyph glyph-name="exclamdown" unicode="&#xa1;" horiz-adv-x="193" 
d="M123 25c0 -20 -12 -31 -27 -31s-26 11 -26 31c0 180 11 374 11 554c0 10 8 16 15 16c6 0 16 -6 16 -16c0 -180 11 -374 11 -554zM97 676c-21 0 -36 16 -36 36c0 19 15 36 36 36c19 0 35 -17 35 -36c0 -20 -16 -36 -35 -36z" />
    <glyph glyph-name="f" unicode="f" horiz-adv-x="289" 
d="M104 590v-118h153c10 0 18 -8 18 -17c0 -10 -8 -18 -18 -18h-153v-420c0 -10 -9 -17 -19 -17c-9 0 -16 7 -16 17v573c0 96 82 178 178 178h10c10 0 18 -8 18 -18s-8 -17 -18 -17h-10c-81 0 -142 -69 -143 -143z" />
    <glyph glyph-name="five" unicode="5" horiz-adv-x="459" 
d="M104 419h124c110 0 195 -54 195 -200v-19c0 -150 -86 -206 -196 -206c-123 0 -195 74 -195 165c0 14 8 20 17 20s19 -6 19 -18c0 -83 71 -131 159 -131c100 0 160 54 160 170v19c0 111 -60 164 -159 164h-135c-22 0 -25 7 -25 14c0 2 1 15 1 17l18 299c1 11 7 18 18 18
h267c10 0 15 -9 15 -18s-5 -18 -15 -18h-249z" />
    <glyph glyph-name="fiveeighths" unicode="&#x215d;" horiz-adv-x="733" 
d="M578 366c60 0 104 -22 104 -88c0 -43 -19 -68 -49 -79c36 -13 60 -41 60 -93v-6c0 -74 -50 -103 -115 -103c-64 0 -115 29 -115 103v6c0 52 24 80 60 93c-29 11 -49 36 -49 79c0 66 45 88 104 88zM660 102v8c0 51 -31 74 -82 74c-50 0 -81 -23 -81 -74v-8
c0 -51 31 -76 82 -76s81 25 81 76zM578 336c-44 0 -71 -17 -71 -61c0 -43 27 -61 71 -61c45 0 71 18 71 61c0 44 -26 61 -71 61zM592 738l-388 -747c-4 -8 -10 -11 -17 -11c-8 0 -16 6 -16 15c0 3 0 6 2 9l391 756c3 6 8 8 13 8c8 0 18 -8 18 -19c0 -4 -1 -7 -3 -11zM87 580
h63c65 0 115 -28 115 -102v-10c0 -77 -51 -106 -114 -106c-74 0 -116 40 -116 82c0 15 5 20 17 20s17 -5 17 -15c1 -36 26 -56 77 -56c54 0 85 22 85 75v10c0 49 -30 73 -81 73h-77c-17 0 -18 9 -18 12c0 7 0 13 1 22l11 133c1 8 4 13 11 13h155c8 0 12 -8 12 -16
s-4 -15 -12 -15h-136z" />
    <glyph glyph-name="fiveinferior" unicode="&#x2085;" horiz-adv-x="298" 
d="M85 215h63c65 0 115 -28 115 -102v-10c0 -77 -51 -106 -114 -106c-74 0 -116 40 -116 82c0 15 5 20 17 20s17 -5 17 -15c1 -36 26 -56 77 -56c54 0 85 22 85 75v10c0 49 -30 73 -81 73h-77c-17 0 -18 9 -18 12c0 7 0 13 1 22l11 133c1 8 4 13 11 13h155c8 0 12 -8 12 -16
s-4 -15 -12 -15h-136z" />
    <glyph glyph-name="fivesuperior" unicode="&#x2075;" horiz-adv-x="298" 
d="M85 580h63c65 0 115 -28 115 -102v-10c0 -77 -51 -106 -114 -106c-74 0 -116 40 -116 82c0 15 5 20 17 20s17 -5 17 -15c1 -36 26 -56 77 -56c54 0 85 22 85 75v10c0 49 -30 73 -81 73h-77c-17 0 -18 9 -18 12c0 7 0 13 1 22l11 133c1 8 4 13 11 13h155c8 0 12 -8 12 -16
s-4 -15 -12 -15h-136z" />
    <glyph glyph-name="florin" unicode="&#x192;" horiz-adv-x="324" 
d="M163 590l-27 -188h153c10 0 16 -7 16 -15c0 -11 -10 -20 -21 -20h-153l-44 -315c-14 -97 -48 -189 -128 -189h-20c-10 0 -16 8 -16 16c0 11 10 19 21 19h20c52 0 77 76 88 154l76 538c13 96 107 178 203 178h4c9 0 15 -7 15 -16c0 -11 -9 -19 -20 -19h-4
c-81 0 -152 -69 -163 -143z" />
    <glyph glyph-name="four" unicode="4" horiz-adv-x="417" 
d="M289 18v160h-261c-12 0 -17 9 -17 18c0 5 1 9 3 12l257 509c5 10 13 14 20 14c9 0 17 -7 17 -16c0 -4 -1 -7 -3 -11l-248 -490h232v234c0 12 9 17 18 17s18 -5 18 -17v-234h59c12 0 18 -9 18 -18s-6 -18 -18 -18h-59v-160c0 -12 -9 -18 -18 -18s-18 6 -18 18z" />
    <glyph glyph-name="fourinferior" unicode="&#x2084;" horiz-adv-x="274" 
d="M175 13v73h-144c-8 0 -13 6 -13 14c0 2 1 5 2 8l141 247c4 7 11 11 16 11c8 0 17 -6 17 -14c0 -2 -1 -5 -2 -7l-131 -227h114v96c0 8 8 12 16 12c9 0 17 -4 17 -12v-96h31c9 0 14 -8 14 -16s-6 -16 -14 -16h-31v-73c0 -9 -8 -13 -17 -13c-8 0 -16 4 -16 13z" />
    <glyph glyph-name="foursuperior" unicode="&#x2074;" horiz-adv-x="274" 
d="M175 378v73h-144c-8 0 -13 6 -13 14c0 2 1 5 2 8l141 247c4 7 11 11 16 11c8 0 17 -6 17 -14c0 -2 -1 -5 -2 -7l-131 -227h114v96c0 8 8 12 16 12c9 0 17 -4 17 -12v-96h31c9 0 14 -8 14 -16s-6 -16 -14 -16h-31v-73c0 -9 -8 -13 -17 -13c-8 0 -16 4 -16 13z" />
    <glyph glyph-name="fraction" unicode="&#x2044;" horiz-adv-x="130" 
d="M278 738l-388 -747c-4 -8 -10 -11 -17 -11c-8 0 -16 6 -16 15c0 3 0 6 2 9l391 756c3 6 8 8 13 8c8 0 18 -8 18 -19c0 -4 -1 -7 -3 -11z" />
    <glyph glyph-name="g" unicode="g" horiz-adv-x="446" 
d="M347 269v45c0 73 -47 129 -127 129s-126 -56 -126 -129v-44c0 -75 47 -132 127 -132c78 0 126 56 126 131zM378 -103c0 95 -142 87 -206 96c-53 -15 -105 -42 -105 -98c0 -59 58 -100 159 -100c99 0 152 40 152 102zM417 452c-17 0 -41 -9 -60 -46c17 -24 25 -58 25 -92
v-45c0 -95 -67 -166 -163 -166c-30 0 -58 7 -82 21c-20 -9 -40 -22 -40 -48c0 -101 316 2 316 -178c0 -86 -72 -135 -187 -135c-116 0 -194 50 -194 129c0 61 46 95 91 111c-36 10 -61 28 -61 71c0 37 19 55 49 69c-33 29 -52 74 -52 126v45c0 96 64 164 161 164
c49 0 90 -18 119 -48c18 34 50 61 75 61c15 0 21 -10 21 -20c0 -12 -9 -19 -18 -19z" />
    <glyph glyph-name="g.ss03" horiz-adv-x="468" 
d="M222 -237c-78 0 -152 34 -152 62c0 8 7 19 16 19c18 0 46 -46 137 -46c126 0 141 86 141 177v95c-22 -41 -75 -76 -136 -76c-95 0 -178 87 -178 182v122c0 99 82 180 180 180c67 0 112 -37 134 -76v53c0 10 8 17 18 17s17 -7 17 -17v-487c0 -109 -46 -205 -177 -205z
M85 298v-122c0 -75 65 -147 141 -147c79 0 138 76 138 110v159c0 91 -69 145 -137 145c-78 0 -142 -72 -142 -145z" />
    <glyph glyph-name="gbreve" unicode="&#x11f;" horiz-adv-x="446" 
d="M347 269v45c0 73 -47 129 -127 129s-126 -56 -126 -129v-44c0 -75 47 -132 127 -132c78 0 126 56 126 131zM378 -103c0 95 -142 87 -206 96c-53 -15 -105 -42 -105 -98c0 -59 58 -100 159 -100c99 0 152 40 152 102zM417 452c-17 0 -41 -9 -60 -46c17 -24 25 -58 25 -92
v-45c0 -95 -67 -166 -163 -166c-30 0 -58 7 -82 21c-20 -9 -40 -22 -40 -48c0 -101 316 2 316 -178c0 -86 -72 -135 -187 -135c-116 0 -194 50 -194 129c0 61 46 95 91 111c-36 10 -61 28 -61 71c0 37 19 55 49 69c-33 29 -52 74 -52 126v45c0 96 64 164 161 164
c49 0 90 -18 119 -48c18 34 50 61 75 61c15 0 21 -10 21 -20c0 -12 -9 -19 -18 -19zM311 710h33c0 -59 -52 -109 -109 -109c-58 0 -109 50 -109 109h32c0 -46 35 -83 77 -83c41 0 76 37 76 83z" />
    <glyph glyph-name="gcircumflex" unicode="&#x11d;" horiz-adv-x="446" 
d="M347 269v45c0 73 -47 129 -127 129s-126 -56 -126 -129v-44c0 -75 47 -132 127 -132c78 0 126 56 126 131zM378 -103c0 95 -142 87 -206 96c-53 -15 -105 -42 -105 -98c0 -59 58 -100 159 -100c99 0 152 40 152 102zM417 452c-17 0 -41 -9 -60 -46c17 -24 25 -58 25 -92
v-45c0 -95 -67 -166 -163 -166c-30 0 -58 7 -82 21c-20 -9 -40 -22 -40 -48c0 -101 316 2 316 -178c0 -86 -72 -135 -187 -135c-116 0 -194 50 -194 129c0 61 46 95 91 111c-36 10 -61 28 -61 71c0 37 19 55 49 69c-33 29 -52 74 -52 126v45c0 96 64 164 161 164
c49 0 90 -18 119 -48c18 34 50 61 75 61c15 0 21 -10 21 -20c0 -12 -9 -19 -18 -19zM235 659l-104 -56c-3 -1 -6 -3 -8 -3c-9 0 -18 8 -18 19c0 5 3 11 9 14l104 56c5 3 11 5 17 5s12 -2 17 -5l104 -55c6 -3 9 -10 9 -17c0 -9 -8 -16 -17 -16c-3 0 -6 2 -9 3z" />
    <glyph glyph-name="gcommaaccent" unicode="&#x123;" horiz-adv-x="446" 
d="M347 269v45c0 73 -47 129 -127 129s-126 -56 -126 -129v-44c0 -75 47 -132 127 -132c78 0 126 56 126 131zM378 -103c0 95 -142 87 -206 96c-53 -15 -105 -42 -105 -98c0 -59 58 -100 159 -100c99 0 152 40 152 102zM417 452c-17 0 -41 -9 -60 -46c17 -24 25 -58 25 -92
v-45c0 -95 -67 -166 -163 -166c-30 0 -58 7 -82 21c-20 -9 -40 -22 -40 -48c0 -101 316 2 316 -178c0 -86 -72 -135 -187 -135c-116 0 -194 50 -194 129c0 61 46 95 91 111c-36 10 -61 28 -61 71c0 37 19 55 49 69c-33 29 -52 74 -52 126v45c0 96 64 164 161 164
c49 0 90 -18 119 -48c18 34 50 61 75 61c15 0 21 -10 21 -20c0 -12 -9 -19 -18 -19zM224 857c-19 0 -35 16 -35 36c0 16 17 65 33 97c3 6 9 10 14 10c8 0 16 -6 16 -15c0 -2 0 -4 -1 -6l-18 -51c16 -4 27 -19 27 -35c0 -20 -15 -36 -36 -36zM280 658l-95 -54
c-3 -2 -6 -3 -9 -3c-10 0 -19 8 -19 18c0 5 2 10 8 13l102 60c2 1 5 2 7 2c10 0 16 -9 16 -18c0 -7 -3 -14 -10 -18z" />
    <glyph glyph-name="gdotaccent" unicode="&#x121;" horiz-adv-x="446" 
d="M347 269v45c0 73 -47 129 -127 129s-126 -56 -126 -129v-44c0 -75 47 -132 127 -132c78 0 126 56 126 131zM378 -103c0 95 -142 87 -206 96c-53 -15 -105 -42 -105 -98c0 -59 58 -100 159 -100c99 0 152 40 152 102zM417 452c-17 0 -41 -9 -60 -46c17 -24 25 -58 25 -92
v-45c0 -95 -67 -166 -163 -166c-30 0 -58 7 -82 21c-20 -9 -40 -22 -40 -48c0 -101 316 2 316 -178c0 -86 -72 -135 -187 -135c-116 0 -194 50 -194 129c0 61 46 95 91 111c-36 10 -61 28 -61 71c0 37 19 55 49 69c-33 29 -52 74 -52 126v45c0 96 64 164 161 164
c49 0 90 -18 119 -48c18 34 50 61 75 61c15 0 21 -10 21 -20c0 -12 -9 -19 -18 -19zM235 659c17 0 29 -12 29 -29s-12 -30 -29 -30c-18 0 -30 13 -30 30s12 29 30 29z" />
    <glyph glyph-name="germandbls" unicode="&#xdf;" horiz-adv-x="528" 
d="M319 -20c-25 0 -109 6 -109 36c0 9 7 17 15 17c13 0 33 -22 84 -22c86 0 143 63 143 185v19c0 70 -39 168 -168 177c-19 1 -31 2 -31 16c0 16 15 18 32 19c84 5 97 95 97 150c0 97 -41 156 -123 156c-89 0 -118 -69 -118 -143v-573c0 -10 -9 -17 -19 -17
c-9 0 -16 7 -16 17v420h-81c-10 0 -17 7 -17 17s7 18 17 18h81v118c0 96 44 178 153 178c90 0 158 -56 158 -179c0 -73 -24 -154 -73 -176c65 -13 140 -97 140 -198v-19c0 -150 -83 -216 -165 -216z" />
    <glyph glyph-name="grave" unicode="`" horiz-adv-x="133" 
d="M105 604l-95 54c-7 4 -10 11 -10 18c0 9 6 18 16 18c2 0 5 -1 7 -2l102 -60c6 -3 8 -8 8 -13c0 -10 -9 -18 -19 -18c-3 0 -6 1 -9 3z" />
    <glyph glyph-name="greater" unicode="&#x3e;" horiz-adv-x="395" 
d="M319 277l-258 172c-5 3 -9 9 -9 15c0 10 10 17 19 17c3 0 6 -1 9 -3l275 -182c4 -3 10 -11 10 -19s-5 -15 -10 -18l-275 -182c-3 -2 -6 -3 -9 -3c-9 0 -19 7 -19 17c0 6 4 12 9 15z" />
    <glyph glyph-name="greaterequal" unicode="&#x2265;" horiz-adv-x="435" 
d="M63 85c0 10 7 18 17 18h278c9 0 18 -8 18 -18s-9 -17 -18 -17h-278c-10 0 -17 7 -17 17zM330 345l-258 146c-5 3 -9 9 -9 15c0 10 10 17 19 17c3 0 6 -1 9 -3l275 -156c4 -3 10 -11 10 -19s-5 -15 -10 -18l-275 -156c-3 -2 -6 -3 -9 -3c-9 0 -19 7 -19 17c0 6 4 12 9 15z
" />
    <glyph glyph-name="guillemotleft" unicode="&#xab;" horiz-adv-x="361" 
d="M141 83l-96 177c-3 5 -5 11 -5 17s2 12 5 17l96 178c3 6 10 9 17 9c9 0 16 -8 16 -17c0 -3 -1 -6 -3 -9l-96 -178l96 -177c2 -3 3 -6 3 -9c0 -10 -9 -17 -18 -17c-6 0 -11 2 -15 9zM287 83l-96 177c-3 5 -5 11 -5 17s2 12 5 17l96 178c3 6 10 9 17 9c9 0 16 -8 16 -17
c0 -3 -1 -6 -3 -9l-96 -178l96 -177c2 -3 3 -6 3 -9c0 -10 -9 -17 -18 -17c-6 0 -11 2 -15 9z" />
    <glyph glyph-name="guillemotright" unicode="&#xbb;" horiz-adv-x="361" 
d="M316 260l-96 -177c-4 -7 -9 -9 -15 -9c-9 0 -18 7 -18 17c0 3 1 6 3 9l96 177l-96 178c-2 3 -3 6 -3 9c0 9 7 17 16 17c7 0 14 -3 17 -9l96 -178c3 -5 5 -11 5 -17s-2 -12 -5 -17zM170 260l-96 -177c-4 -7 -9 -9 -15 -9c-9 0 -18 7 -18 17c0 3 1 6 3 9l96 177l-96 178
c-2 3 -3 6 -3 9c0 9 7 17 16 17c7 0 14 -3 17 -9l96 -178c3 -5 5 -11 5 -17s-2 -12 -5 -17z" />
    <glyph glyph-name="guilsinglleft" unicode="&#x2039;" horiz-adv-x="215" 
d="M141 83l-96 177c-3 5 -5 11 -5 17s2 12 5 17l96 178c3 6 10 9 17 9c9 0 16 -8 16 -17c0 -3 -1 -6 -3 -9l-96 -178l96 -177c2 -3 3 -6 3 -9c0 -10 -9 -17 -18 -17c-6 0 -11 2 -15 9z" />
    <glyph glyph-name="guilsinglright" unicode="&#x203a;" horiz-adv-x="215" 
d="M170 260l-96 -177c-4 -7 -9 -9 -15 -9c-9 0 -18 7 -18 17c0 3 1 6 3 9l96 177l-96 178c-2 3 -3 6 -3 9c0 9 7 17 16 17c7 0 14 -3 17 -9l96 -178c3 -5 5 -11 5 -17s-2 -12 -5 -17z" />
    <glyph glyph-name="h" unicode="h" horiz-adv-x="482" 
d="M104 298v-280c0 -9 -8 -18 -18 -18s-17 9 -17 18v733c0 10 7 17 17 17s18 -7 18 -17v-349c22 39 67 76 134 76c98 0 180 -81 180 -180v-280c0 -12 -9 -18 -18 -18c-8 0 -17 6 -17 18v280c0 73 -64 145 -142 145c-68 0 -137 -54 -137 -145z" />
    <glyph glyph-name="hbar" unicode="&#x127;" horiz-adv-x="482" 
d="M20 609c0 10 7 18 17 18h32v124c0 10 7 17 17 17s18 -7 18 -17v-124h153c9 0 18 -8 18 -18s-9 -17 -18 -17h-153v-190c22 39 67 76 134 76c98 0 180 -81 180 -180v-280c0 -12 -9 -18 -18 -18c-8 0 -17 6 -17 18v280c0 73 -64 145 -142 145c-68 0 -137 -54 -137 -145v-280
c0 -9 -8 -18 -18 -18s-17 9 -17 18v574h-32c-10 0 -17 7 -17 17z" />
    <glyph glyph-name="hcircumflex" unicode="&#x125;" horiz-adv-x="482" 
d="M104 298v-280c0 -9 -8 -18 -18 -18s-17 9 -17 18v733c0 10 7 17 17 17s18 -7 18 -17v-349c22 39 67 76 134 76c98 0 180 -81 180 -180v-280c0 -12 -9 -18 -18 -18c-8 0 -17 6 -17 18v280c0 73 -64 145 -142 145c-68 0 -137 -54 -137 -145zM88 914l-104 -56
c-3 -1 -6 -3 -8 -3c-9 0 -18 8 -18 19c0 5 3 11 9 14l104 56c5 3 11 5 17 5s12 -2 17 -5l104 -55c6 -3 9 -10 9 -17c0 -9 -8 -16 -17 -16c-3 0 -6 2 -9 3z" />
    <glyph glyph-name="hungarumlaut" unicode="&#x2dd;" horiz-adv-x="280" 
d="M123 658l-95 -54c-3 -2 -6 -3 -9 -3c-10 0 -19 8 -19 18c0 5 2 10 8 13l102 60c2 1 5 2 7 2c10 0 16 -9 16 -18c0 -7 -3 -14 -10 -18zM270 658l-95 -54c-3 -2 -6 -3 -9 -3c-10 0 -19 8 -19 18c0 5 2 10 8 13l102 60c2 1 5 2 7 2c10 0 16 -9 16 -18c0 -7 -3 -14 -10 -18z
" />
    <glyph glyph-name="hyphen" unicode="-" horiz-adv-x="395" 
d="M50 240c0 10 7 18 17 18h260c9 0 18 -8 18 -18s-9 -17 -18 -17h-260c-10 0 -17 7 -17 17z" />
    <glyph glyph-name="i" unicode="i" horiz-adv-x="171" 
d="M85 472c10 0 18 -7 18 -17v-437c0 -9 -8 -18 -18 -18c-9 0 -17 9 -17 18v437c0 10 8 17 17 17zM85 691c17 0 31 -14 31 -31s-14 -32 -31 -32c-18 0 -32 15 -32 32s14 31 32 31z" />
    <glyph glyph-name="iacute" unicode="&#xed;" horiz-adv-x="171" 
d="M85 472c10 0 18 -7 18 -17v-437c0 -9 -8 -18 -18 -18c-9 0 -17 9 -17 18v437c0 10 8 17 17 17zM141 658l-95 -54c-3 -2 -6 -3 -9 -3c-10 0 -19 8 -19 18c0 5 2 10 8 13l102 60c2 1 5 2 7 2c10 0 16 -9 16 -18c0 -7 -3 -14 -10 -18z" />
    <glyph glyph-name="ibreve" unicode="&#x12d;" horiz-adv-x="171" 
d="M85 472c10 0 18 -7 18 -17v-437c0 -9 -8 -18 -18 -18c-9 0 -17 9 -17 18v437c0 10 8 17 17 17zM162 710h33c0 -59 -52 -109 -109 -109c-58 0 -109 50 -109 109h32c0 -46 35 -83 77 -83c41 0 76 37 76 83z" />
    <glyph glyph-name="icircumflex" unicode="&#xee;" horiz-adv-x="171" 
d="M85 472c10 0 18 -7 18 -17v-437c0 -9 -8 -18 -18 -18c-9 0 -17 9 -17 18v437c0 10 8 17 17 17zM85 659l-104 -56c-3 -1 -6 -3 -8 -3c-9 0 -18 8 -18 19c0 5 3 11 9 14l104 56c5 3 11 5 17 5s12 -2 17 -5l104 -55c6 -3 9 -10 9 -17c0 -9 -8 -16 -17 -16c-3 0 -6 2 -9 3z
" />
    <glyph glyph-name="idieresis" unicode="&#xef;" horiz-adv-x="171" 
d="M85 472c10 0 18 -7 18 -17v-437c0 -9 -8 -18 -18 -18c-9 0 -17 9 -17 18v437c0 10 8 17 17 17zM31 659c17 0 29 -12 29 -29s-12 -30 -29 -30c-18 0 -30 13 -30 30s12 29 30 29zM142 659c17 0 29 -12 29 -29s-12 -30 -29 -30c-18 0 -30 13 -30 30s12 29 30 29z" />
    <glyph glyph-name="igrave" unicode="&#xec;" horiz-adv-x="171" 
d="M85 472c10 0 18 -7 18 -17v-437c0 -9 -8 -18 -18 -18c-9 0 -17 9 -17 18v437c0 10 8 17 17 17zM123 604l-95 54c-7 4 -10 11 -10 18c0 9 6 18 16 18c2 0 5 -1 7 -2l102 -60c6 -3 8 -8 8 -13c0 -10 -9 -18 -19 -18c-3 0 -6 1 -9 3z" />
    <glyph glyph-name="ij" unicode="&#x133;" horiz-adv-x="345" 
d="M85 472c10 0 18 -7 18 -17v-437c0 -9 -8 -18 -18 -18c-9 0 -17 9 -17 18v437c0 10 8 17 17 17zM85 691c17 0 31 -14 31 -31s-14 -32 -31 -32c-18 0 -32 15 -32 32s14 31 32 31zM258 472c10 0 18 -7 18 -17v-503c0 -111 -30 -189 -122 -189c-10 0 -18 9 -18 18
c0 10 8 17 18 17c77 0 87 65 87 154v503c0 10 7 17 17 17zM258 691c17 0 31 -14 31 -31s-14 -32 -31 -32c-18 0 -32 15 -32 32s14 31 32 31z" />
    <glyph glyph-name="imacron" unicode="&#x12b;" horiz-adv-x="171" 
d="M85 472c10 0 18 -7 18 -17v-437c0 -9 -8 -18 -18 -18c-9 0 -17 9 -17 18v437c0 10 8 17 17 17zM-43 664c0 10 7 18 17 18h220c9 0 18 -8 18 -18s-9 -17 -18 -17h-220c-10 0 -17 7 -17 17z" />
    <glyph glyph-name="infinity" unicode="&#x221e;" horiz-adv-x="843" 
d="M224 393c73 0 151 -46 197 -119c47 73 124 119 198 119c82 0 159 -52 159 -157s-77 -157 -160 -157c-73 0 -150 45 -197 118c-46 -73 -124 -118 -197 -118c-82 0 -159 52 -159 157s77 157 159 157zM442 236c38 -82 113 -121 176 -121c67 0 124 38 124 121
s-57 121 -124 121c-63 0 -138 -39 -176 -121zM401 236c-38 82 -113 121 -176 121c-67 0 -124 -38 -124 -121s57 -121 124 -121c63 0 138 39 176 121z" />
    <glyph glyph-name="integral" unicode="&#x222b;" horiz-adv-x="326" 
d="M27 -200c-7 0 -17 7 -17 18c0 7 4 17 17 17c53 0 118 17 118 97v669c0 77 63 147 154 147c10 0 17 -8 17 -17c0 -10 -8 -18 -17 -18c-76 0 -118 -58 -118 -112v-669c0 -84 -62 -132 -154 -132z" />
    <glyph glyph-name="iogonek" unicode="&#x12f;" horiz-adv-x="173" 
d="M89 -167c10 0 18 -3 18 -13s-6 -13 -23 -13c-36 0 -87 13 -87 67c0 57 30 103 73 144v437c0 10 8 17 17 17c10 0 18 -7 18 -17v-437c0 -6 -3 -12 -8 -15c-40 -38 -71 -75 -71 -127c0 -33 25 -43 63 -43zM87 691c17 0 31 -14 31 -31s-14 -32 -31 -32c-18 0 -32 15 -32 32
s14 31 32 31z" />
    <glyph glyph-name="itilde" unicode="&#x129;" horiz-adv-x="171" 
d="M85 472c10 0 18 -7 18 -17v-437c0 -9 -8 -18 -18 -18c-9 0 -17 9 -17 18v437c0 10 8 17 17 17zM153 653c46 0 49 32 65 32c7 0 14 -6 14 -15c0 -31 -52 -51 -84 -51c-48 0 -73 37 -129 37c-43 0 -55 -35 -69 -35c-7 0 -13 6 -13 17c0 26 53 52 89 52c49 0 76 -37 127 -37
z" />
    <glyph glyph-name="j" unicode="j" horiz-adv-x="173" 
d="M86 472c10 0 18 -7 18 -17v-503c0 -111 -30 -189 -122 -189c-10 0 -18 9 -18 18c0 10 8 17 18 17c77 0 87 65 87 154v503c0 10 7 17 17 17zM86 691c17 0 31 -14 31 -31s-14 -32 -31 -32c-18 0 -32 15 -32 32s14 31 32 31z" />
    <glyph glyph-name="jcircumflex" unicode="&#x135;" horiz-adv-x="173" 
d="M86 472c10 0 18 -7 18 -17v-503c0 -111 -30 -189 -122 -189c-10 0 -18 9 -18 18c0 10 8 17 18 17c77 0 87 65 87 154v503c0 10 7 17 17 17zM87 659l-104 -56c-3 -1 -6 -3 -8 -3c-9 0 -18 8 -18 19c0 5 3 11 9 14l104 56c5 3 11 5 17 5s12 -2 17 -5l104 -55
c6 -3 9 -10 9 -17c0 -9 -8 -16 -17 -16c-3 0 -6 2 -9 3z" />
    <glyph glyph-name="k" unicode="k" horiz-adv-x="437" 
d="M86 768c10 0 18 -7 18 -17v-518l270 235c3 2 6 4 10 4c9 0 19 -4 19 -16c0 -5 -1 -11 -6 -15l-161 -140l185 -273c2 -3 3 -7 3 -10c0 -9 -7 -18 -17 -18c-5 0 -10 3 -14 9l-184 269l-105 -92v-168c0 -9 -8 -18 -18 -18s-17 9 -17 18v733c0 10 7 17 17 17z" />
    <glyph glyph-name="kcommaaccent" unicode="&#x137;" horiz-adv-x="437" 
d="M86 768c10 0 18 -7 18 -17v-518l270 235c3 2 6 4 10 4c9 0 19 -4 19 -16c0 -5 -1 -11 -6 -15l-161 -140l185 -273c2 -3 3 -7 3 -10c0 -9 -7 -18 -17 -18c-5 0 -10 3 -14 9l-184 269l-105 -92v-168c0 -9 -8 -18 -18 -18s-17 9 -17 18v733c0 10 7 17 17 17zM276 -84
l-95 -54c-3 -2 -6 -3 -9 -3c-10 0 -19 8 -19 18c0 5 2 10 8 13l102 60c2 1 5 2 7 2c10 0 16 -9 16 -18c0 -7 -3 -14 -10 -18z" />
    <glyph glyph-name="kgreenlandic" unicode="&#x138;" horiz-adv-x="436" 
d="M85 472c10 0 18 -7 18 -17v-222l270 235c3 2 6 4 10 4c9 0 19 -4 19 -16c0 -5 -1 -11 -6 -15l-161 -140l185 -273c2 -3 3 -7 3 -10c0 -9 -7 -18 -17 -18c-5 0 -10 3 -14 9l-184 269l-105 -92v-168c0 -9 -8 -18 -18 -18s-17 9 -17 18v437c0 10 7 17 17 17z" />
    <glyph glyph-name="l" unicode="l" horiz-adv-x="189" 
d="M94 768c10 0 18 -7 18 -17v-733c0 -9 -8 -18 -18 -18s-17 9 -17 18v733c0 10 7 17 17 17z" />
    <glyph glyph-name="lacute" unicode="&#x13a;" horiz-adv-x="189" 
d="M94 768c10 0 18 -7 18 -17v-733c0 -9 -8 -18 -18 -18s-17 9 -17 18v733c0 10 7 17 17 17zM151 868l-95 -54c-3 -2 -6 -3 -9 -3c-10 0 -19 8 -19 18c0 5 2 10 8 13l102 60c2 1 5 2 7 2c10 0 16 -9 16 -18c0 -7 -3 -14 -10 -18z" />
    <glyph glyph-name="lcaron" unicode="&#x13e;" horiz-adv-x="189" 
d="M94 768c10 0 18 -7 18 -17v-733c0 -9 -8 -18 -18 -18s-17 9 -17 18v733c0 10 7 17 17 17zM217 741c19 0 35 -16 35 -36c0 -16 -17 -65 -33 -97c-3 -6 -9 -10 -14 -10c-8 0 -16 6 -16 15c0 2 0 4 1 6l18 51c-16 4 -27 19 -27 35c0 20 15 36 36 36z" />
    <glyph glyph-name="lcommaaccent" unicode="&#x13c;" horiz-adv-x="189" 
d="M94 768c10 0 18 -7 18 -17v-733c0 -9 -8 -18 -18 -18s-17 9 -17 18v733c0 10 7 17 17 17zM154 -84l-95 -54c-3 -2 -6 -3 -9 -3c-10 0 -19 8 -19 18c0 5 2 10 8 13l102 60c2 1 5 2 7 2c10 0 16 -9 16 -18c0 -7 -3 -14 -10 -18z" />
    <glyph glyph-name="ldot" unicode="&#x140;" horiz-adv-x="286" 
d="M94 768c10 0 18 -7 18 -17v-733c0 -9 -8 -18 -18 -18s-17 9 -17 18v733c0 10 7 17 17 17zM238 336c19 0 35 -16 35 -36c0 -19 -16 -36 -35 -36c-21 0 -36 17 -36 36c0 20 15 36 36 36z" />
    <glyph glyph-name="less" unicode="&#x3c;" horiz-adv-x="395" 
d="M334 449l-258 -172l258 -171c5 -3 9 -9 9 -15c0 -10 -10 -17 -19 -17c-3 0 -6 1 -9 3l-275 182c-5 3 -10 10 -10 18s6 16 10 19l275 182c3 2 6 3 9 3c9 0 19 -7 19 -17c0 -6 -4 -12 -9 -15z" />
    <glyph glyph-name="lessequal" unicode="&#x2264;" horiz-adv-x="434" 
d="M371 85c0 -10 -7 -17 -17 -17h-278c-9 0 -18 7 -18 17s9 18 18 18h278c10 0 17 -8 17 -18zM362 491l-258 -146l258 -145c5 -3 9 -9 9 -15c0 -10 -10 -17 -19 -17c-3 0 -6 1 -9 3l-275 156c-5 3 -10 10 -10 18s6 16 10 19l275 156c3 2 6 3 9 3c9 0 19 -7 19 -17
c0 -6 -4 -12 -9 -15z" />
    <glyph glyph-name="logicalnot" unicode="&#xac;" horiz-adv-x="479" 
d="M389 63c-10 0 -18 7 -18 17v143h-293c-10 0 -17 7 -17 17s7 18 17 18h310c9 0 18 -8 18 -18v-160c0 -10 -7 -17 -17 -17z" />
    <glyph glyph-name="lozenge" unicode="&#x25ca;" horiz-adv-x="448" 
d="M407 327l-149 -291c-12 -23 -19 -37 -34 -37c-16 0 -22 13 -34 37l-149 291c-8 15 -13 26 -13 38s5 24 13 40l148 290c12 24 18 36 35 36s23 -12 35 -36l148 -290c8 -16 13 -28 13 -40s-5 -23 -13 -38zM387 366l-163 318l-163 -318l163 -318z" />
    <glyph glyph-name="lslash" unicode="&#x142;" horiz-adv-x="297" 
d="M142 768c10 0 18 -7 18 -17v-376l94 55c3 2 6 2 9 2c9 0 17 -7 17 -16c0 -7 -4 -13 -9 -16l-111 -64v-318c0 -9 -8 -18 -18 -18s-17 9 -17 18v297l-79 -45c-3 -2 -6 -3 -9 -3c-8 0 -17 9 -17 19c0 5 3 11 9 14l96 55v396c0 10 7 17 17 17z" />
    <glyph glyph-name="m" unicode="m" horiz-adv-x="767" 
d="M368 17v286c0 79 -58 140 -129 140c-67 0 -136 -54 -136 -145v-280c0 -9 -8 -18 -18 -18s-17 9 -17 18v437c0 10 7 17 17 17s18 -7 18 -17v-53c22 39 67 76 134 76c69 0 124 -41 150 -100c35 68 94 100 152 100c84 0 164 -65 164 -180v-280c0 -9 -8 -18 -18 -18
c-9 0 -17 9 -17 18v280c0 96 -68 145 -130 145c-67 0 -135 -56 -135 -139v-287c0 -12 -9 -17 -18 -17c-8 0 -17 5 -17 17z" />
    <glyph glyph-name="m.ss04" horiz-adv-x="763" 
d="M381 374c35 71 95 104 154 104c84 0 164 -65 164 -180v-280c0 -9 -8 -18 -18 -18c-9 0 -17 9 -17 18v280c0 96 -68 145 -131 145c-69 0 -134 -60 -134 -145v-281c0 -12 -9 -17 -18 -17c-8 0 -17 5 -17 17v281c0 85 -66 145 -136 145c-62 0 -129 -48 -129 -145v-281
c0 -9 -8 -17 -18 -17s-17 8 -17 17v281c0 115 78 180 160 180c59 0 120 -33 157 -104z" />
    <glyph glyph-name="macron" unicode="&#xaf;" horiz-adv-x="255" 
d="M0 664c0 10 7 18 17 18h220c9 0 18 -8 18 -18s-9 -17 -18 -17h-220c-10 0 -17 7 -17 17z" />
    <glyph glyph-name="minus" unicode="&#x2212;" horiz-adv-x="480" 
d="M63 284c0 10 7 18 17 18h320c9 0 18 -8 18 -18s-9 -17 -18 -17h-320c-10 0 -17 7 -17 17z" />
    <glyph glyph-name="mu" unicode="&#xb5;" horiz-adv-x="477" 
d="M112 454v-304c0 -44 70 -121 144 -121c72 0 135 72 135 145v280c0 12 9 18 17 18c9 0 18 -6 18 -18v-280c0 -99 -74 -180 -172 -180c-67 0 -120 37 -142 76v-290c0 -10 -8 -17 -18 -17s-17 7 -17 17v674c0 9 7 18 17 18s18 -9 18 -18z" />
    <glyph glyph-name="multiply" unicode="&#xd7;" horiz-adv-x="393" 
d="M327 162c0 -8 -7 -17 -17 -17c-4 0 -8 1 -12 5l-102 101l-101 -101c-4 -4 -8 -5 -12 -5c-9 0 -17 8 -17 17c0 4 1 8 5 12l101 101l-101 101c-3 3 -5 8 -5 13c0 9 8 17 17 17c5 0 10 -2 13 -5l100 -101l101 101c3 3 8 5 13 5c9 0 17 -8 17 -17c0 -5 -2 -10 -5 -13
l-101 -101l101 -101c4 -4 5 -8 5 -12z" />
    <glyph glyph-name="n" unicode="n" horiz-adv-x="481" 
d="M103 298v-280c0 -9 -8 -18 -18 -18s-17 9 -17 18v437c0 10 7 17 17 17s18 -7 18 -17v-53c22 39 67 76 134 76c98 0 180 -81 180 -180v-280c0 -12 -9 -18 -18 -18c-8 0 -17 6 -17 18v280c0 73 -64 145 -142 145c-68 0 -137 -54 -137 -145z" />
    <glyph glyph-name="n.ss04" horiz-adv-x="483" 
d="M241 478c98 0 178 -85 178 -180v-280c0 -9 -8 -18 -18 -18c-9 0 -17 9 -17 18v280c0 74 -63 145 -143 145c-79 0 -142 -70 -142 -145v-281c0 -9 -8 -17 -18 -17s-17 8 -17 17v281c0 96 81 180 177 180z" />
    <glyph glyph-name="nacute" unicode="&#x144;" horiz-adv-x="481" 
d="M103 298v-280c0 -9 -8 -18 -18 -18s-17 9 -17 18v437c0 10 7 17 17 17s18 -7 18 -17v-53c22 39 67 76 134 76c98 0 180 -81 180 -180v-280c0 -12 -9 -18 -18 -18c-8 0 -17 6 -17 18v280c0 73 -64 145 -142 145c-68 0 -137 -54 -137 -145zM294 658l-95 -54
c-3 -2 -6 -3 -9 -3c-10 0 -19 8 -19 18c0 5 2 10 8 13l102 60c2 1 5 2 7 2c10 0 16 -9 16 -18c0 -7 -3 -14 -10 -18z" />
    <glyph glyph-name="ncaron" unicode="&#x148;" horiz-adv-x="481" 
d="M357 700l-100 -101c-7 -7 -14 -11 -21 -11s-15 4 -21 11l-100 101c-5 6 -8 11 -8 16c0 7 6 15 15 15c5 0 11 -2 16 -8l98 -103l98 103c5 6 11 8 16 8c9 0 15 -8 15 -15c0 -5 -3 -10 -8 -16zM103 298v-280c0 -9 -8 -18 -18 -18s-17 9 -17 18v437c0 10 7 17 17 17
s18 -7 18 -17v-53c22 39 67 76 134 76c98 0 180 -81 180 -180v-280c0 -12 -9 -18 -18 -18c-8 0 -17 6 -17 18v280c0 73 -64 145 -142 145c-68 0 -137 -54 -137 -145z" />
    <glyph glyph-name="ncommaaccent" unicode="&#x146;" horiz-adv-x="481" 
d="M103 298v-280c0 -9 -8 -18 -18 -18s-17 9 -17 18v437c0 10 7 17 17 17s18 -7 18 -17v-53c22 39 67 76 134 76c98 0 180 -81 180 -180v-280c0 -12 -9 -18 -18 -18c-8 0 -17 6 -17 18v280c0 73 -64 145 -142 145c-68 0 -137 -54 -137 -145zM285 -84l-95 -54
c-3 -2 -6 -3 -9 -3c-10 0 -19 8 -19 18c0 5 2 10 8 13l102 60c2 1 5 2 7 2c10 0 16 -9 16 -18c0 -7 -3 -14 -10 -18z" />
    <glyph glyph-name="nine" unicode="9" horiz-adv-x="504" 
d="M243 300c-110 0 -195 46 -195 196v29c0 150 85 206 195 206s196 -56 196 -206v-325c0 -150 -85 -206 -195 -206c-123 0 -196 77 -196 165c0 14 8 20 17 20s19 -6 19 -18c0 -79 72 -131 160 -131c100 0 159 54 159 170v174c-35 -50 -93 -74 -160 -74zM403 487v38
c0 116 -60 170 -160 170s-159 -54 -159 -170v-29c0 -116 59 -160 159 -160c97 0 160 41 160 151z" />
    <glyph glyph-name="nineinferior" unicode="&#x2089;" horiz-adv-x="323" 
d="M153 147c-62 0 -111 23 -111 100v12c0 77 50 107 115 107s115 -30 115 -107v-155c0 -78 -50 -107 -116 -107c-74 0 -114 42 -114 85c0 12 6 16 16 16c9 0 17 -4 17 -14c0 -34 37 -56 82 -56c51 0 82 24 82 76v76c-20 -23 -51 -33 -86 -33zM239 244v16c0 52 -31 76 -82 76
s-81 -24 -81 -76v-12c0 -52 30 -72 81 -72c49 0 82 18 82 68z" />
    <glyph glyph-name="ninesuperior" unicode="&#x2079;" horiz-adv-x="323" 
d="M153 512c-62 0 -111 23 -111 100v12c0 77 50 107 115 107s115 -30 115 -107v-155c0 -78 -50 -107 -116 -107c-74 0 -114 42 -114 85c0 12 6 16 16 16c9 0 17 -4 17 -14c0 -34 37 -56 82 -56c51 0 82 24 82 76v76c-20 -23 -51 -33 -86 -33zM239 609v16c0 52 -31 76 -82 76
s-81 -24 -81 -76v-12c0 -52 30 -72 81 -72c49 0 82 18 82 68z" />
    <glyph glyph-name="notequal" unicode="&#x2260;" horiz-adv-x="463" 
d="M373 556l-71 -159h84c9 0 18 -8 18 -18s-9 -17 -18 -17h-99l-75 -168h174c9 0 18 -8 18 -18s-9 -17 -18 -17h-190l-74 -168c-4 -8 -10 -12 -17 -12c-8 0 -16 6 -16 15c0 3 0 7 2 10l68 155h-83c-10 0 -17 7 -17 17s7 18 17 18h99l74 168h-173c-10 0 -17 7 -17 17
s7 18 17 18h189l80 181c3 6 8 8 13 8c8 0 18 -8 18 -19c0 -4 -1 -7 -3 -11z" />
    <glyph glyph-name="ntilde" unicode="&#xf1;" horiz-adv-x="481" 
d="M306 653c46 0 49 32 65 32c7 0 14 -6 14 -15c0 -31 -52 -51 -84 -51c-48 0 -73 37 -129 37c-43 0 -55 -35 -69 -35c-7 0 -13 6 -13 17c0 26 53 52 89 52c49 0 76 -37 127 -37zM103 298v-280c0 -9 -8 -18 -18 -18s-17 9 -17 18v437c0 10 7 17 17 17s18 -7 18 -17v-53
c22 39 67 76 134 76c98 0 180 -81 180 -180v-280c0 -12 -9 -18 -18 -18c-8 0 -17 6 -17 18v280c0 73 -64 145 -142 145c-68 0 -137 -54 -137 -145z" />
    <glyph glyph-name="numbersign" unicode="#" horiz-adv-x="547" 
d="M354 268l-32 -217c-2 -10 -9 -15 -17 -15c-9 0 -16 7 -16 19l32 213h-134l-32 -216c-2 -12 -9 -16 -15 -16c-9 0 -17 7 -17 19l31 213h-104c-13 0 -18 6 -18 15c0 8 5 15 12 15h116l26 177h-105c-13 0 -18 6 -18 16c0 8 5 14 12 14h116l30 198c1 6 6 10 12 10
c13 0 19 -10 19 -20l-29 -188h135l30 198c1 6 6 10 12 10c13 0 19 -10 19 -20l-29 -188h107c8 0 19 -5 19 -15c0 -7 -6 -15 -13 -15h-117l-27 -177h107c8 0 19 -5 19 -16c0 -7 -6 -14 -13 -14h-118zM219 475l-27 -177h134l27 177h-134z" />
    <glyph glyph-name="o" unicode="o" 
d="M227 478c95 0 178 -81 178 -180v-122c0 -95 -83 -182 -178 -182s-177 86 -177 182v122c0 96 80 180 177 180zM370 176v122c0 73 -63 145 -143 145s-142 -72 -142 -145v-122c0 -75 63 -147 142 -147s143 72 143 147z" />
    <glyph glyph-name="oacute" unicode="&#xf3;" 
d="M227 478c95 0 178 -81 178 -180v-122c0 -95 -83 -182 -178 -182s-177 86 -177 182v122c0 96 80 180 177 180zM370 176v122c0 73 -63 145 -143 145s-142 -72 -142 -145v-122c0 -75 63 -147 142 -147s143 72 143 147zM284 658l-95 -54c-3 -2 -6 -3 -9 -3
c-10 0 -19 8 -19 18c0 5 2 10 8 13l102 60c2 1 5 2 7 2c10 0 16 -9 16 -18c0 -7 -3 -14 -10 -18z" />
    <glyph glyph-name="obreve" unicode="&#x14f;" 
d="M227 478c95 0 178 -81 178 -180v-122c0 -95 -83 -182 -178 -182s-177 86 -177 182v122c0 96 80 180 177 180zM370 176v122c0 73 -63 145 -143 145s-142 -72 -142 -145v-122c0 -75 63 -147 142 -147s143 72 143 147zM303 710h33c0 -59 -52 -109 -109 -109
c-58 0 -109 50 -109 109h32c0 -46 35 -83 77 -83c41 0 76 37 76 83z" />
    <glyph glyph-name="ocircumflex" unicode="&#xf4;" 
d="M227 478c95 0 178 -81 178 -180v-122c0 -95 -83 -182 -178 -182s-177 86 -177 182v122c0 96 80 180 177 180zM370 176v122c0 73 -63 145 -143 145s-142 -72 -142 -145v-122c0 -75 63 -147 142 -147s143 72 143 147zM227 659l-104 -56c-3 -1 -6 -3 -8 -3
c-9 0 -18 8 -18 19c0 5 3 11 9 14l104 56c5 3 11 5 17 5s12 -2 17 -5l104 -55c6 -3 9 -10 9 -17c0 -9 -8 -16 -17 -16c-3 0 -6 2 -9 3z" />
    <glyph glyph-name="odieresis" unicode="&#xf6;" 
d="M227 478c95 0 178 -81 178 -180v-122c0 -95 -83 -182 -178 -182s-177 86 -177 182v122c0 96 80 180 177 180zM370 176v122c0 73 -63 145 -143 145s-142 -72 -142 -145v-122c0 -75 63 -147 142 -147s143 72 143 147zM172 659c17 0 29 -12 29 -29s-12 -30 -29 -30
c-18 0 -30 13 -30 30s12 29 30 29zM283 659c17 0 29 -12 29 -29s-12 -30 -29 -30c-18 0 -30 13 -30 30s12 29 30 29z" />
    <glyph glyph-name="oe" unicode="&#x153;" horiz-adv-x="764" 
d="M227 478c68 0 130 -42 160 -103c28 60 90 103 161 103c94 0 177 -77 177 -178c0 -75 -38 -77 -83 -77h-237v-47c0 -91 70 -147 172 -147c82 0 93 41 114 41c9 0 19 -6 19 -20c0 -18 -58 -56 -139 -56c-87 0 -155 40 -185 104c-29 -60 -91 -104 -159 -104
c-95 0 -177 86 -177 182v122c0 96 80 180 177 180zM370 176v122c0 73 -63 145 -143 145s-142 -72 -142 -145v-122c0 -75 63 -147 142 -147s143 72 143 147zM405 258h225c49 0 60 6 60 37c0 72 -56 148 -142 148c-80 0 -143 -65 -143 -138v-47z" />
    <glyph glyph-name="ogonek" unicode="&#x2db;" horiz-adv-x="110" 
d="M92 -169c10 0 18 -3 18 -13s-6 -13 -23 -13c-36 0 -87 13 -87 67c0 58 31 104 75 146l26 -16c-40 -39 -72 -76 -72 -128c0 -33 25 -43 63 -43z" />
    <glyph glyph-name="ograve" unicode="&#xf2;" 
d="M227 478c95 0 178 -81 178 -180v-122c0 -95 -83 -182 -178 -182s-177 86 -177 182v122c0 96 80 180 177 180zM370 176v122c0 73 -63 145 -143 145s-142 -72 -142 -145v-122c0 -75 63 -147 142 -147s143 72 143 147zM266 604l-95 54c-7 4 -10 11 -10 18c0 9 6 18 16 18
c2 0 5 -1 7 -2l102 -60c6 -3 8 -8 8 -13c0 -10 -9 -18 -19 -18c-3 0 -6 1 -9 3z" />
    <glyph glyph-name="ohungarumlaut" unicode="&#x151;" 
d="M227 478c95 0 178 -81 178 -180v-122c0 -95 -83 -182 -178 -182s-177 86 -177 182v122c0 96 80 180 177 180zM370 176v122c0 73 -63 145 -143 145s-142 -72 -142 -145v-122c0 -75 63 -147 142 -147s143 72 143 147zM237 658l-95 -54c-3 -2 -6 -3 -9 -3
c-10 0 -19 8 -19 18c0 5 2 10 8 13l102 60c2 1 5 2 7 2c10 0 16 -9 16 -18c0 -7 -3 -14 -10 -18zM384 658l-95 -54c-3 -2 -6 -3 -9 -3c-10 0 -19 8 -19 18c0 5 2 10 8 13l102 60c2 1 5 2 7 2c10 0 16 -9 16 -18c0 -7 -3 -14 -10 -18z" />
    <glyph glyph-name="omacron" unicode="&#x14d;" 
d="M227 478c95 0 178 -81 178 -180v-122c0 -95 -83 -182 -178 -182s-177 86 -177 182v122c0 96 80 180 177 180zM370 176v122c0 73 -63 145 -143 145s-142 -72 -142 -145v-122c0 -75 63 -147 142 -147s143 72 143 147zM100 664c0 10 7 18 17 18h220c9 0 18 -8 18 -18
s-9 -17 -18 -17h-220c-10 0 -17 7 -17 17z" />
    <glyph glyph-name="one" unicode="1" horiz-adv-x="209" 
d="M29 586l66 128c5 9 10 17 23 17c9 0 16 -5 16 -17v-696c0 -12 -9 -18 -18 -18s-18 6 -18 18v621l-43 -80c-5 -10 -12 -13 -18 -13c-10 0 -18 8 -18 17c0 6 8 19 10 23z" />
    <glyph glyph-name="one.lnum" horiz-adv-x="385" 
d="M17 18c0 10 8 18 18 18h142v603l-43 -80c-5 -10 -12 -13 -18 -13c-10 0 -18 8 -18 17c0 5 6 16 7 18l69 133c5 9 10 17 23 17c9 0 16 -5 16 -17v-678h141c9 0 18 -8 18 -18s-9 -18 -18 -18h-319c-10 0 -18 8 -18 18z" />
    <glyph glyph-name="oneeighth" unicode="&#x215b;" horiz-adv-x="619" 
d="M86 378v296l-23 -32c-3 -5 -7 -6 -10 -6c-8 0 -14 7 -14 14c0 5 5 13 7 15l45 59c3 4 7 7 14 7s14 -5 14 -13v-340c0 -9 -8 -13 -16 -13c-9 0 -17 4 -17 13zM464 366c60 0 104 -22 104 -88c0 -43 -19 -68 -49 -79c36 -13 60 -41 60 -93v-6c0 -74 -50 -103 -115 -103
c-64 0 -115 29 -115 103v6c0 52 24 80 60 93c-29 11 -49 36 -49 79c0 66 45 88 104 88zM546 102v8c0 51 -31 74 -82 74c-50 0 -81 -23 -81 -74v-8c0 -51 31 -76 82 -76s81 25 81 76zM464 336c-44 0 -71 -17 -71 -61c0 -43 27 -61 71 -61c45 0 71 18 71 61
c0 44 -26 61 -71 61zM478 738l-388 -747c-4 -8 -10 -11 -17 -11c-8 0 -16 6 -16 15c0 3 0 6 2 9l391 756c3 6 8 8 13 8c8 0 18 -8 18 -19c0 -4 -1 -7 -3 -11z" />
    <glyph glyph-name="onehalf" unicode="&#xbd;" horiz-adv-x="608" 
d="M86 378v296l-23 -32c-3 -5 -7 -6 -10 -6c-8 0 -14 7 -14 14c0 5 5 13 7 15l45 59c3 4 7 7 14 7s14 -5 14 -13v-340c0 -9 -8 -13 -16 -13c-9 0 -17 4 -17 13zM352 282c0 49 45 84 104 84c65 0 110 -43 110 -97c0 -107 -189 -141 -189 -208v-30h181c7 0 13 -7 13 -15
s-6 -16 -13 -16h-199c-7 0 -16 5 -16 13v48c0 83 190 120 190 207c0 32 -25 66 -78 66c-40 0 -69 -19 -69 -59c0 -6 -7 -13 -18 -13c-10 0 -16 5 -16 20zM478 738l-388 -747c-4 -8 -10 -11 -17 -11c-8 0 -16 6 -16 15c0 3 0 6 2 9l391 756c3 6 8 8 13 8c8 0 18 -8 18 -19
c0 -4 -1 -7 -3 -11z" />
    <glyph glyph-name="oneinferior" unicode="&#x2081;" horiz-adv-x="158" 
d="M70 13v296l-23 -32c-3 -5 -7 -6 -10 -6c-8 0 -14 7 -14 14c0 5 5 13 7 15l45 59c3 4 7 7 14 7s14 -5 14 -13v-340c0 -9 -8 -13 -16 -13c-9 0 -17 4 -17 13z" />
    <glyph glyph-name="onequarter" unicode="&#xbc;" horiz-adv-x="579" 
d="M82 378v296l-23 -32c-3 -5 -7 -6 -10 -6c-8 0 -14 7 -14 14c0 5 5 13 7 15l45 59c3 4 7 7 14 7s14 -5 14 -13v-340c0 -9 -8 -13 -16 -13c-9 0 -17 4 -17 13zM490 738l-388 -747c-4 -8 -10 -11 -17 -11c-8 0 -16 6 -16 15c0 3 0 6 2 9l391 756c3 6 8 8 13 8
c8 0 18 -8 18 -19c0 -4 -1 -7 -3 -11zM473 13v73h-144c-8 0 -13 6 -13 14c0 2 1 5 2 8l141 247c4 7 11 11 16 11c8 0 17 -6 17 -14c0 -2 -1 -5 -2 -7l-131 -227h114v96c0 8 8 12 16 12c9 0 17 -4 17 -12v-96h31c9 0 14 -8 14 -16s-6 -16 -14 -16h-31v-73
c0 -9 -8 -13 -17 -13c-8 0 -16 4 -16 13z" />
    <glyph glyph-name="onesuperior" unicode="&#xb9;" horiz-adv-x="158" 
d="M70 378v296l-23 -32c-3 -5 -7 -6 -10 -6c-8 0 -14 7 -14 14c0 5 5 13 7 15l45 59c3 4 7 7 14 7s14 -5 14 -13v-340c0 -9 -8 -13 -16 -13c-9 0 -17 4 -17 13z" />
    <glyph glyph-name="onethird" unicode="&#x2153;" horiz-adv-x="619" 
d="M86 378v296l-23 -32c-3 -5 -7 -6 -10 -6c-8 0 -14 7 -14 14c0 5 5 13 7 15l45 59c3 4 7 7 14 7s14 -5 14 -13v-340c0 -9 -8 -13 -16 -13c-9 0 -17 4 -17 13zM478 738l-388 -747c-4 -8 -10 -11 -17 -11c-8 0 -16 6 -16 15c0 3 0 6 2 9l391 756c3 6 8 8 13 8
c8 0 18 -8 18 -19c0 -4 -1 -7 -3 -11zM463 28c53 0 83 23 83 75v9c0 46 -32 66 -82 66c-10 0 -14 7 -14 14c0 8 4 15 14 15c46 0 71 15 71 64c0 43 -21 64 -69 64c-61 0 -74 -32 -74 -53c0 -10 -5 -16 -16 -16c-13 0 -17 4 -17 19c0 27 19 81 108 81c60 0 101 -24 101 -88
c0 -46 -20 -74 -46 -85c33 -12 57 -37 57 -81v-9c0 -77 -51 -106 -115 -106c-78 0 -115 45 -115 83c0 14 5 17 15 17c14 0 18 -6 18 -14c0 -21 17 -55 81 -55z" />
    <glyph glyph-name="ordfeminine" unicode="&#xaa;" horiz-adv-x="306" 
d="M142 731c81 0 110 -58 110 -120v-162c0 -8 -7 -15 -18 -15c-9 0 -17 7 -17 15v28c-20 -23 -49 -44 -87 -46c-8 0 -17 0 -25 1c-38 6 -66 31 -66 80c0 67 59 84 145 84h32v15c0 42 -21 88 -75 88c-41 0 -57 -18 -66 -18c-10 0 -15 11 -15 19c0 15 43 31 82 31zM216 527v42
h-31c-57 0 -110 -6 -110 -55c0 -37 25 -53 56 -53c42 0 85 38 85 66z" />
    <glyph glyph-name="ordmasculine" unicode="&#xba;" horiz-adv-x="320" 
d="M160 731c62 0 116 -52 116 -115v-70c0 -61 -54 -116 -116 -116s-116 55 -116 116v70c0 61 52 115 116 115zM240 546v70c0 41 -35 81 -80 81s-80 -40 -80 -81v-70c0 -42 35 -83 80 -83c44 0 80 41 80 83z" />
    <glyph glyph-name="oslash" unicode="&#xf8;" 
d="M227 478c32 0 62 -9 89 -25l25 48c3 6 8 8 13 8c8 0 18 -8 18 -19c0 -4 -1 -7 -3 -11l-25 -47c37 -33 61 -81 61 -134v-122c0 -95 -83 -182 -178 -182c-34 0 -66 11 -93 29l-23 -44c-4 -8 -10 -11 -17 -11c-8 0 -16 6 -16 15c0 3 0 6 2 9l27 53c-35 34 -57 81 -57 131
v122c0 96 80 180 177 180zM370 176v122c0 37 -16 74 -43 101l-178 -345c22 -16 49 -25 78 -25c79 0 143 72 143 147zM85 176c0 -36 14 -72 38 -99l177 344c-21 14 -46 22 -73 22c-80 0 -142 -72 -142 -145v-122z" />
    <glyph glyph-name="oslashacute" unicode="&#x1ff;" 
d="M227 478c32 0 62 -9 89 -25l25 48c3 6 8 8 13 8c8 0 18 -8 18 -19c0 -4 -1 -7 -3 -11l-25 -47c37 -33 61 -81 61 -134v-122c0 -95 -83 -182 -178 -182c-34 0 -66 11 -93 29l-23 -44c-4 -8 -10 -11 -17 -11c-8 0 -16 6 -16 15c0 3 0 6 2 9l27 53c-35 34 -57 81 -57 131
v122c0 96 80 180 177 180zM370 176v122c0 37 -16 74 -43 101l-178 -345c22 -16 49 -25 78 -25c79 0 143 72 143 147zM85 176c0 -36 14 -72 38 -99l177 344c-21 14 -46 22 -73 22c-80 0 -142 -72 -142 -145v-122zM284 658l-95 -54c-3 -2 -6 -3 -9 -3c-10 0 -19 8 -19 18
c0 5 2 10 8 13l102 60c2 1 5 2 7 2c10 0 16 -9 16 -18c0 -7 -3 -14 -10 -18z" />
    <glyph glyph-name="otilde" unicode="&#xf5;" 
d="M227 478c95 0 178 -81 178 -180v-122c0 -95 -83 -182 -178 -182s-177 86 -177 182v122c0 96 80 180 177 180zM370 176v122c0 73 -63 145 -143 145s-142 -72 -142 -145v-122c0 -75 63 -147 142 -147s143 72 143 147zM296 653c46 0 49 32 65 32c7 0 14 -6 14 -15
c0 -31 -52 -51 -84 -51c-48 0 -73 37 -129 37c-43 0 -55 -35 -69 -35c-7 0 -13 6 -13 17c0 26 53 52 89 52c49 0 76 -37 127 -37z" />
    <glyph glyph-name="p" unicode="p" horiz-adv-x="468" 
d="M86 472c10 0 18 -7 18 -17v-53c22 39 67 76 134 76c98 0 180 -81 180 -180v-122c0 -95 -83 -182 -178 -182c-61 0 -114 35 -136 76v-289c0 -9 -8 -18 -18 -18s-17 9 -17 18v674c0 10 7 17 17 17zM383 176v122c0 73 -64 145 -142 145c-68 0 -137 -54 -137 -145v-159
c0 -34 59 -110 138 -110c76 0 141 72 141 147z" />
    <glyph glyph-name="paragraph" unicode="&#xb6;" horiz-adv-x="512" 
d="M234 731h177c9 0 18 -6 18 -18v-696c0 -12 -9 -17 -18 -17s-18 5 -18 17v678h-75v-677c0 -12 -9 -18 -18 -18s-18 6 -18 18v288h-48c-110 0 -196 57 -196 207v12c0 150 86 206 196 206z" />
    <glyph glyph-name="parenleft" unicode="(" horiz-adv-x="278" 
d="M241 -20c-105 0 -174 61 -174 163v448c0 92 71 177 174 177c9 0 17 -8 17 -17c0 -10 -8 -18 -17 -18c-88 0 -138 -73 -138 -142v-448c0 -105 77 -128 138 -128c13 0 17 -10 17 -17c0 -11 -9 -18 -17 -18z" />
    <glyph glyph-name="parenright" unicode=")" horiz-adv-x="278" 
d="M37 -20c-8 0 -17 7 -17 18c0 7 4 17 17 17c61 0 138 23 138 128v448c0 69 -50 142 -138 142c-9 0 -17 8 -17 18c0 9 8 17 17 17c103 0 174 -85 174 -177v-448c0 -102 -69 -163 -174 -163z" />
    <glyph glyph-name="partialdiff" unicode="&#x2202;" horiz-adv-x="477" 
d="M201 741c150 0 209 -130 209 -366v-199c0 -95 -83 -182 -178 -182s-177 86 -177 182v132c0 96 80 180 176 180c58 0 127 -31 144 -86c0 170 -40 304 -177 304c-62 0 -91 -27 -105 -27c-9 0 -17 13 -17 20c0 19 62 42 125 42zM375 176v137c0 71 -65 140 -143 140
c-80 0 -142 -72 -142 -145v-132c0 -75 63 -147 142 -147s143 72 143 147z" />
    <glyph glyph-name="percent" unicode="%" horiz-adv-x="741" 
d="M161 362c-65 0 -115 29 -115 107v155c0 77 50 107 115 107s115 -30 115 -107v-155c0 -78 -50 -107 -115 -107zM243 469v155c0 52 -31 76 -82 76s-81 -24 -81 -76v-155c0 -52 30 -76 81 -76s82 24 82 76zM580 -3c-65 0 -115 29 -115 107v155c0 77 50 107 115 107
s115 -30 115 -107v-155c0 -78 -50 -107 -115 -107zM662 104v155c0 52 -31 76 -82 76s-81 -24 -81 -76v-155c0 -52 30 -76 81 -76s82 24 82 76zM584 738l-388 -747c-4 -8 -10 -11 -17 -11c-8 0 -16 6 -16 15c0 3 0 6 2 9l391 756c3 6 8 8 13 8c8 0 18 -8 18 -19
c0 -4 -1 -7 -3 -11z" />
    <glyph glyph-name="period" unicode="." horiz-adv-x="161" 
d="M81 66c19 0 35 -16 35 -36c0 -19 -16 -36 -35 -36c-21 0 -36 17 -36 36c0 20 15 36 36 36z" />
    <glyph glyph-name="periodcentered" unicode="&#xb7;" horiz-adv-x="176" 
d="M89 336c19 0 35 -16 35 -36c0 -19 -16 -36 -35 -36c-21 0 -36 17 -36 36c0 20 15 36 36 36z" />
    <glyph glyph-name="perthousand" unicode="&#x2030;" horiz-adv-x="1037" 
d="M161 362c-65 0 -115 29 -115 107v155c0 77 50 107 115 107s115 -30 115 -107v-155c0 -78 -50 -107 -115 -107zM243 469v155c0 52 -31 76 -82 76s-81 -24 -81 -76v-155c0 -52 30 -76 81 -76s82 24 82 76zM580 -3c-65 0 -115 29 -115 107v155c0 77 50 107 115 107
s115 -30 115 -107v-155c0 -78 -50 -107 -115 -107zM662 104v155c0 52 -31 76 -82 76s-81 -24 -81 -76v-155c0 -52 30 -76 81 -76s82 24 82 76zM584 738l-388 -747c-4 -8 -10 -11 -17 -11c-8 0 -16 6 -16 15c0 3 0 6 2 9l391 756c3 6 8 8 13 8c8 0 18 -8 18 -19
c0 -4 -1 -7 -3 -11zM879 -3c-65 0 -115 29 -115 107v155c0 77 50 107 115 107s115 -30 115 -107v-155c0 -78 -50 -107 -115 -107zM961 104v155c0 52 -31 76 -82 76s-81 -24 -81 -76v-155c0 -52 30 -76 81 -76s82 24 82 76z" />
    <glyph glyph-name="pi" unicode="&#x3c0;" horiz-adv-x="467" 
d="M86 472h295c9 0 18 -6 18 -18v-437c0 -12 -9 -17 -18 -17s-18 5 -18 17v419h-259v-419c0 -12 -9 -17 -18 -17s-18 5 -18 17v437c0 12 9 18 18 18z" />
    <glyph glyph-name="plus" unicode="+" horiz-adv-x="427" 
d="M214 63c-10 0 -18 7 -18 17v143h-143c-10 0 -17 7 -17 17s7 18 17 18h143v142c0 9 8 18 18 18s17 -9 17 -18v-142h142c9 0 18 -8 18 -18s-9 -17 -18 -17h-142v-143c0 -10 -7 -17 -17 -17z" />
    <glyph glyph-name="plusminus" unicode="&#xb1;" horiz-adv-x="477" 
d="M239 168c-10 0 -18 7 -18 17v143h-143c-10 0 -17 7 -17 17s7 18 17 18h143v142c0 9 8 18 18 18s17 -9 17 -18v-142h142c9 0 18 -8 18 -18s-9 -17 -18 -17h-142v-143c0 -10 -7 -17 -17 -17zM61 85c0 10 7 18 17 18h320c9 0 18 -8 18 -18s-9 -17 -18 -17h-320
c-10 0 -17 7 -17 17z" />
    <glyph glyph-name="product" unicode="&#x220f;" horiz-adv-x="557" 
d="M101 731h355c9 0 18 -6 18 -18v-696c0 -12 -9 -17 -18 -17s-18 5 -18 17v678h-319v-678c0 -12 -9 -17 -18 -17s-18 5 -18 17v696c0 12 9 18 18 18z" />
    <glyph glyph-name="q" unicode="q" horiz-adv-x="468" 
d="M382 472c10 0 17 -7 17 -17v-674c0 -9 -7 -18 -17 -18s-18 9 -18 18v289c-22 -41 -75 -76 -136 -76c-95 0 -178 87 -178 182v122c0 99 82 180 180 180c67 0 112 -37 134 -76v53c0 10 8 17 18 17zM85 298v-122c0 -75 65 -147 141 -147c79 0 138 76 138 110v159
c0 91 -69 145 -137 145c-78 0 -142 -72 -142 -145z" />
    <glyph glyph-name="q.ss02" horiz-adv-x="465" 
d="M383 -237c-10 0 -18 7 -18 17v290c-22 -39 -67 -76 -134 -76c-98 0 -180 81 -180 180v122c0 78 44 182 177 182c81 0 172 -40 172 -189v-510c0 -10 -7 -16 -17 -16zM86 296v-122c0 -73 65 -145 139 -145c72 0 140 67 140 110v141c0 122 -65 163 -140 163
c-115 0 -139 -93 -139 -147z" />
    <glyph glyph-name="question" unicode="?" horiz-adv-x="383" 
d="M345 566c0 -135 -100 -189 -141 -241c-26 -33 -27 -78 -27 -161c0 -12 -9 -17 -17 -17s-17 5 -17 17c0 120 12 153 35 181c44 51 132 100 132 220c0 91 -50 148 -150 148c-84 0 -105 -40 -121 -40c-6 0 -14 7 -14 17c0 25 67 58 139 58c124 0 181 -81 181 -182zM160 66
c19 0 35 -16 35 -36c0 -19 -15 -36 -35 -36c-21 0 -36 17 -36 36c0 20 16 36 36 36z" />
    <glyph glyph-name="questiondown" unicode="&#xbf;" horiz-adv-x="383" 
d="M38 176c0 135 100 189 141 241c26 33 27 78 27 161c0 12 9 17 17 17s17 -5 17 -17c0 -120 -12 -153 -35 -181c-44 -52 -132 -100 -132 -220c0 -91 50 -148 150 -148c84 0 105 40 121 40c6 0 14 -7 14 -17c0 -25 -67 -58 -139 -58c-124 0 -181 81 -181 182zM223 676
c-19 0 -35 16 -35 36c0 19 15 36 35 36c21 0 36 -17 36 -36c0 -20 -16 -36 -36 -36z" />
    <glyph glyph-name="quotedbl" unicode="&#x22;" horiz-adv-x="255" 
d="M67 768c10 0 25 -7 25 -17l-10 -152c0 -9 -5 -18 -15 -18s-14 9 -14 18l-10 152c0 10 14 17 24 17zM187 768c10 0 25 -7 25 -17l-10 -152c0 -9 -5 -18 -15 -18s-14 9 -14 18l-10 152c0 10 14 17 24 17z" />
    <glyph glyph-name="quotedblbase" unicode="&#x201e;" horiz-adv-x="296" 
d="M81 66c19 0 35 -16 35 -36c0 -16 -17 -65 -33 -97c-3 -6 -9 -10 -14 -10c-8 0 -16 6 -16 15c0 2 0 4 1 6l18 51c-16 4 -27 19 -27 35c0 20 15 36 36 36zM215 66c19 0 35 -16 35 -36c0 -16 -17 -65 -33 -97c-3 -6 -9 -10 -14 -10c-8 0 -16 6 -16 15c0 2 0 4 1 6l18 51
c-16 4 -27 19 -27 35c0 20 15 36 36 36z" />
    <glyph glyph-name="quotedblleft" unicode="&#x201c;" horiz-adv-x="284" 
d="M208 598c-19 0 -35 16 -35 36c0 16 17 65 33 97c3 6 9 10 14 10c8 0 16 -6 16 -15c0 -2 0 -4 -1 -6l-18 -51c16 -4 27 -19 27 -35c0 -20 -15 -36 -36 -36zM74 598c-19 0 -35 16 -35 36c0 16 17 65 33 97c3 6 9 10 14 10c8 0 16 -6 16 -15c0 -2 0 -4 -1 -6l-18 -51
c16 -4 27 -19 27 -35c0 -20 -15 -36 -36 -36z" />
    <glyph glyph-name="quotedblright" unicode="&#x201d;" horiz-adv-x="282" 
d="M77 741c19 0 35 -16 35 -36c0 -16 -17 -65 -33 -97c-3 -6 -9 -10 -14 -10c-8 0 -16 6 -16 15c0 2 0 4 1 6l18 51c-16 4 -27 19 -27 35c0 20 15 36 36 36zM211 741c19 0 35 -16 35 -36c0 -16 -17 -65 -33 -97c-3 -6 -9 -10 -14 -10c-8 0 -16 6 -16 15c0 2 0 4 1 6l18 51
c-16 4 -27 19 -27 35c0 20 15 36 36 36z" />
    <glyph glyph-name="quoteleft" unicode="&#x2018;" horiz-adv-x="150" 
d="M74 598c-19 0 -35 16 -35 36c0 16 17 65 33 97c3 6 9 10 14 10c8 0 16 -6 16 -15c0 -2 0 -4 -1 -6l-18 -51c16 -4 27 -19 27 -35c0 -20 -15 -36 -36 -36z" />
    <glyph glyph-name="quoteright" unicode="&#x2019;" horiz-adv-x="148" 
d="M77 741c19 0 35 -16 35 -36c0 -16 -17 -65 -33 -97c-3 -6 -9 -10 -14 -10c-8 0 -16 6 -16 15c0 2 0 4 1 6l18 51c-16 4 -27 19 -27 35c0 20 15 36 36 36z" />
    <glyph glyph-name="quotesinglbase" unicode="&#x201a;" horiz-adv-x="162" 
d="M81 66c19 0 35 -16 35 -36c0 -16 -17 -65 -33 -97c-3 -6 -9 -10 -14 -10c-8 0 -16 6 -16 15c0 2 0 4 1 6l18 51c-16 4 -27 19 -27 35c0 20 15 36 36 36z" />
    <glyph glyph-name="quotesingle" unicode="'" horiz-adv-x="135" 
d="M67 768c10 0 25 -7 25 -17l-10 -152c0 -9 -5 -18 -15 -18s-14 9 -14 18l-10 152c0 10 14 17 24 17z" />
    <glyph glyph-name="r" unicode="r" horiz-adv-x="308" 
d="M279 443h-37c-70 0 -139 -54 -139 -145v-280c0 -9 -8 -18 -18 -18s-17 9 -17 18v437c0 10 7 17 17 17s18 -7 18 -17v-53c23 39 69 76 139 76h37c9 0 17 -8 17 -18c0 -9 -8 -17 -17 -17z" />
    <glyph glyph-name="r.ss04" horiz-adv-x="303" 
d="M225 478h50c9 0 16 -7 16 -17s-7 -18 -16 -18h-50c-79 0 -127 -87 -127 -171v-255c0 -9 -8 -17 -18 -17c-9 0 -17 8 -17 17v255c0 107 68 206 162 206z" />
    <glyph glyph-name="racute" unicode="&#x155;" horiz-adv-x="308" 
d="M279 443h-37c-70 0 -139 -54 -139 -145v-280c0 -9 -8 -18 -18 -18s-17 9 -17 18v437c0 10 7 17 17 17s18 -7 18 -17v-53c23 39 69 76 139 76h37c9 0 17 -8 17 -18c0 -9 -8 -17 -17 -17zM200 658l-95 -54c-3 -2 -6 -3 -9 -3c-10 0 -19 8 -19 18c0 5 2 10 8 13l102 60
c2 1 5 2 7 2c10 0 16 -9 16 -18c0 -7 -3 -14 -10 -18z" />
    <glyph glyph-name="radical" unicode="&#x221a;" horiz-adv-x="584" 
d="M17 426c0 10 7 18 17 18h50c8 0 15 -4 18 -14l130 -392l219 716c3 9 10 14 18 14h90c10 0 17 -8 17 -18s-7 -17 -17 -17h-77l-231 -753c-3 -10 -11 -15 -18 -15c-8 0 -16 5 -19 15l-142 429h-38c-10 0 -17 7 -17 17z" />
    <glyph glyph-name="rcaron" unicode="&#x159;" horiz-adv-x="308" 
d="M279 443h-37c-70 0 -139 -54 -139 -145v-280c0 -9 -8 -18 -18 -18s-17 9 -17 18v437c0 10 7 17 17 17s18 -7 18 -17v-53c23 39 69 76 139 76h37c9 0 17 -8 17 -18c0 -9 -8 -17 -17 -17zM265 700l-100 -101c-7 -7 -14 -11 -21 -11s-15 4 -21 11l-100 101c-5 6 -8 11 -8 16
c0 7 6 15 15 15c5 0 11 -2 16 -8l98 -103l98 103c5 6 11 8 16 8c9 0 15 -8 15 -15c0 -5 -3 -10 -8 -16z" />
    <glyph glyph-name="rcommaaccent" unicode="&#x157;" horiz-adv-x="308" 
d="M279 443h-37c-70 0 -139 -54 -139 -145v-280c0 -9 -8 -18 -18 -18s-17 9 -17 18v437c0 10 7 17 17 17s18 -7 18 -17v-53c23 39 69 76 139 76h37c9 0 17 -8 17 -18c0 -9 -8 -17 -17 -17zM116 -84l-95 -54c-3 -2 -6 -3 -9 -3c-10 0 -19 8 -19 18c0 5 2 10 8 13l102 60
c2 1 5 2 7 2c10 0 16 -9 16 -18c0 -7 -3 -14 -10 -18z" />
    <glyph glyph-name="registered" unicode="&#xae;" horiz-adv-x="728" 
d="M57 358c0 223 171 327 310 327c141 0 304 -106 304 -323c0 -223 -171 -327 -310 -327c-141 0 -304 106 -304 323zM636 362c0 167 -108 288 -269 288c-159 0 -275 -119 -275 -292c0 -167 108 -288 269 -288c159 0 275 119 275 292zM275 183v367c0 7 5 13 13 14h84
c55 0 101 -26 101 -107c0 -67 -30 -96 -70 -104l69 -159c1 -3 2 -5 2 -7c0 -10 -11 -19 -21 -19c-8 0 -13 10 -17 19l-73 162h-52v-166c0 -9 -9 -14 -18 -14s-18 5 -18 14zM372 530h-61v-150h61c38 0 65 21 65 75s-27 75 -65 75z" />
    <glyph glyph-name="ring" unicode="&#x2da;" horiz-adv-x="180" 
d="M90 768c47 0 90 -43 90 -91c0 -49 -43 -93 -90 -93c-50 0 -90 44 -90 93c0 47 39 91 90 91zM155 677c0 31 -30 65 -65 65c-37 0 -66 -34 -66 -65c0 -35 30 -70 66 -70c35 0 65 35 65 70z" />
    <glyph glyph-name="s" unicode="s" horiz-adv-x="373" 
d="M183 29c84 0 117 38 117 83c0 155 -252 71 -252 236c0 60 44 130 148 130c59 0 122 -23 122 -42c0 -7 -8 -20 -17 -20c-13 0 -44 27 -104 27c-85 0 -114 -55 -114 -94c0 -133 252 -50 252 -235c0 -74 -56 -120 -151 -120c-90 0 -146 41 -146 65c0 9 7 17 14 17
c18 0 37 -47 131 -47z" />
    <glyph glyph-name="sacute" unicode="&#x15b;" horiz-adv-x="373" 
d="M183 29c84 0 117 38 117 83c0 155 -252 71 -252 236c0 60 44 130 148 130c59 0 122 -23 122 -42c0 -7 -8 -20 -17 -20c-13 0 -44 27 -104 27c-85 0 -114 -55 -114 -94c0 -133 252 -50 252 -235c0 -74 -56 -120 -151 -120c-90 0 -146 41 -146 65c0 9 7 17 14 17
c18 0 37 -47 131 -47zM237 658l-95 -54c-3 -2 -6 -3 -9 -3c-10 0 -19 8 -19 18c0 5 2 10 8 13l102 60c2 1 5 2 7 2c10 0 16 -9 16 -18c0 -7 -3 -14 -10 -18z" />
    <glyph glyph-name="scaron" unicode="&#x161;" horiz-adv-x="373" 
d="M183 29c84 0 117 38 117 83c0 155 -252 71 -252 236c0 60 44 130 148 130c59 0 122 -23 122 -42c0 -7 -8 -20 -17 -20c-13 0 -44 27 -104 27c-85 0 -114 -55 -114 -94c0 -133 252 -50 252 -235c0 -74 -56 -120 -151 -120c-90 0 -146 41 -146 65c0 9 7 17 14 17
c18 0 37 -47 131 -47zM301 700l-100 -101c-7 -7 -14 -11 -21 -11s-15 4 -21 11l-100 101c-5 6 -8 11 -8 16c0 7 6 15 15 15c5 0 11 -2 16 -8l98 -103l98 103c5 6 11 8 16 8c9 0 15 -8 15 -15c0 -5 -3 -10 -8 -16z" />
    <glyph glyph-name="scedilla" unicode="&#x15f;" horiz-adv-x="373" 
d="M183 29c84 0 117 38 117 83c0 155 -252 71 -252 236c0 60 44 130 148 130c59 0 122 -23 122 -42c0 -7 -8 -20 -17 -20c-13 0 -44 27 -104 27c-85 0 -114 -55 -114 -94c0 -133 252 -50 252 -235c0 -67 -45 -110 -123 -118l-14 -61c68 -2 94 -36 94 -70
c0 -37 -30 -72 -82 -72c-23 0 -74 7 -74 24c0 6 6 18 12 18c7 0 23 -13 56 -13c42 0 55 20 55 41c0 31 -27 42 -70 45l-29 2l20 84c-88 1 -142 41 -142 65c0 9 7 17 14 17c18 0 37 -47 131 -47z" />
    <glyph glyph-name="schwa" unicode="&#x259;" horiz-adv-x="445" 
d="M216 -6c-94 0 -177 76 -177 180c0 73 40 75 83 75h237v47c0 91 -71 147 -169 147c-84 0 -99 -41 -118 -41c-9 0 -18 10 -18 18c0 19 52 58 138 58c118 0 202 -73 202 -182v-125c0 -96 -81 -177 -178 -177zM359 214h-225c-49 0 -60 -6 -60 -37c0 -72 56 -148 142 -148
c81 0 143 67 143 142v43z" />
    <glyph glyph-name="scircumflex" unicode="&#x15d;" horiz-adv-x="373" 
d="M183 29c84 0 117 38 117 83c0 155 -252 71 -252 236c0 60 44 130 148 130c59 0 122 -23 122 -42c0 -7 -8 -20 -17 -20c-13 0 -44 27 -104 27c-85 0 -114 -55 -114 -94c0 -133 252 -50 252 -235c0 -74 -56 -120 -151 -120c-90 0 -146 41 -146 65c0 9 7 17 14 17
c18 0 37 -47 131 -47zM181 659l-104 -56c-3 -1 -6 -3 -8 -3c-9 0 -18 8 -18 19c0 5 3 11 9 14l104 56c5 3 11 5 17 5s12 -2 17 -5l104 -55c6 -3 9 -10 9 -17c0 -9 -8 -16 -17 -16c-3 0 -6 2 -9 3z" />
    <glyph glyph-name="scommaaccent" unicode="&#x219;" horiz-adv-x="373" 
d="M183 29c84 0 117 38 117 83c0 155 -252 71 -252 236c0 60 44 130 148 130c59 0 122 -23 122 -42c0 -7 -8 -20 -17 -20c-13 0 -44 27 -104 27c-85 0 -114 -55 -114 -94c0 -133 252 -50 252 -235c0 -74 -56 -120 -151 -120c-90 0 -146 41 -146 65c0 9 7 17 14 17
c18 0 37 -47 131 -47zM244 -84l-95 -54c-3 -2 -6 -3 -9 -3c-10 0 -19 8 -19 18c0 5 2 10 8 13l102 60c2 1 5 2 7 2c10 0 16 -9 16 -18c0 -7 -3 -14 -10 -18z" />
    <glyph glyph-name="section" unicode="&#xa7;" horiz-adv-x="461" 
d="M367 113c0 186 -297 75 -297 302v132c0 149 94 184 163 184c100 0 152 -64 152 -158c0 -17 -10 -22 -19 -22c-10 0 -19 5 -19 25c0 42 -20 119 -112 119c-58 0 -129 -33 -129 -148c0 -186 297 -76 297 -302v-130c0 -126 -76 -181 -173 -181c-107 0 -178 73 -178 165
c0 14 9 20 19 20c12 0 17 -9 17 -18c0 -44 25 -131 136 -131c90 0 143 50 143 143zM367 210v33c0 158 -186 118 -261 206v-32c0 -158 186 -119 261 -207z" />
    <glyph glyph-name="semicolon" unicode=";" horiz-adv-x="195" 
d="M98 422c19 0 35 -16 35 -36c0 -19 -16 -36 -35 -36c-21 0 -36 17 -36 36c0 20 15 36 36 36zM96 66c17 0 36 -12 36 -37c0 -6 -1 -18 -31 -95c-3 -7 -9 -11 -16 -11c-8 0 -16 5 -16 13c0 3 0 5 1 8l18 51c-16 4 -27 19 -27 35c0 20 15 36 35 36z" />
    <glyph glyph-name="seven" unicode="7" horiz-adv-x="442" 
d="M424 713v-72c0 -3 0 -5 -2 -8l-318 -623c-3 -6 -9 -10 -15 -10c-11 0 -20 5 -20 15c0 3 1 7 3 11l316 620v49h-319v-131c0 -10 -9 -18 -18 -18c-10 0 -18 8 -18 18v149c0 9 9 18 18 18h355c8 0 18 -9 18 -18z" />
    <glyph glyph-name="seveneighths" unicode="&#x215e;" horiz-adv-x="732" 
d="M267 718v-43c0 -5 -2 -11 -4 -15l-169 -289c-2 -4 -7 -7 -12 -7c-10 0 -20 6 -20 16c0 2 1 4 2 7l170 286v27h-163v-58c0 -7 -9 -13 -17 -13c-10 0 -17 6 -17 13v76c0 6 8 13 16 13h198c7 0 16 -7 16 -13zM579 366c60 0 104 -22 104 -88c0 -43 -19 -68 -49 -79
c36 -13 60 -41 60 -93v-6c0 -74 -50 -103 -115 -103c-64 0 -115 29 -115 103v6c0 52 24 80 60 93c-29 11 -49 36 -49 79c0 66 45 88 104 88zM661 102v8c0 51 -31 74 -82 74c-50 0 -81 -23 -81 -74v-8c0 -51 31 -76 82 -76s81 25 81 76zM579 336c-44 0 -71 -17 -71 -61
c0 -43 27 -61 71 -61c45 0 71 18 71 61c0 44 -26 61 -71 61zM543 738l-388 -747c-4 -8 -10 -11 -17 -11c-8 0 -16 6 -16 15c0 3 0 6 2 9l391 756c3 6 8 8 13 8c8 0 18 -8 18 -19c0 -4 -1 -7 -3 -11z" />
    <glyph glyph-name="seveninferior" unicode="&#x2087;" horiz-adv-x="283" 
d="M261 353v-43c0 -5 -2 -11 -4 -15l-169 -289c-2 -4 -7 -7 -12 -7c-10 0 -20 6 -20 16c0 2 1 4 2 7l170 286v27h-163v-58c0 -7 -9 -13 -17 -13c-10 0 -17 6 -17 13v76c0 6 8 13 16 13h198c7 0 16 -7 16 -13z" />
    <glyph glyph-name="sevensuperior" unicode="&#x2077;" horiz-adv-x="282" 
d="M261 718v-43c0 -5 -2 -11 -4 -15l-169 -289c-2 -4 -7 -7 -12 -7c-10 0 -20 6 -20 16c0 2 1 4 2 7l170 286v27h-163v-58c0 -7 -9 -13 -17 -13c-10 0 -17 6 -17 13v76c0 6 8 13 16 13h198c7 0 16 -7 16 -13z" />
    <glyph glyph-name="six" unicode="6" horiz-adv-x="504" 
d="M261 425c110 0 195 -46 195 -196v-29c0 -150 -85 -206 -195 -206s-196 56 -196 206v325c0 150 85 206 195 206c123 0 196 -77 196 -165c0 -14 -8 -20 -17 -20s-19 6 -19 18c0 79 -72 131 -160 131c-100 0 -159 -54 -159 -170v-174c35 50 93 74 160 74zM101 238v-38
c0 -116 60 -170 160 -170s159 54 159 170v29c0 116 -59 160 -159 160c-97 0 -160 -41 -160 -151z" />
    <glyph glyph-name="sixinferior" unicode="&#x2086;" horiz-adv-x="322" 
d="M169 216c62 0 111 -24 111 -100v-12c0 -78 -50 -107 -115 -107c-78 0 -115 35 -115 131v131c0 77 51 107 116 107c74 0 114 -43 114 -86c0 -11 -6 -16 -16 -16c-8 0 -17 4 -17 15c0 34 -37 56 -82 56c-51 0 -81 -24 -81 -76v-77c19 24 50 34 85 34zM84 119v-17
c0 -51 30 -75 81 -75s82 24 82 75v12c0 53 -31 73 -82 73c-49 0 -81 -19 -81 -68z" />
    <glyph glyph-name="sixsuperior" unicode="&#x2076;" horiz-adv-x="322" 
d="M169 581c62 0 111 -24 111 -100v-12c0 -78 -50 -107 -115 -107c-78 0 -115 35 -115 131v131c0 77 51 107 116 107c74 0 114 -43 114 -86c0 -11 -6 -16 -16 -16c-8 0 -17 4 -17 15c0 34 -37 56 -82 56c-51 0 -81 -24 -81 -76v-77c19 24 50 34 85 34zM84 484v-17
c0 -51 30 -75 81 -75s82 24 82 75v12c0 53 -31 73 -82 73c-49 0 -81 -19 -81 -68z" />
    <glyph glyph-name="slash" unicode="/" horiz-adv-x="468" 
d="M443 738l-388 -747c-4 -8 -10 -11 -17 -11c-8 0 -16 6 -16 15c0 3 0 6 2 9l391 756c3 6 8 8 13 8c8 0 18 -8 18 -19c0 -4 -1 -7 -3 -11z" />
    <glyph glyph-name="space" unicode=" " horiz-adv-x="200" 
 />
    <glyph glyph-name="sterling" unicode="&#xa3;" horiz-adv-x="461" 
d="M49 384c0 10 7 18 17 18h91l27 188c14 96 104 178 203 178h12c13 0 20 -9 20 -18c0 -8 -7 -17 -20 -17h-17c-81 0 -152 -69 -163 -143l-27 -188h163c11 0 16 -9 16 -18c0 -8 -5 -17 -16 -17h-168l-47 -331h263c10 0 16 -9 16 -18s-6 -18 -16 -18h-360c-12 0 -18 9 -18 18
s6 18 18 18h63l46 331h-86c-10 0 -17 7 -17 17z" />
    <glyph glyph-name="summation" unicode="&#x2211;" horiz-adv-x="447" 
d="M47 731h355c12 0 18 -9 18 -18s-6 -18 -18 -18h-326l206 -404c10 -19 15 -29 15 -39c0 -11 -5 -21 -15 -40l-206 -403h326c12 0 18 -9 18 -18s-6 -18 -18 -18h-355c-10 0 -18 8 -18 18c0 3 1 7 3 11l229 450l-229 450c-2 4 -3 8 -3 11c0 10 8 18 18 18z" />
    <glyph glyph-name="t" unicode="t" horiz-adv-x="272" 
d="M66 139v547c0 10 9 17 17 17c9 0 18 -7 18 -17v-214h135c9 0 17 -8 17 -18c0 -9 -8 -17 -17 -17h-135v-298c0 -76 29 -104 111 -104h23c9 0 17 -7 17 -17s-8 -18 -17 -18h-23c-95 0 -146 42 -146 139z" />
    <glyph glyph-name="tbar" unicode="&#x167;" horiz-adv-x="276" 
d="M66 139v547c0 10 9 17 17 17c9 0 18 -7 18 -17v-214h135c9 0 17 -8 17 -18c0 -9 -8 -17 -17 -17h-135v-115h135c9 0 17 -8 17 -18c0 -9 -8 -17 -17 -17h-135v-148c0 -76 29 -104 111 -104h23c9 0 17 -7 17 -17s-8 -18 -17 -18h-23c-95 0 -146 42 -146 139z" />
    <glyph glyph-name="tcaron" unicode="&#x165;" horiz-adv-x="272" 
d="M66 139v547c0 10 9 17 17 17c9 0 18 -7 18 -17v-214h135c9 0 17 -8 17 -18c0 -9 -8 -17 -17 -17h-135v-298c0 -76 29 -104 111 -104h23c9 0 17 -7 17 -17s-8 -18 -17 -18h-23c-95 0 -146 42 -146 139zM212 741c19 0 35 -16 35 -36c0 -16 -17 -65 -33 -97
c-3 -6 -9 -10 -14 -10c-8 0 -16 6 -16 15c0 2 0 4 1 6l18 51c-16 4 -27 19 -27 35c0 20 15 36 36 36z" />
    <glyph glyph-name="tcommaaccent" unicode="&#x163;" horiz-adv-x="272" 
d="M66 139v547c0 10 9 17 17 17c9 0 18 -7 18 -17v-214h135c9 0 17 -8 17 -18c0 -9 -8 -17 -17 -17h-135v-298c0 -76 29 -104 111 -104h23c9 0 17 -7 17 -17s-8 -18 -17 -18h-23c-95 0 -146 42 -146 139zM185 -84l-95 -54c-3 -2 -6 -3 -9 -3c-10 0 -19 8 -19 18
c0 5 2 10 8 13l102 60c2 1 5 2 7 2c10 0 16 -9 16 -18c0 -7 -3 -14 -10 -18z" />
    <glyph glyph-name="thorn" unicode="&#xfe;" horiz-adv-x="468" 
d="M86 768c10 0 18 -7 18 -17v-349c22 39 67 76 134 76c98 0 180 -81 180 -180v-122c0 -95 -83 -182 -178 -182c-61 0 -114 35 -136 76v-289c0 -9 -8 -18 -18 -18s-17 9 -17 18v970c0 10 7 17 17 17zM383 176v122c0 73 -64 145 -142 145c-68 0 -137 -54 -137 -145v-159
c0 -34 59 -110 138 -110c76 0 141 72 141 147z" />
    <glyph glyph-name="three" unicode="3" horiz-adv-x="473" 
d="M230 369c-13 0 -19 9 -19 18s6 18 18 18c94 0 141 38 141 143c0 96 -39 147 -137 147c-124 0 -146 -81 -146 -125c0 -15 -7 -24 -18 -24s-18 7 -18 30c0 47 30 155 185 155c102 0 170 -47 170 -174c0 -97 -39 -149 -84 -171c59 -25 102 -76 102 -167v-19
c0 -150 -87 -206 -194 -206c-132 0 -197 86 -197 157c0 22 6 28 16 28c14 0 19 -11 19 -21c0 -41 27 -128 158 -128c102 0 162 54 162 170v19c0 100 -61 150 -158 150z" />
    <glyph glyph-name="threeeighths" unicode="&#x215c;" horiz-adv-x="734" 
d="M579 366c60 0 104 -22 104 -88c0 -43 -19 -68 -49 -79c36 -13 60 -41 60 -93v-6c0 -74 -50 -103 -115 -103c-64 0 -115 29 -115 103v6c0 52 24 80 60 93c-29 11 -49 36 -49 79c0 66 45 88 104 88zM661 102v8c0 51 -31 74 -82 74c-50 0 -81 -23 -81 -74v-8
c0 -51 31 -76 82 -76s81 25 81 76zM579 336c-44 0 -71 -17 -71 -61c0 -43 27 -61 71 -61c45 0 71 18 71 61c0 44 -26 61 -71 61zM593 738l-388 -747c-4 -8 -10 -11 -17 -11c-8 0 -16 6 -16 15c0 3 0 6 2 9l391 756c3 6 8 8 13 8c8 0 18 -8 18 -19c0 -4 -1 -7 -3 -11z
M150 393c53 0 83 23 83 75v9c0 46 -32 66 -82 66c-10 0 -14 7 -14 14c0 8 4 15 14 15c46 0 71 15 71 64c0 43 -21 64 -69 64c-61 0 -74 -32 -74 -53c0 -10 -5 -16 -16 -16c-13 0 -17 4 -17 19c0 27 19 81 108 81c60 0 101 -24 101 -88c0 -46 -20 -74 -46 -85
c33 -12 57 -37 57 -81v-9c0 -77 -51 -106 -115 -106c-78 0 -115 45 -115 83c0 14 5 17 15 17c14 0 18 -6 18 -14c0 -21 17 -55 81 -55z" />
    <glyph glyph-name="threeinferior" unicode="&#x2083;" horiz-adv-x="305" 
d="M148 28c53 0 83 23 83 75v9c0 46 -32 66 -82 66c-10 0 -14 7 -14 14c0 8 4 15 14 15c46 0 71 15 71 64c0 43 -21 64 -69 64c-61 0 -74 -32 -74 -53c0 -10 -5 -16 -16 -16c-13 0 -17 4 -17 19c0 27 19 81 108 81c60 0 101 -24 101 -88c0 -46 -20 -74 -46 -85
c33 -12 57 -37 57 -81v-9c0 -77 -51 -106 -115 -106c-78 0 -115 45 -115 83c0 14 5 17 15 17c14 0 18 -6 18 -14c0 -21 17 -55 81 -55z" />
    <glyph glyph-name="threequarters" unicode="&#xbe;" horiz-adv-x="707" 
d="M150 393c53 0 83 23 83 75v9c0 46 -32 66 -82 66c-10 0 -14 7 -14 14c0 8 4 15 14 15c46 0 71 15 71 64c0 43 -21 64 -69 64c-61 0 -74 -32 -74 -53c0 -10 -5 -16 -16 -16c-13 0 -17 4 -17 19c0 27 19 81 108 81c60 0 101 -24 101 -88c0 -46 -20 -74 -46 -85
c33 -12 57 -37 57 -81v-9c0 -77 -51 -106 -115 -106c-78 0 -115 45 -115 83c0 14 5 17 15 17c14 0 18 -6 18 -14c0 -21 17 -55 81 -55zM602 13v73h-144c-8 0 -13 6 -13 14c0 2 1 5 2 8l141 247c4 7 11 11 16 11c8 0 17 -6 17 -14c0 -2 -1 -5 -2 -7l-131 -227h114v96
c0 8 8 12 16 12c9 0 17 -4 17 -12v-96h31c9 0 14 -8 14 -16s-6 -16 -14 -16h-31v-73c0 -9 -8 -13 -17 -13c-8 0 -16 4 -16 13zM613 738l-388 -747c-4 -8 -10 -11 -17 -11c-8 0 -16 6 -16 15c0 3 0 6 2 9l391 756c3 6 8 8 13 8c8 0 18 -8 18 -19c0 -4 -1 -7 -3 -11z" />
    <glyph glyph-name="threesuperior" unicode="&#xb3;" horiz-adv-x="306" 
d="M148 393c53 0 83 23 83 75v9c0 46 -32 66 -82 66c-10 0 -14 7 -14 14c0 8 4 15 14 15c46 0 71 15 71 64c0 43 -21 64 -69 64c-61 0 -74 -32 -74 -53c0 -10 -5 -16 -16 -16c-13 0 -17 4 -17 19c0 27 19 81 108 81c60 0 101 -24 101 -88c0 -46 -20 -74 -46 -85
c33 -12 57 -37 57 -81v-9c0 -77 -51 -106 -115 -106c-78 0 -115 45 -115 83c0 14 5 17 15 17c14 0 18 -6 18 -14c0 -21 17 -55 81 -55z" />
    <glyph glyph-name="tilde" unicode="&#x2dc;" horiz-adv-x="295" 
d="M216 653c46 0 49 32 65 32c7 0 14 -6 14 -15c0 -31 -52 -51 -84 -51c-48 0 -73 37 -129 37c-43 0 -55 -35 -69 -35c-7 0 -13 6 -13 17c0 26 53 52 89 52c49 0 76 -37 127 -37z" />
    <glyph glyph-name="trademark" unicode="&#x2122;" horiz-adv-x="606" 
d="M47 768h187c9 0 13 -9 13 -17c0 -9 -4 -18 -13 -18h-75v-247c0 -9 -9 -14 -18 -14c-10 0 -19 5 -19 14v247h-75c-8 0 -13 9 -13 18c0 8 4 17 13 17zM484 689l-72 -168c-4 -9 -9 -12 -14 -12s-10 3 -13 12l-72 170v-205c0 -9 -9 -14 -18 -14s-18 5 -18 14v264
c0 13 9 18 18 18c13 0 22 -12 28 -26l75 -177l76 177c6 15 15 26 28 26c10 0 18 -5 18 -18v-264c0 -9 -9 -14 -18 -14s-18 5 -18 14v203z" />
    <glyph glyph-name="two" unicode="2" horiz-adv-x="461" 
d="M56 574c0 87 72 157 175 157c115 0 188 -88 188 -187c0 -214 -345 -282 -345 -429v-79h338c9 0 17 -8 17 -18c0 -9 -8 -18 -17 -18h-356c-8 0 -18 7 -18 18v97c0 169 345 237 345 428c0 73 -50 152 -154 152c-79 0 -137 -45 -137 -132c0 -8 -6 -17 -19 -17s-17 8 -17 28z
" />
    <glyph glyph-name="twoinferior" unicode="&#x2082;" horiz-adv-x="299" 
d="M46 282c0 49 45 84 104 84c65 0 110 -43 110 -97c0 -107 -189 -141 -189 -208v-30h181c7 0 13 -7 13 -15s-6 -16 -13 -16h-199c-7 0 -16 5 -16 13v48c0 83 190 120 190 207c0 32 -25 66 -78 66c-40 0 -69 -19 -69 -59c0 -6 -7 -13 -18 -13c-10 0 -16 5 -16 20z" />
    <glyph glyph-name="twosuperior" unicode="&#xb2;" horiz-adv-x="299" 
d="M46 647c0 49 45 84 104 84c65 0 110 -43 110 -97c0 -107 -189 -141 -189 -208v-30h181c7 0 13 -7 13 -15s-6 -16 -13 -16h-199c-7 0 -16 5 -16 13v48c0 83 190 120 190 207c0 32 -25 66 -78 66c-40 0 -69 -19 -69 -59c0 -6 -7 -13 -18 -13c-10 0 -16 5 -16 20z" />
    <glyph glyph-name="twothirds" unicode="&#x2154;" horiz-adv-x="728" 
d="M50 647c0 49 45 84 104 84c65 0 110 -43 110 -97c0 -107 -189 -141 -189 -208v-30h181c7 0 13 -7 13 -15s-6 -16 -13 -16h-199c-7 0 -16 5 -16 13v48c0 83 190 120 190 207c0 32 -25 66 -78 66c-40 0 -69 -19 -69 -59c0 -6 -7 -13 -18 -13c-10 0 -16 5 -16 20zM571 28
c53 0 83 23 83 75v9c0 46 -32 66 -82 66c-10 0 -14 7 -14 14c0 8 4 15 14 15c46 0 71 15 71 64c0 43 -21 64 -69 64c-61 0 -74 -32 -74 -53c0 -10 -5 -16 -16 -16c-13 0 -17 4 -17 19c0 27 19 81 108 81c60 0 101 -24 101 -88c0 -46 -20 -74 -46 -85c33 -12 57 -37 57 -81
v-9c0 -77 -51 -106 -115 -106c-78 0 -115 45 -115 83c0 14 5 17 15 17c14 0 18 -6 18 -14c0 -21 17 -55 81 -55zM595 738l-388 -747c-4 -8 -10 -11 -17 -11c-8 0 -16 6 -16 15c0 3 0 6 2 9l391 756c3 6 8 8 13 8c8 0 18 -8 18 -19c0 -4 -1 -7 -3 -11z" />
    <glyph glyph-name="u" unicode="u" horiz-adv-x="483" 
d="M242 -6c-98 0 -178 85 -178 180v280c0 9 8 18 18 18c9 0 17 -9 17 -18v-280c0 -74 63 -145 143 -145c79 0 142 70 142 145v281c0 9 8 17 18 17s17 -8 17 -17v-281c0 -96 -81 -180 -177 -180z" />
    <glyph glyph-name="u.ss04" horiz-adv-x="481" 
d="M378 174v280c0 9 8 18 18 18s17 -9 17 -18v-437c0 -10 -7 -17 -17 -17s-18 7 -18 17v53c-22 -39 -67 -76 -134 -76c-98 0 -180 81 -180 180v280c0 12 9 18 18 18c8 0 17 -6 17 -18v-280c0 -73 64 -145 142 -145c68 0 137 54 137 145z" />
    <glyph glyph-name="uacute" unicode="&#xfa;" horiz-adv-x="483" 
d="M242 -6c-98 0 -178 85 -178 180v280c0 9 8 18 18 18c9 0 17 -9 17 -18v-280c0 -74 63 -145 143 -145c79 0 142 70 142 145v281c0 9 8 17 18 17s17 -8 17 -17v-281c0 -96 -81 -180 -177 -180zM298 658l-95 -54c-3 -2 -6 -3 -9 -3c-10 0 -19 8 -19 18c0 5 2 10 8 13l102 60
c2 1 5 2 7 2c10 0 16 -9 16 -18c0 -7 -3 -14 -10 -18z" />
    <glyph glyph-name="ubreve" unicode="&#x16d;" horiz-adv-x="483" 
d="M242 -6c-98 0 -178 85 -178 180v280c0 9 8 18 18 18c9 0 17 -9 17 -18v-280c0 -74 63 -145 143 -145c79 0 142 70 142 145v281c0 9 8 17 18 17s17 -8 17 -17v-281c0 -96 -81 -180 -177 -180zM317 710h33c0 -59 -52 -109 -109 -109c-58 0 -109 50 -109 109h32
c0 -46 35 -83 77 -83c41 0 76 37 76 83z" />
    <glyph glyph-name="ucircumflex" unicode="&#xfb;" horiz-adv-x="483" 
d="M242 -6c-98 0 -178 85 -178 180v280c0 9 8 18 18 18c9 0 17 -9 17 -18v-280c0 -74 63 -145 143 -145c79 0 142 70 142 145v281c0 9 8 17 18 17s17 -8 17 -17v-281c0 -96 -81 -180 -177 -180zM241 659l-104 -56c-3 -1 -6 -3 -8 -3c-9 0 -18 8 -18 19c0 5 3 11 9 14l104 56
c5 3 11 5 17 5s12 -2 17 -5l104 -55c6 -3 9 -10 9 -17c0 -9 -8 -16 -17 -16c-3 0 -6 2 -9 3z" />
    <glyph glyph-name="udieresis" unicode="&#xfc;" horiz-adv-x="483" 
d="M242 -6c-98 0 -178 85 -178 180v280c0 9 8 18 18 18c9 0 17 -9 17 -18v-280c0 -74 63 -145 143 -145c79 0 142 70 142 145v281c0 9 8 17 18 17s17 -8 17 -17v-281c0 -96 -81 -180 -177 -180zM186 659c17 0 29 -12 29 -29s-12 -30 -29 -30c-18 0 -30 13 -30 30
s12 29 30 29zM297 659c17 0 29 -12 29 -29s-12 -30 -29 -30c-18 0 -30 13 -30 30s12 29 30 29z" />
    <glyph glyph-name="ugrave" unicode="&#xf9;" horiz-adv-x="483" 
d="M242 -6c-98 0 -178 85 -178 180v280c0 9 8 18 18 18c9 0 17 -9 17 -18v-280c0 -74 63 -145 143 -145c79 0 142 70 142 145v281c0 9 8 17 18 17s17 -8 17 -17v-281c0 -96 -81 -180 -177 -180zM280 604l-95 54c-7 4 -10 11 -10 18c0 9 6 18 16 18c2 0 5 -1 7 -2l102 -60
c6 -3 8 -8 8 -13c0 -10 -9 -18 -19 -18c-3 0 -6 1 -9 3z" />
    <glyph glyph-name="uhungarumlaut" unicode="&#x171;" horiz-adv-x="483" 
d="M242 -6c-98 0 -178 85 -178 180v280c0 9 8 18 18 18c9 0 17 -9 17 -18v-280c0 -74 63 -145 143 -145c79 0 142 70 142 145v281c0 9 8 17 18 17s17 -8 17 -17v-281c0 -96 -81 -180 -177 -180zM263 658l-95 -54c-3 -2 -6 -3 -9 -3c-10 0 -19 8 -19 18c0 5 2 10 8 13l102 60
c2 1 5 2 7 2c10 0 16 -9 16 -18c0 -7 -3 -14 -10 -18zM410 658l-95 -54c-3 -2 -6 -3 -9 -3c-10 0 -19 8 -19 18c0 5 2 10 8 13l102 60c2 1 5 2 7 2c10 0 16 -9 16 -18c0 -7 -3 -14 -10 -18z" />
    <glyph glyph-name="umacron" unicode="&#x16b;" horiz-adv-x="483" 
d="M242 -6c-98 0 -178 85 -178 180v280c0 9 8 18 18 18c9 0 17 -9 17 -18v-280c0 -74 63 -145 143 -145c79 0 142 70 142 145v281c0 9 8 17 18 17s17 -8 17 -17v-281c0 -96 -81 -180 -177 -180zM114 664c0 10 7 18 17 18h220c9 0 18 -8 18 -18s-9 -17 -18 -17h-220
c-10 0 -17 7 -17 17z" />
    <glyph glyph-name="underscore" unicode="_" horiz-adv-x="345" 
d="M-4 -18c0 10 7 18 17 18h320c9 0 18 -8 18 -18s-9 -17 -18 -17h-320c-10 0 -17 7 -17 17z" />
    <glyph glyph-name="uni00A0" unicode="&#xa0;" horiz-adv-x="200" 
 />
    <glyph glyph-name="uni00AD" unicode="&#xad;" 
d="M50 240c0 10 7 18 17 18h320c9 0 18 -8 18 -18s-9 -17 -18 -17h-320c-10 0 -17 7 -17 17z" />
    <glyph glyph-name="uogonek" unicode="&#x173;" horiz-adv-x="483" 
d="M242 -6c-98 0 -178 85 -178 180v280c0 9 8 18 18 18c9 0 17 -9 17 -18v-280c0 -74 63 -145 143 -145c79 0 142 70 142 145v281c0 9 8 17 18 17s17 -8 17 -17v-281c0 -79 -55 -149 -127 -172c-40 -39 -72 -76 -72 -128c0 -33 25 -43 63 -43c10 0 18 -3 18 -13
s-6 -13 -23 -13c-36 0 -87 13 -87 67c0 47 20 87 51 122z" />
    <glyph glyph-name="uring" unicode="&#x16f;" horiz-adv-x="483" 
d="M242 -6c-98 0 -178 85 -178 180v280c0 9 8 18 18 18c9 0 17 -9 17 -18v-280c0 -74 63 -145 143 -145c79 0 142 70 142 145v281c0 9 8 17 18 17s17 -8 17 -17v-281c0 -96 -81 -180 -177 -180zM241 768c47 0 90 -43 90 -91c0 -49 -43 -93 -90 -93c-50 0 -90 44 -90 93
c0 47 39 91 90 91zM306 677c0 31 -30 65 -65 65c-37 0 -66 -34 -66 -65c0 -35 30 -70 66 -70c35 0 65 35 65 70z" />
    <glyph glyph-name="utilde" unicode="&#x169;" horiz-adv-x="483" 
d="M242 -6c-98 0 -178 85 -178 180v280c0 9 8 18 18 18c9 0 17 -9 17 -18v-280c0 -74 63 -145 143 -145c79 0 142 70 142 145v281c0 9 8 17 18 17s17 -8 17 -17v-281c0 -96 -81 -180 -177 -180zM310 653c46 0 49 32 65 32c7 0 14 -6 14 -15c0 -31 -52 -51 -84 -51
c-48 0 -73 37 -129 37c-43 0 -55 -35 -69 -35c-7 0 -13 6 -13 17c0 26 53 52 89 52c49 0 76 -37 127 -37z" />
    <glyph glyph-name="v" unicode="v" horiz-adv-x="392" 
d="M354 472c9 0 19 -7 19 -17c0 -5 -3 -12 -4 -15l-156 -434c-3 -7 -9 -12 -17 -12c-9 0 -14 4 -17 12l-156 434c-1 3 -4 10 -4 14c0 10 8 18 18 18c7 0 14 -4 17 -11l142 -393l141 387c3 8 4 17 17 17z" />
    <glyph glyph-name="w" unicode="w" horiz-adv-x="654" 
d="M617 472c10 0 18 -6 18 -17c0 -4 -3 -12 -4 -14l-157 -435c-3 -9 -8 -12 -15 -12c-8 0 -10 3 -14 11l-117 375l-115 -369c-4 -12 -9 -17 -17 -17c-9 0 -12 3 -17 17l-156 430c-1 2 -4 10 -4 13c0 10 8 18 18 18c7 0 14 -4 17 -11l141 -391l115 362c3 8 9 13 18 13
s15 -5 18 -13l111 -367l144 396c2 7 9 11 16 11z" />
    <glyph glyph-name="wacute" unicode="&#x1e83;" horiz-adv-x="654" 
d="M617 472c10 0 18 -6 18 -17c0 -4 -3 -12 -4 -14l-157 -435c-3 -9 -8 -12 -15 -12c-8 0 -10 3 -14 11l-117 375l-115 -369c-4 -12 -9 -17 -17 -17c-9 0 -12 3 -17 17l-156 430c-1 2 -4 10 -4 13c0 10 8 18 18 18c7 0 14 -4 17 -11l141 -391l115 362c3 8 9 13 18 13
s15 -5 18 -13l111 -367l144 396c2 7 9 11 16 11zM383 658l-95 -54c-3 -2 -6 -3 -9 -3c-10 0 -19 8 -19 18c0 5 2 10 8 13l102 60c2 1 5 2 7 2c10 0 16 -9 16 -18c0 -7 -3 -14 -10 -18z" />
    <glyph glyph-name="wcircumflex" unicode="&#x175;" horiz-adv-x="654" 
d="M617 472c10 0 18 -6 18 -17c0 -4 -3 -12 -4 -14l-157 -435c-3 -9 -8 -12 -15 -12c-8 0 -10 3 -14 11l-117 375l-115 -369c-4 -12 -9 -17 -17 -17c-9 0 -12 3 -17 17l-156 430c-1 2 -4 10 -4 13c0 10 8 18 18 18c7 0 14 -4 17 -11l141 -391l115 362c3 8 9 13 18 13
s15 -5 18 -13l111 -367l144 396c2 7 9 11 16 11zM327 659l-104 -56c-3 -1 -6 -3 -8 -3c-9 0 -18 8 -18 19c0 5 3 11 9 14l104 56c5 3 11 5 17 5s12 -2 17 -5l104 -55c6 -3 9 -10 9 -17c0 -9 -8 -16 -17 -16c-3 0 -6 2 -9 3z" />
    <glyph glyph-name="wdieresis" unicode="&#x1e85;" horiz-adv-x="654" 
d="M617 472c10 0 18 -6 18 -17c0 -4 -3 -12 -4 -14l-157 -435c-3 -9 -8 -12 -15 -12c-8 0 -10 3 -14 11l-117 375l-115 -369c-4 -12 -9 -17 -17 -17c-9 0 -12 3 -17 17l-156 430c-1 2 -4 10 -4 13c0 10 8 18 18 18c7 0 14 -4 17 -11l141 -391l115 362c3 8 9 13 18 13
s15 -5 18 -13l111 -367l144 396c2 7 9 11 16 11zM272 659c17 0 29 -12 29 -29s-12 -30 -29 -30c-18 0 -30 13 -30 30s12 29 30 29zM383 659c17 0 29 -12 29 -29s-12 -30 -29 -30c-18 0 -30 13 -30 30s12 29 30 29z" />
    <glyph glyph-name="wgrave" unicode="&#x1e81;" horiz-adv-x="654" 
d="M617 472c10 0 18 -6 18 -17c0 -4 -3 -12 -4 -14l-157 -435c-3 -9 -8 -12 -15 -12c-8 0 -10 3 -14 11l-117 375l-115 -369c-4 -12 -9 -17 -17 -17c-9 0 -12 3 -17 17l-156 430c-1 2 -4 10 -4 13c0 10 8 18 18 18c7 0 14 -4 17 -11l141 -391l115 362c3 8 9 13 18 13
s15 -5 18 -13l111 -367l144 396c2 7 9 11 16 11zM365 604l-95 54c-7 4 -10 11 -10 18c0 9 6 18 16 18c2 0 5 -1 7 -2l102 -60c6 -3 8 -8 8 -13c0 -10 -9 -18 -19 -18c-3 0 -6 1 -9 3z" />
    <glyph glyph-name="x" unicode="x" horiz-adv-x="381" 
d="M337 478c9 0 18 -7 18 -18c0 -3 -1 -6 -3 -9l-140 -213l140 -217c2 -3 3 -6 3 -10c0 -9 -8 -17 -18 -17c-5 0 -11 3 -14 8l-132 203l-131 -203c-4 -5 -9 -8 -15 -8c-10 0 -18 8 -18 17c0 4 1 7 3 10l139 217l-139 213c-2 3 -3 6 -3 9c0 10 8 18 18 18c6 0 12 -3 15 -8
l131 -200l132 200c3 5 9 8 14 8z" />
    <glyph glyph-name="y" unicode="y" horiz-adv-x="395" 
d="M358 478c9 0 18 -6 18 -17c0 -2 0 -4 -1 -6l-160 -442c-36 -100 -88 -250 -179 -250c-9 0 -17 7 -17 17c0 9 4 18 15 18c72 0 112 119 146 215l-160 442c-1 2 -2 4 -2 6c0 9 9 17 19 17c7 0 14 -4 16 -11l145 -400l144 400c3 7 9 11 16 11z" />
    <glyph glyph-name="yacute" unicode="&#xfd;" horiz-adv-x="395" 
d="M358 478c9 0 18 -6 18 -17c0 -2 0 -4 -1 -6l-160 -442c-36 -100 -88 -250 -179 -250c-9 0 -17 7 -17 17c0 9 4 18 15 18c72 0 112 119 146 215l-160 442c-1 2 -2 4 -2 6c0 9 9 17 19 17c7 0 14 -4 16 -11l145 -400l144 400c3 7 9 11 16 11zM253 658l-95 -54
c-3 -2 -6 -3 -9 -3c-10 0 -19 8 -19 18c0 5 2 10 8 13l102 60c2 1 5 2 7 2c10 0 16 -9 16 -18c0 -7 -3 -14 -10 -18z" />
    <glyph glyph-name="ycircumflex" unicode="&#x177;" horiz-adv-x="395" 
d="M358 478c9 0 18 -6 18 -17c0 -2 0 -4 -1 -6l-160 -442c-36 -100 -88 -250 -179 -250c-9 0 -17 7 -17 17c0 9 4 18 15 18c72 0 112 119 146 215l-160 442c-1 2 -2 4 -2 6c0 9 9 17 19 17c7 0 14 -4 16 -11l145 -400l144 400c3 7 9 11 16 11zM197 659l-104 -56
c-3 -1 -6 -3 -8 -3c-9 0 -18 8 -18 19c0 5 3 11 9 14l104 56c5 3 11 5 17 5s12 -2 17 -5l104 -55c6 -3 9 -10 9 -17c0 -9 -8 -16 -17 -16c-3 0 -6 2 -9 3z" />
    <glyph glyph-name="ydieresis" unicode="&#xff;" horiz-adv-x="395" 
d="M358 478c9 0 18 -6 18 -17c0 -2 0 -4 -1 -6l-160 -442c-36 -100 -88 -250 -179 -250c-9 0 -17 7 -17 17c0 9 4 18 15 18c72 0 112 119 146 215l-160 442c-1 2 -2 4 -2 6c0 9 9 17 19 17c7 0 14 -4 16 -11l145 -400l144 400c3 7 9 11 16 11zM142 659c17 0 29 -12 29 -29
s-12 -30 -29 -30c-18 0 -30 13 -30 30s12 29 30 29zM253 659c17 0 29 -12 29 -29s-12 -30 -29 -30c-18 0 -30 13 -30 30s12 29 30 29z" />
    <glyph glyph-name="yen" unicode="&#xa5;" horiz-adv-x="479" 
d="M384 310h-131v-78h131c9 0 18 -8 18 -18s-9 -17 -18 -17h-131v-180c0 -9 -7 -17 -17 -17s-18 8 -18 17v180h-124c-10 0 -17 7 -17 17s7 18 17 18h124v78h-124c-10 0 -17 7 -17 17s7 18 17 18h115l-180 362c-1 2 -2 4 -2 7c0 8 7 17 18 17c7 0 13 -3 17 -10l174 -346
l184 346c4 7 10 10 17 10c9 0 16 -7 16 -17c0 -3 0 -5 -1 -7l-190 -362h122c9 0 18 -8 18 -18s-9 -17 -18 -17z" />
    <glyph glyph-name="ygrave" unicode="&#x1ef3;" horiz-adv-x="395" 
d="M358 478c9 0 18 -6 18 -17c0 -2 0 -4 -1 -6l-160 -442c-36 -100 -88 -250 -179 -250c-9 0 -17 7 -17 17c0 9 4 18 15 18c72 0 112 119 146 215l-160 442c-1 2 -2 4 -2 6c0 9 9 17 19 17c7 0 14 -4 16 -11l145 -400l144 400c3 7 9 11 16 11zM235 604l-95 54
c-7 4 -10 11 -10 18c0 9 6 18 16 18c2 0 5 -1 7 -2l102 -60c6 -3 8 -8 8 -13c0 -10 -9 -18 -19 -18c-3 0 -6 1 -9 3z" />
    <glyph glyph-name="z" unicode="z" horiz-adv-x="385" 
d="M78 35h263c10 0 18 -8 18 -18c0 -9 -8 -17 -18 -17h-297c-10 0 -18 7 -18 16c0 3 1 9 4 12l267 409h-243c-10 0 -18 8 -18 17c0 10 8 18 18 18h277c10 0 18 -8 18 -18c0 -5 -1 -7 -3 -10z" />
    <glyph glyph-name="zacute" unicode="&#x17a;" horiz-adv-x="385" 
d="M78 35h263c10 0 18 -8 18 -18c0 -9 -8 -17 -18 -17h-297c-10 0 -18 7 -18 16c0 3 1 9 4 12l267 409h-243c-10 0 -18 8 -18 17c0 10 8 18 18 18h277c10 0 18 -8 18 -18c0 -5 -1 -7 -3 -10zM244 658l-95 -54c-3 -2 -6 -3 -9 -3c-10 0 -19 8 -19 18c0 5 2 10 8 13l102 60
c2 1 5 2 7 2c10 0 16 -9 16 -18c0 -7 -3 -14 -10 -18z" />
    <glyph glyph-name="zcaron" unicode="&#x17e;" horiz-adv-x="385" 
d="M78 35h263c10 0 18 -8 18 -18c0 -9 -8 -17 -18 -17h-297c-10 0 -18 7 -18 16c0 3 1 9 4 12l267 409h-243c-10 0 -18 8 -18 17c0 10 8 18 18 18h277c10 0 18 -8 18 -18c0 -5 -1 -7 -3 -10zM307 700l-100 -101c-7 -7 -14 -11 -21 -11s-15 4 -21 11l-100 101
c-5 6 -8 11 -8 16c0 7 6 15 15 15c5 0 11 -2 16 -8l98 -103l98 103c5 6 11 8 16 8c9 0 15 -8 15 -15c0 -5 -3 -10 -8 -16z" />
    <glyph glyph-name="zdotaccent" unicode="&#x17c;" horiz-adv-x="385" 
d="M78 35h263c10 0 18 -8 18 -18c0 -9 -8 -17 -18 -17h-297c-10 0 -18 7 -18 16c0 3 1 9 4 12l267 409h-243c-10 0 -18 8 -18 17c0 10 8 18 18 18h277c10 0 18 -8 18 -18c0 -5 -1 -7 -3 -10zM188 659c17 0 29 -12 29 -29s-12 -30 -29 -30c-18 0 -30 13 -30 30s12 29 30 29z
" />
    <glyph glyph-name="zero" unicode="0" horiz-adv-x="521" 
d="M260 -6c-110 0 -195 56 -195 206v325c0 150 85 206 195 206s196 -56 196 -206v-325c0 -150 -86 -206 -196 -206zM420 200v325c0 116 -60 170 -160 170s-159 -54 -159 -170v-325c0 -116 59 -170 159 -170s160 54 160 170zM261 393c17 0 31 -14 31 -31s-14 -32 -31 -32
c-18 0 -32 15 -32 32s14 31 32 31z" />
    <glyph glyph-name="zeroinferior" unicode="&#x2080;" horiz-adv-x="332" 
d="M166 -3c-65 0 -115 29 -115 107v155c0 77 50 107 115 107s115 -30 115 -107v-155c0 -78 -50 -107 -115 -107zM248 104v155c0 52 -31 76 -82 76s-81 -24 -81 -76v-155c0 -52 30 -76 81 -76s82 24 82 76z" />
    <glyph glyph-name="zerosuperior" unicode="&#x2070;" horiz-adv-x="332" 
d="M166 362c-65 0 -115 29 -115 107v155c0 77 50 107 115 107s115 -30 115 -107v-155c0 -78 -50 -107 -115 -107zM248 469v155c0 52 -31 76 -82 76s-81 -24 -81 -76v-155c0 -52 30 -76 81 -76s82 24 82 76z" />
    </font>
</defs>
</svg>
