<svg xmlns="http://www.w3.org/2000/svg">
<defs>
<font id="GoboldThin-Italic" horiz-adv-x="1080" >
  <font-face 
    font-family="Gobold Thin"
    font-weight="400"
    font-style="italic"
    font-stretch="normal"
    units-per-em="2048"
    panose-1="2 0 5 0 0 0 0 9 0 0"
    ascent="1638"
    descent="-410"
    x-height="1726"
    cap-height="1966"
    bbox="-298 -343 2543 2306"
    underline-thickness="150"
    underline-position="-292"
    slope="-12"
    unicode-range="U+001D-F002"
  />
<missing-glyph horiz-adv-x="1936" 
d="M1519 1760q-164 -40 -287 -149q-40 -37 -114 -121q-82 -94 -117 -129q-104 -102 -164 -144q-100 -68 -194 -68q-75 0 -120 38q-45 39 -45 105v14q2 19 6 38q14 67 59 125q62 80 147 94q22 4 39 4q28 0 48 -9q31 -14 31 -50q0 -9 -2 -20q-9 13 -25 13q-14 0 -27 -10
q-16 -13 -19 -27q-1 -6 -1 -10q0 -26 32 -26h2q38 0 67 42q15 23 20 46q3 12 3 24q0 10 -2 20q-9 46 -45 68q-41 23 -106 23q-16 0 -32 -1q-141 -11 -247 -114l48 224h1045zM336 1109q63 -83 199 -83q18 0 40 2q112 9 295 159q50 42 142 124q81 73 112 97q83 63 153 63
q38 0 73 -17q102 -52 218 -52q76 0 159 23q162 45 322 168q-61 -206 -233 -382q-33 -33 -348 -300h-69q-51 0 -78 40l-132 -110h199q-300 -269 -387 -478q-24 -58 -35 -109q-9 -43 -9 -80q0 -36 8 -67q26 -103 141 -142h-247l186 878l51 25l10 43h-812zM576 841
q97 0 128 -40q21 -25 21 -72q0 -28 -8 -65l-148 -699h-476l186 876h297zM827 843h46l-186 -878h-46zM1459 -35q271 59 474 210l-44 -210h-430zM1937 194q-183 -92 -332 -110q-31 -3 -59 -3q-103 0 -150 49q-34 34 -34 88q0 20 5 44q6 32 23 70q66 151 273 361q99 99 144 148
h193l-13 -60h75zM1869 911q171 208 222 448q11 54 17 110q13 133 13 159q0 6 -1 6q22 64 144 99l-174 -822h-221zM1139 1277q-93 0 -166 -53q-64 -48 -91 -119q-7 -17 -10 -34q-3 -16 -3 -30q0 -28 12 -50q23 -43 84 -43q10 0 21 1q75 8 112 77q10 18 13 34q2 10 2 19
q0 33 -29 59q-27 21 -27 48q0 5 1 11q2 6 6 13q16 39 72 52z" />
    <glyph glyph-name=".notdef" horiz-adv-x="1936" 
d="M1519 1760q-164 -40 -287 -149q-40 -37 -114 -121q-82 -94 -117 -129q-104 -102 -164 -144q-100 -68 -194 -68q-75 0 -120 38q-45 39 -45 105v14q2 19 6 38q14 67 59 125q62 80 147 94q22 4 39 4q28 0 48 -9q31 -14 31 -50q0 -9 -2 -20q-9 13 -25 13q-14 0 -27 -10
q-16 -13 -19 -27q-1 -6 -1 -10q0 -26 32 -26h2q38 0 67 42q15 23 20 46q3 12 3 24q0 10 -2 20q-9 46 -45 68q-41 23 -106 23q-16 0 -32 -1q-141 -11 -247 -114l48 224h1045zM336 1109q63 -83 199 -83q18 0 40 2q112 9 295 159q50 42 142 124q81 73 112 97q83 63 153 63
q38 0 73 -17q102 -52 218 -52q76 0 159 23q162 45 322 168q-61 -206 -233 -382q-33 -33 -348 -300h-69q-51 0 -78 40l-132 -110h199q-300 -269 -387 -478q-24 -58 -35 -109q-9 -43 -9 -80q0 -36 8 -67q26 -103 141 -142h-247l186 878l51 25l10 43h-812zM576 841
q97 0 128 -40q21 -25 21 -72q0 -28 -8 -65l-148 -699h-476l186 876h297zM827 843h46l-186 -878h-46zM1459 -35q271 59 474 210l-44 -210h-430zM1937 194q-183 -92 -332 -110q-31 -3 -59 -3q-103 0 -150 49q-34 34 -34 88q0 20 5 44q6 32 23 70q66 151 273 361q99 99 144 148
h193l-13 -60h75zM1869 911q171 208 222 448q11 54 17 110q13 133 13 159q0 6 -1 6q22 64 144 99l-174 -822h-221zM1139 1277q-93 0 -166 -53q-64 -48 -91 -119q-7 -17 -10 -34q-3 -16 -3 -30q0 -28 12 -50q23 -43 84 -43q10 0 21 1q75 8 112 77q10 18 13 34q2 10 2 19
q0 33 -29 59q-27 21 -27 48q0 5 1 11q2 6 6 13q16 39 72 52z" />
    <glyph glyph-name=".null" horiz-adv-x="0" 
 />
    <glyph glyph-name=".null" horiz-adv-x="0" 
 />
    <glyph glyph-name="nonmarkingreturn" horiz-adv-x="508" 
 />
    <glyph glyph-name="space" unicode=" " horiz-adv-x="508" 
 />
    <glyph glyph-name="space" unicode="&#xa0;" horiz-adv-x="508" 
 />
    <glyph glyph-name="exclam" unicode="!" horiz-adv-x="515" 
d="M813 1966l-334 -1466h-231l290 1466h275zM177 270h275l-58 -274h-275z" />
    <glyph glyph-name="quotedbl" unicode="&#x22;" horiz-adv-x="855" 
d="M907 1944h241l-162 -614h-177zM533 1944h241l-162 -614h-177z" />
    <glyph glyph-name="numbersign" unicode="#" horiz-adv-x="1330" 
d="M466 848l135 329h-227l21 96h247l285 694h181l-285 -694h318l285 694h182l-285 -694h198l-21 -96h-218l-135 -329h239l-20 -96h-259l-311 -756h-181l311 756h-318l-311 -756h-182l311 756h-186l20 96h206zM783 1177l-136 -329h319l135 329h-318z" />
    <glyph glyph-name="dollar" unicode="$" horiz-adv-x="1020" 
d="M468 1636q73 344 383 391l38 179h179l-38 -179q233 -38 233 -265q0 -57 -15 -126l-52 -243h-232l52 243q6 31 6 56q0 112 -127 113h-2q-158 0 -194 -169l-40 -185q-4 -18 -4 -36q0 -140 217 -321q177 -150 177 -345q0 -49 -11 -100l-54 -256q-74 -345 -385 -392l-52 -244
h-179l52 244q-231 38 -231 264q0 58 15 128l51 241h231l-51 -241q-7 -31 -7 -57q0 -112 130 -112q158 0 194 169l49 231q4 20 4 41q0 147 -213 327q-176 150 -176 349q0 50 11 104z" />
    <glyph glyph-name="percent" unicode="%" horiz-adv-x="1599" 
d="M787 1081q-47 -219 -262 -219q-178 0 -178 148q0 32 8 71l155 730q46 219 263 219q177 0 177 -149q0 -31 -8 -70zM1520 215q-47 -219 -264 -219h-2q-174 0 -174 147q0 32 8 72l155 730q46 219 261 219q179 0 179 -149q0 -32 -8 -70zM1565 945q4 21 4 38q0 74 -86 74h-2
q-104 0 -128 -112l-155 -730q-4 -21 -4 -38q0 -74 85 -74q107 0 131 112zM1631 1966l-1144 -1971h-116l1145 1971h115zM832 1811q4 21 4 38q0 74 -85 74h-3q-104 0 -128 -112l-155 -730q-4 -20 -4 -37q0 -74 87 -74q105 0 129 111z" />
    <glyph glyph-name="ampersand" unicode="&#x26;" horiz-adv-x="1157" 
d="M465 236q27 -14 89 -14q14 0 29 1q134 5 169 169l108 508h-160q-33 -1 -61 -12q-107 -38 -133 -157l-72 -339q-9 -41 -9 -72q0 -66 40 -84zM908 1126l30 139h231l-30 -139h187l-48 -226h-187l-108 -508q-80 -380 -411 -395q-34 -1 -67 -1q-61 0 -105 5q-214 27 -214 251
q0 62 17 140l72 339q39 181 258 283q-145 83 -145 220q0 30 7 62l66 306q78 368 382 394q45 3 91 3q38 0 77 -2q246 -17 246 -257q0 -62 -16 -138l-12 -56h-231l12 56q8 38 8 68q0 87 -71 99q-27 4 -57 4q-26 0 -55 -3q-111 -13 -143 -168l-66 -306q-5 -25 -5 -47
q0 -80 71 -111q24 -10 56 -12h160z" />
    <glyph glyph-name="quotesingle" unicode="'" horiz-adv-x="481" 
d="M533 1944h241l-162 -614h-177z" />
    <glyph glyph-name="parenleft" unicode="(" horiz-adv-x="496" 
d="M411 -260q-278 4 -278 260q0 61 16 137l359 1690q83 391 431 396l-39 -179q-115 -3 -150 -169l-380 -1787q-8 -39 -8 -69q0 -97 87 -99z" />
    <glyph glyph-name="parenright" unicode=")" horiz-adv-x="496" 
d="M13 -80q116 3 151 168l380 1787q8 39 8 69q0 98 -88 100l39 179q277 -4 277 -259q0 -61 -16 -137l-359 -1690q-83 -392 -430 -397z" />
    <glyph glyph-name="asterisk" unicode="*" horiz-adv-x="978" 
d="M861 1646q182 128 246 155q31 13 53 13q46 0 56 -78q2 -14 2 -27q0 -16 -3 -30q-12 -57 -92 -68q-15 -2 -34 -2q-70 0 -219 8q140 -119 173 -164q19 -27 19 -51q0 -5 -1 -11q-8 -37 -69 -76q-51 -32 -82 -32q-37 0 -53 56q-18 60 -29 253q-96 -203 -138 -258
q-39 -50 -76 -50q-30 0 -67 30q-41 34 -41 66q0 4 1 9q6 29 50 66q57 46 245 161q-159 -10 -228 -10q-25 0 -39 3q-60 12 -60 55q0 8 2 16q5 23 22 54q40 79 88 79q24 0 53 -17q51 -30 180 -145q-30 160 -30 228q0 10 1 18q1 10 4 21q16 76 116 77h4q85 0 85 -53
q0 -9 -2 -18q-3 -15 -9 -30q-25 -66 -128 -248z" />
    <glyph glyph-name="plus" unicode="+" horiz-adv-x="1014" 
d="M608 892h-298l38 179h298l63 297h179l-63 -297h297l-38 -179h-297l-64 -297h-179z" />
    <glyph glyph-name="comma" unicode="," horiz-adv-x="541" 
d="M185 306h301l-56 -262l-177 -352h-130l132 339h-128z" />
    <glyph glyph-name="hyphen" unicode="-" horiz-adv-x="749" 
d="M234 868l39 179h649l-39 -179h-649z" />
    <glyph glyph-name="hyphen" unicode="&#xad;" horiz-adv-x="749" 
d="M234 868l39 179h649l-39 -179h-649z" />
    <glyph glyph-name="period" unicode="." horiz-adv-x="515" 
d="M179 276h275l-59 -275h-275z" />
    <glyph glyph-name="slash" unicode="/" horiz-adv-x="695" 
d="M1053 1967l-812 -1971h-182l812 1971h182z" />
    <glyph glyph-name="zero" unicode="0" horiz-adv-x="1020" 
d="M976 359q-84 -395 -474 -395q-321 0 -321 267q0 58 15 128l265 1244q84 396 474 396q321 0 321 -268q0 -58 -15 -128zM1010 1603q6 30 6 55q0 113 -129 113h-2q-158 0 -193 -168l-265 -1244q-6 -30 -6 -55q0 -113 130 -113q159 0 194 168z" />
    <glyph glyph-name="one" unicode="1" horiz-adv-x="1040" 
d="M1054 1966l-371 -1743h274l-48 -227h-780l48 227h275l323 1516h-275l48 227h506z" />
    <glyph glyph-name="two" unicode="2" horiz-adv-x="1040" 
d="M215 400q55 259 355 446q331 204 365 357l85 399q6 31 6 56q0 113 -128 113h-2q-159 0 -194 -169l-52 -241h-231l52 241q84 397 474 397q321 0 321 -269q0 -58 -15 -128l-87 -406q-56 -264 -357 -452q-331 -205 -366 -369l-33 -153h549l-48 -227h-780z" />
    <glyph glyph-name="three" unicode="3" horiz-adv-x="1040" 
d="M741 1095q176 27 212 193l67 315q6 30 6 55q0 113 -129 113q-160 0 -195 -168l-52 -243h-231l52 243q84 395 475 396q320 0 320 -268q0 -58 -15 -128l-68 -319q-44 -205 -262 -307q144 -83 144 -221q0 -30 -7 -62l-72 -335q-84 -396 -473 -396q-322 1 -322 269
q0 57 15 127l52 243h231l-52 -243q-6 -30 -6 -55q0 -113 131 -113q158 0 193 168l73 340q5 26 5 47q0 113 -143 121h-111l49 228h113z" />
    <glyph glyph-name="four" unicode="4" horiz-adv-x="1046" 
d="M1296 1966l-265 -1245h113l-48 -227h-113l-106 -498h-231l106 498h-595l47 220l769 1252h323zM417 721h383l207 971z" />
    <glyph glyph-name="five" unicode="5" horiz-adv-x="1040" 
d="M878 937q9 41 9 71q0 66 -40 84q-27 15 -89 15q-15 0 -30 -1q-115 -5 -152 -108l-13 -54h-231l258 1023h738l-48 -227h-516l-144 -556q131 136 269 143q15 0 32 -3q138 -12 188 -110q21 -40 21 -110q0 -69 -21 -167l-123 -578q-84 -395 -474 -395q-321 0 -321 267
q0 58 15 128l45 210h231l-45 -210q-6 -30 -6 -55q0 -113 130 -113q159 0 194 168z" />
    <glyph glyph-name="six" unicode="6" horiz-adv-x="1040" 
d="M986 359q-84 -395 -474 -395q-321 0 -321 267q0 58 15 128l265 1244q84 396 474 396q321 0 321 -268q0 -58 -15 -128l-52 -242h-231l52 242q6 30 6 55q0 113 -129 113h-2q-158 0 -193 -168l-120 -564q149 112 257 112q21 0 41 -2q126 -14 182 -90q31 -44 31 -129
q0 -70 -21 -167zM437 359q-6 -30 -6 -55q0 -113 130 -113q159 0 194 168l86 404q9 42 9 74q0 65 -39 83q-28 13 -90 13q-15 0 -30 -1q-133 -5 -168 -169z" />
    <glyph glyph-name="seven" unicode="7" horiz-adv-x="1041" 
d="M491 1739l48 227h805l-37 -174l-786 -1796h-237l762 1743h-555z" />
    <glyph glyph-name="eight" unicode="8" horiz-adv-x="1040" 
d="M437 359q-6 -30 -6 -55q0 -113 131 -113q158 0 193 168l72 339q7 31 7 56q0 111 -130 111q-159 0 -195 -167zM471 1603q84 395 475 396q320 0 320 -268q0 -58 -15 -128l-73 -343q-39 -181 -257 -283q144 -83 144 -221q0 -30 -7 -62l-72 -335q-84 -396 -473 -396
q-322 1 -322 269q0 57 15 127l72 335q38 182 257 283q-144 83 -144 220q0 30 7 63zM627 1253q-7 -33 -7 -59q0 -102 104 -106q16 -1 32 -1q61 0 95 12q68 29 93 150l76 354q6 30 6 55q0 113 -129 113q-160 0 -195 -168z" />
    <glyph glyph-name="nine" unicode="9" horiz-adv-x="1040" 
d="M1020 1603q6 30 6 55q0 113 -129 113q-160 0 -195 -168l-86 -404q-9 -42 -9 -73q0 -65 39 -84q28 -12 88 -12q15 0 30 1q135 4 170 168zM471 1603q84 395 475 396q320 0 320 -268q0 -58 -15 -128l-265 -1244q-84 -395 -474 -395q-321 0 -321 267q0 58 15 128l52 243h231
l-52 -243q-6 -30 -6 -55q0 -112 130 -113h2q157 0 192 168l120 565q-150 -113 -260 -113q-19 0 -37 2q-127 14 -182 90q-32 45 -32 131q0 69 21 165z" />
    <glyph glyph-name="colon" unicode=":" horiz-adv-x="514" 
d="M401 1322h274l-58 -274h-274zM180 282h274l-59 -275h-274z" />
    <glyph glyph-name="semicolon" unicode=";" horiz-adv-x="541" 
d="M181 288h301l-56 -263l-177 -351h-130l132 339h-128zM402 1328h275l-58 -274h-275z" />
    <glyph glyph-name="semicolon" unicode="&#x37e;" horiz-adv-x="541" 
d="M181 288h301l-56 -263l-177 -351h-130l132 339h-128zM402 1328h275l-58 -274h-275z" />
    <glyph glyph-name="less" unicode="&#x3c;" horiz-adv-x="1014" 
d="M355 1106l866 434l-45 -213l-716 -350l569 -341l-45 -213l-685 419z" />
    <glyph glyph-name="equal" unicode="=" horiz-adv-x="1014" 
d="M360 1131l38 179h774l-38 -179h-774zM259 652l37 178h774l-37 -178h-774z" />
    <glyph glyph-name="greater" unicode="&#x3e;" horiz-adv-x="1014" 
d="M1073 842l-863 -419l45 213l715 341l-568 350l45 213l682 -434z" />
    <glyph glyph-name="question" unicode="?" horiz-adv-x="1020" 
d="M297 270h275l-58 -275h-275zM1197 1398q-52 -246 -291 -441q-260 -215 -295 -380l-17 -77h-231l22 102q51 241 290 436q260 213 293 367l42 197q6 31 6 56q0 113 -128 113h-2q-159 0 -194 -169l-52 -241h-231l52 241q84 397 475 397q320 0 320 -269q0 -57 -15 -128z" />
    <glyph glyph-name="at" unicode="@" horiz-adv-x="1465" 
d="M1620 1345l-24 -113q-53 -251 -299 -251h-144l-83 -387q-53 -251 -299 -251q-202 0 -202 170q0 37 9 81l57 266q53 250 299 250h116l64 302q5 22 5 41q0 80 -94 80h-2q-114 0 -140 -121l-9 -41h-131l9 41q53 250 299 250q202 0 202 -169q0 -37 -9 -81l-64 -302h144
q115 0 141 122l41 193q17 78 17 143q0 315 -390 315q-471 0 -571 -472l-177 -830q-17 -78 -17 -143q0 -315 391 -315q470 0 570 471l3 13h132l-3 -13q-127 -598 -729 -598q-500 0 -500 402q0 83 21 183l177 830q127 599 730 599q499 0 499 -402q0 -83 -21 -183l-17 -80h-1z
M890 982q-115 0 -141 -122l-57 -266q-5 -22 -5 -41q0 -81 94 -81q116 0 142 122l83 387z" />
    <glyph glyph-name="A" unicode="A" horiz-adv-x="1016" 
d="M1029 682l-54 -686h-235l35 431h-353l-150 -431h-233l235 682l477 1288h349zM793 655l90 1113l-384 -1113h294z" />
    <glyph glyph-name="B" unicode="B" horiz-adv-x="1010" 
d="M548 1966h421q291 -1 291 -261q0 -61 -16 -136l-65 -305q-39 -181 -257 -283q143 -83 143 -220q0 -30 -7 -63l-65 -306q-84 -395 -463 -396h-401zM731 1739l-137 -644h123q67 0 98 10q108 41 133 159l65 305q7 32 7 57q0 113 -129 113h-160zM545 867l-137 -644h160
q158 0 194 169l65 306q6 26 6 49q0 79 -71 109q-26 11 -94 11h-123z" />
    <glyph glyph-name="C" unicode="C" horiz-adv-x="990" 
d="M966 359q-84 -395 -474 -396q-321 0 -321 268q0 58 15 128l265 1244q84 395 474 395q321 0 321 -267q0 -58 -15 -128l-52 -243h-231l52 243q6 30 6 55q0 112 -129 113h-2q-158 0 -193 -168l-265 -1244q-6 -30 -6 -55q0 -113 130 -113q159 0 194 168l52 243h231z" />
    <glyph glyph-name="D" unicode="D" horiz-adv-x="1020" 
d="M548 1966h421q291 -1 291 -261q0 -61 -16 -136l-251 -1177q-84 -395 -463 -396h-401zM731 1739l-323 -1516h160q158 0 194 169l251 1177q7 32 7 57q0 113 -129 113h-160z" />
    <glyph glyph-name="E" unicode="E" horiz-adv-x="908" 
d="M996 1095l-49 -228h-402l-137 -644h467l-48 -227h-698l419 1970h698l-48 -227h-467l-137 -644h402z" />
    <glyph glyph-name="F" unicode="F" horiz-adv-x="888" 
d="M548 1966h698l-48 -227h-467l-137 -644h402l-49 -228h-402l-185 -871h-231z" />
    <glyph glyph-name="G" unicode="G" horiz-adv-x="1000" 
d="M966 359q-84 -395 -474 -396q-321 0 -321 268q0 58 15 128l265 1244q84 395 474 395q321 0 321 -267q0 -58 -15 -128l-52 -243h-231l52 243q6 30 6 55q0 112 -129 113h-2q-158 0 -193 -168l-265 -1244q-6 -30 -6 -55q0 -113 130 -113q159 0 194 168l108 508h-148l49 228
h379z" />
    <glyph glyph-name="H" unicode="H" horiz-adv-x="1040" 
d="M548 1966h231l-185 -871h318l185 871h231l-419 -1970h-231l185 871h-318l-185 -871h-231z" />
    <glyph glyph-name="I" unicode="I" horiz-adv-x="501" 
d="M553 1966h231l-419 -1970h-231z" />
    <glyph glyph-name="J" unicode="J" horiz-adv-x="940" 
d="M125 449h231l-18 -89q-7 -31 -7 -56q0 -113 131 -113q158 0 194 169l341 1607h231l-341 -1607q-85 -397 -474 -397q-321 1 -321 268q0 58 15 129z" />
    <glyph glyph-name="K" unicode="K" horiz-adv-x="1012" 
d="M792 981l179 -985h-246l-169 923l-196 -923h-231l419 1970h231l-197 -927l562 927h246z" />
    <glyph glyph-name="L" unicode="L" horiz-adv-x="868" 
d="M129 -4l419 1970h231l-371 -1743h467l-48 -227h-698z" />
    <glyph glyph-name="M" unicode="M" horiz-adv-x="1470" 
d="M838 475l683 1491h237l-419 -1970h-219l297 1395l-603 -1395h-149l-19 1388l-295 -1388h-222l419 1970h238z" />
    <glyph glyph-name="N" unicode="N" horiz-adv-x="1040" 
d="M548 1966h237l33 -1415l300 1411l210 3l-419 -1969h-237l-30 1380l-293 -1380h-220z" />
    <glyph glyph-name="O" unicode="O" horiz-adv-x="1000" 
d="M966 359q-84 -395 -474 -396q-321 0 -321 268q0 58 15 128l265 1244q84 395 474 395q321 0 321 -267q0 -58 -15 -128zM1000 1603q6 30 6 55q0 112 -129 113h-2q-158 0 -193 -168l-265 -1244q-6 -30 -6 -55q0 -113 130 -113q159 0 194 168z" />
    <glyph glyph-name="P" unicode="P" horiz-adv-x="965" 
d="M548 1966h396q291 -1 291 -261q0 -61 -16 -136l-65 -305q-62 -292 -339 -376q-68 -21 -191 -21h-79l-185 -871h-231zM731 1739l-137 -644h98q67 0 98 10q108 41 133 159l65 305q7 32 7 57q0 113 -129 113h-135z" />
    <glyph glyph-name="Q" unicode="Q" horiz-adv-x="1000" 
d="M968 365q-76 -355 -407 -395q-1 -7 -1 -13q0 -111 297 -113l-39 -183q-222 0 -302 48q-70 40 -70 154q0 47 12 106q-285 21 -285 271q0 57 15 125l264 1243q84 396 474 396q321 0 321 -268q0 -58 -15 -128zM1001 1608q7 31 7 57q0 111 -129 112h-2q-158 0 -194 -169
l-264 -1243q-7 -31 -7 -57q0 -112 130 -112q159 0 195 169z" />
    <glyph glyph-name="R" unicode="R" horiz-adv-x="1001" 
d="M548 1966h396q291 -1 291 -261q0 -61 -16 -136l-65 -305q-53 -247 -311 -335l127 -933h-255l-74 897l-93 -12l-188 -885h-231zM731 1739l-137 -644h98q67 0 98 10q108 41 133 159l65 305q7 32 7 57q0 113 -129 113h-135z" />
    <glyph glyph-name="S" unicode="S" horiz-adv-x="1000" 
d="M451 1603q84 395 474 395q321 0 321 -267q0 -58 -15 -128l-52 -243h-231l52 243q6 30 6 55q0 112 -129 113h-2q-158 0 -193 -168l-40 -185q-4 -17 -4 -36q0 -139 217 -321q177 -150 177 -345q0 -49 -11 -100l-55 -257q-84 -396 -473 -396q-322 1 -322 269q0 57 15 127
l52 243h231l-52 -243q-6 -30 -6 -55q0 -113 131 -113q158 0 193 168l50 232q4 20 4 40q0 148 -214 329q-176 149 -176 348q0 50 11 104z" />
    <glyph glyph-name="T" unicode="T" horiz-adv-x="880" 
d="M1248 1966l-48 -227h-274l-371 -1743h-231l371 1743h-275l48 227h780z" />
    <glyph glyph-name="U" unicode="U" horiz-adv-x="1020" 
d="M977 360q-85 -396 -475 -397q-320 0 -320 268q0 58 15 129l341 1607h231l-341 -1607q-7 -31 -7 -57q0 -112 130 -112q159 0 195 169l341 1607h231z" />
    <glyph glyph-name="V" unicode="V" horiz-adv-x="1016" 
d="M681 -4h-349l70 1286l56 684h233l-143 -1772l611 1772h235l-238 -686z" />
    <glyph glyph-name="W" unicode="W" horiz-adv-x="1721" 
d="M1254 194l611 1772h234l-237 -686l-475 -1284h-348l84 1236l-442 -1236h-349l70 1286l56 684h232l-142 -1772l611 1772h237z" />
    <glyph glyph-name="X" unicode="X" horiz-adv-x="965" 
d="M688 1966l76 -639l349 639h230l-537 -985l118 -985h-230l-77 639l-348 -639h-230l537 985l-118 985h230z" />
    <glyph glyph-name="Y" unicode="Y" horiz-adv-x="1018" 
d="M702 1966l35 -889l414 889h245l-597 -1141l-176 -829h-231l176 829l-110 1141h244z" />
    <glyph glyph-name="Z" unicode="Z" horiz-adv-x="844" 
d="M1134 1825l-748 -1602h425l-48 -227h-684l30 141l748 1602h-394l48 227h653z" />
    <glyph glyph-name="bracketleft" unicode="[" horiz-adv-x="499" 
d="M942 2223l-38 -178h-160l-452 -2126h160l-38 -179h-339l528 2483h339z" />
    <glyph glyph-name="backslash" unicode="\" horiz-adv-x="695" 
d="M660 1967l-26 -1971h-182l26 1971h182z" />
    <glyph glyph-name="bracketright" unicode="]" horiz-adv-x="499" 
d="M842 2223l-528 -2483h-339l38 179h160l452 2126h-160l38 178h339z" />
    <glyph glyph-name="asciicircum" unicode="^" horiz-adv-x="1096" 
d="M1077 1962l172 -773h-195l-130 582l-375 -582h-196l501 773h223z" />
    <glyph glyph-name="underscore" unicode="_" horiz-adv-x="1007" 
d="M-62 -291l34 157h1007l-34 -157h-1007z" />
    <glyph glyph-name="grave" unicode="`" horiz-adv-x="663" 
d="M562 2031h186l174 -199h-141l-226 168z" />
    <glyph glyph-name="a" unicode="a" horiz-adv-x="1016" 
d="M1011 599l-36 -603h-235l24 379h-353l-139 -379h-233l218 601l444 1133h349zM776 576l62 980l-356 -980h294z" />
    <glyph glyph-name="b" unicode="b" horiz-adv-x="1010" 
d="M498 1730h421q298 -1 298 -240q0 -50 -13 -109l-58 -269q-34 -160 -250 -249q150 -76 150 -201q0 -23 -5 -48l-58 -270q-74 -347 -453 -348h-401zM686 1530l-120 -567h123q67 0 98 9q106 36 128 140l58 269q5 24 5 45q0 104 -132 104h-160zM523 762l-121 -567h160
q158 0 190 149l58 270q4 20 4 38q0 73 -74 100q-26 10 -94 10h-123z" />
    <glyph glyph-name="c" unicode="c" horiz-adv-x="990" 
d="M956 312q-74 -348 -464 -349q-328 0 -328 247q0 46 12 102l233 1094q74 348 464 348q328 0 328 -246q0 -46 -12 -102l-46 -214h-231l46 214q5 24 5 45q0 103 -132 103h-2q-158 0 -189 -148l-233 -1094q-5 -24 -5 -45q0 -104 133 -104q159 0 190 149l46 213h231z" />
    <glyph glyph-name="d" unicode="d" horiz-adv-x="1020" 
d="M498 1730h421q298 -1 298 -240q0 -50 -13 -109l-221 -1037q-74 -347 -453 -348h-401zM686 1530l-284 -1335h160q158 0 190 149l221 1037q5 24 5 45q0 104 -132 104h-160z" />
    <glyph glyph-name="e" unicode="e" horiz-adv-x="908" 
d="M498 1730h698l-43 -200h-467l-120 -567h402l-43 -201h-402l-121 -567h467l-42 -199h-698z" />
    <glyph glyph-name="f" unicode="f" horiz-adv-x="888" 
d="M498 1730h698l-43 -200h-467l-120 -567h402l-43 -201h-402l-163 -766h-231z" />
    <glyph glyph-name="g" unicode="g" horiz-adv-x="1000" 
d="M956 312q-74 -348 -464 -349q-328 0 -328 247q0 46 12 102l233 1094q74 348 464 348q328 0 328 -246q0 -46 -12 -102l-46 -214h-231l46 214q5 24 5 45q0 103 -132 103h-2q-158 0 -189 -148l-233 -1094q-5 -24 -5 -45q0 -104 133 -104q159 0 190 149l95 447h-148l43 200
h379z" />
    <glyph glyph-name="h" unicode="h" horiz-adv-x="1040" 
d="M498 1730h231l-163 -767h318l163 767h231l-369 -1734h-231l163 766h-318l-163 -766h-231z" />
    <glyph glyph-name="i" unicode="i" horiz-adv-x="501" 
d="M503 1730h231l-369 -1734h-231z" />
    <glyph glyph-name="j" unicode="j" horiz-adv-x="940" 
d="M113 391h231l-17 -79q-5 -24 -5 -44q0 -104 134 -104q158 0 189 148l301 1414h231l-301 -1414q-74 -349 -463 -349q-329 1 -329 247q0 47 12 102z" />
    <glyph glyph-name="k" unicode="k" horiz-adv-x="1012" 
d="M766 863l205 -867h-246l-192 812l-173 -812h-231l369 1734h231l-174 -816l539 816h246z" />
    <glyph glyph-name="l" unicode="l" horiz-adv-x="868" 
d="M129 -4l369 1734h231l-327 -1535h467l-42 -199h-698z" />
    <glyph glyph-name="m" unicode="m" horiz-adv-x="1470" 
d="M826 418l645 1312h237l-369 -1734h-219l261 1228l-567 -1228h-149l-54 1221l-260 -1221h-222l369 1734h238z" />
    <glyph glyph-name="n" unicode="n" horiz-adv-x="1040" 
d="M498 1730h237l69 -1246l264 1242l210 3l-369 -1733h-237l-65 1214l-258 -1214h-220z" />
    <glyph glyph-name="o" unicode="o" horiz-adv-x="1000" 
d="M956 312q-74 -348 -464 -349q-328 0 -328 247q0 46 12 102l233 1094q74 348 464 348q328 0 328 -246q0 -46 -12 -102zM958 1406q5 24 5 45q0 103 -132 103h-2q-158 0 -189 -148l-233 -1094q-5 -24 -5 -45q0 -104 133 -104q159 0 190 149z" />
    <glyph glyph-name="p" unicode="p" horiz-adv-x="965" 
d="M498 1730h396q298 -1 298 -240q0 -50 -13 -109l-58 -269q-54 -257 -329 -331q-67 -19 -190 -19h-79l-163 -766h-231zM686 1530l-120 -567h98q67 0 98 9q106 36 128 140l58 269q5 24 5 45q0 104 -132 104h-135z" />
    <glyph glyph-name="q" unicode="q" horiz-adv-x="1000" 
d="M950 280q-67 -311 -397 -347q-1 -5 -1 -9q0 -100 300 -102l-34 -161q-222 0 -303 42q-74 36 -74 143q0 38 10 86q-293 19 -293 248q0 46 12 100l232 1094q74 349 464 349q328 0 328 -247q0 -46 -12 -102zM951 1374q5 25 5 46q0 102 -131 103h-2q-158 0 -190 -149
l-232 -1094q-5 -25 -5 -46q0 -102 132 -102q159 0 191 148z" />
    <glyph glyph-name="r" unicode="r" horiz-adv-x="1001" 
d="M498 1730h396q298 -1 298 -240q0 -50 -13 -109l-58 -269q-46 -217 -301 -295l150 -821h-255l-97 789l-92 -11l-166 -778h-231zM686 1530l-120 -567h98q67 0 98 9q106 36 128 140l58 269q5 24 5 45q0 104 -132 104h-135z" />
    <glyph glyph-name="s" unicode="s" horiz-adv-x="1000" 
d="M409 1406q74 348 464 348q328 0 328 -246q0 -46 -12 -102l-46 -214h-231l46 214q5 24 5 45q0 103 -132 103h-2q-158 0 -189 -148l-35 -162q-3 -14 -3 -28q0 -124 224 -287q187 -135 187 -312q0 -39 -9 -79l-48 -226q-74 -349 -463 -349q-329 1 -329 247q0 47 12 102
l46 213h231l-46 -213q-5 -24 -5 -44q0 -105 134 -105q158 0 189 149l44 204q3 15 3 31q0 132 -222 294q-186 135 -186 316q0 39 9 81z" />
    <glyph glyph-name="t" unicode="t" horiz-adv-x="880" 
d="M1198 1730l-43 -200h-274l-326 -1534h-231l326 1534h-275l43 200h780z" />
    <glyph glyph-name="u" unicode="u" horiz-adv-x="1020" 
d="M966 312q-74 -348 -464 -349q-328 0 -328 247q0 46 12 102l301 1414h231l-301 -1414q-5 -24 -5 -44q0 -104 133 -104q159 0 190 148l301 1414h231z" />
    <glyph glyph-name="v" unicode="v" horiz-adv-x="1016" 
d="M681 -4h-349l38 1132l38 602h233l-98 -1560l566 1560h235l-221 -604z" />
    <glyph glyph-name="w" unicode="w" horiz-adv-x="1721" 
d="M1249 170l566 1560h234l-220 -604l-442 -1130h-348l52 1087l-410 -1087h-349l38 1132l38 602h232l-97 -1560l566 1560h237z" />
    <glyph glyph-name="x" unicode="x" horiz-adv-x="965" 
d="M638 1730l92 -563l333 563h230l-513 -867l144 -867h-230l-93 562l-332 -562h-230l511 867l-142 867h230z" />
    <glyph glyph-name="y" unicode="y" horiz-adv-x="1018" 
d="M652 1730l58 -782l391 782h245l-568 -1005l-155 -729h-231l155 729l-139 1005h244z" />
    <glyph glyph-name="z" unicode="z" horiz-adv-x="844" 
d="M1087 1606l-707 -1411h425l-42 -199h-684l27 124l706 1410h-394l43 200h653z" />
    <glyph glyph-name="braceleft" unicode="{" horiz-adv-x="501" 
d="M416 -260q-278 4 -278 260q0 61 16 137l125 586q8 39 8 69q0 97 -88 99l39 181q115 3 151 168l124 587q83 391 431 396l-39 -179q-115 -3 -150 -169l-125 -586q-41 -195 -156 -307q41 -69 41 -170q0 -63 -16 -138l-124 -586q-8 -39 -8 -69q0 -97 87 -99z" />
    <glyph glyph-name="bar" unicode="|" horiz-adv-x="458" 
d="M630 2306h178l-563 -2649h-178z" />
    <glyph glyph-name="braceright" unicode="}" horiz-adv-x="501" 
d="M13 -80q116 3 151 168l124 586q42 195 157 308q-42 69 -42 171q0 62 16 136l125 586q8 39 8 69q0 98 -88 100l39 179q277 -4 277 -259q0 -61 -16 -137l-124 -587q-9 -39 -9 -69q0 -97 88 -99l-39 -181q-115 -2 -150 -168l-125 -586q-83 -392 -430 -397z" />
    <glyph glyph-name="asciitilde" unicode="~" horiz-adv-x="1045" 
d="M407 869l-106 78l52 61q125 145 245 145h10q80 -5 192 -104q65 -59 121 -59q48 0 85 36l56 57l94 -90l-56 -56q-107 -107 -211 -107h-11q-80 5 -189 103q-74 66 -97 70q-7 2 -16 2q-52 0 -118 -76z" />
    <glyph glyph-name="exclamdown" unicode="&#xa1;" horiz-adv-x="575" 
d="M-298 -237l334 1466h231l-290 -1466h-275zM338 1459h-275l58 274h275z" />
    <glyph glyph-name="cent" unicode="&#xa2;" horiz-adv-x="1030" 
d="M435 393l539 1040q1 11 1 21q0 112 -131 113q-160 0 -192 -153zM426 217q43 -50 119 -50q159 0 192 152l44 210h231l-44 -210q-74 -345 -464 -345q-96 0 -190 28l-175 -338l-79 5l190 369q-73 69 -73 184q0 45 11 97l233 1095q73 346 463 346q126 0 233 -48l130 249
l79 -6l-153 -296q39 -63 39 -149q0 -45 -11 -96l-45 -209h-218z" />
    <glyph glyph-name="sterling" unicode="&#xa3;" horiz-adv-x="1100" 
d="M692 946l-87 -410q-37 -174 -157 -314h557l-48 -227h-898l48 227h40q160 0 196 170l118 554h-200l22 102h200l118 554q84 397 473 397q322 0 322 -269q0 -58 -15 -128l-52 -241h-231l52 241q6 31 6 56q0 113 -129 113h-3q-157 0 -192 -169l-118 -554h343l-22 -102h-343z
" />
    <glyph glyph-name="currency" unicode="&#xa4;" horiz-adv-x="1351" 
d="M1246 844q-12 -57 -36 -122l130 -162l-160 -133l-88 112q-134 -91 -321 -91q-189 0 -283 90l-133 -112l-106 134l198 162q6 64 18 122l59 276q10 49 28 104l-128 161l162 133l80 -103q134 102 332 102q197 0 290 -102l124 103l103 -133l-196 -161q-4 -56 -14 -104z
M1074 1120q7 31 7 56q0 112 -130 113h-2q-158 0 -194 -169l-59 -276q-7 -31 -7 -57q0 -112 130 -112q160 0 196 169z" />
    <glyph glyph-name="yen" unicode="&#xa5;" horiz-adv-x="1138" 
d="M616 945l-98 1021h244l35 -887l414 887h245l-532 -1021h233l-22 -102h-272l-48 -227h272l-22 -102h-272l-110 -518h-231l110 518h-271l22 102h271l48 227h-271l22 102h233z" />
    <glyph glyph-name="brokenbar" unicode="&#xa6;" horiz-adv-x="458" 
d="M508 1729h178l-151 -708h-178zM299 750h178l-159 -750h-178z" />
    <glyph glyph-name="section" unicode="&#xa7;" horiz-adv-x="1020" 
d="M441 -338q-305 0 -305 249q0 51 13 114l17 79h231l-17 -79q-6 -29 -6 -53q0 -106 121 -106q145 0 178 159q7 33 7 66q0 177 -212 326q-171 118 -171 341q0 71 17 153q55 261 305 351q-156 121 -156 303q0 49 11 102q72 338 458 338q309 0 309 -237q0 -46 -12 -101
l-15 -73h-231l15 73q6 27 6 49q0 101 -121 101q-146 0 -178 -150q-6 -29 -6 -58q0 -170 218 -311q176 -113 176 -327q0 -63 -15 -135q-58 -270 -371 -339q210 -149 210 -365q0 -52 -12 -107q-77 -363 -464 -363zM863 898q7 33 7 60q0 119 -138 121h-2q-168 0 -206 -181
l-9 -42q-7 -33 -7 -60q0 -120 138 -120q170 0 208 180z" />
    <glyph glyph-name="dieresis" unicode="&#xa8;" horiz-adv-x="860" 
d="M560 2021h189l-40 -188h-189zM970 2021h190l-40 -188h-190z" />
    <glyph glyph-name="copyright" unicode="&#xa9;" horiz-adv-x="1445" 
d="M1451 594q-127 -598 -730 -598q-499 0 -499 402q0 83 21 183l177 830q127 599 729 599q500 0 500 -402q0 -83 -21 -183zM1496 1425q17 78 17 143q0 315 -390 315q-471 0 -571 -472l-177 -830q-17 -78 -17 -143q0 -315 390 -315q471 0 571 471zM1099 590
q-54 -254 -304 -254q-205 0 -205 172q0 37 10 82l176 826q54 253 303 253q206 0 206 -171q0 -37 -10 -82l-10 -48h-134l10 48q5 23 5 41q0 82 -94 83q-117 0 -143 -124l-176 -826q-5 -23 -5 -41q0 -83 95 -83q116 0 142 124l10 47h134z" />
    <glyph glyph-name="ordfeminine" unicode="&#xaa;" horiz-adv-x="711" 
d="M868 1290l-16 -345h-133l12 229h-251l-87 -229h-132l130 344l274 668h214zM734 1264l22 626l-243 -626h221zM174 526l29 138h579l-29 -138h-579z" />
    <glyph glyph-name="guillemotleft" unicode="&#xab;" horiz-adv-x="1322" 
d="M884 1200l-294 -211l206 -205l-53 -246l-400 464l596 455zM1373 1200l-294 -211l206 -205l-53 -246l-400 464l596 455z" />
    <glyph glyph-name="logicalnot" unicode="&#xac;" horiz-adv-x="1034" 
d="M321 897l38 179h774l-101 -476h-178l63 297h-596z" />
    <glyph glyph-name="registered" unicode="&#xae;" horiz-adv-x="1445" 
d="M1451 594q-127 -598 -730 -598q-499 0 -499 402q0 83 21 183l177 830q127 599 729 599q500 0 500 -402q0 -83 -21 -183zM1496 1425q17 78 17 143q0 315 -390 315q-471 0 -571 -472l-177 -830q-17 -78 -17 -143q0 -315 390 -315q471 0 571 471zM820 1648l257 -1h13
q185 0 185 -166q0 -38 -10 -86l-44 -204q-24 -114 -184 -188q108 -62 108 -154q0 -17 -4 -35l-97 -456h-132l97 456q4 18 4 34q0 57 -53 81q-18 9 -66 9h-92l-123 -580h-133zM926 1518l-96 -450h92q48 0 70 9q79 29 97 114l44 204q5 23 5 41q0 82 -95 82h-117z" />
    <glyph glyph-name="macron" unicode="&#xaf;" horiz-adv-x="1189" 
d="M378 1779l34 157h1189l-34 -157h-1189z" />
    <glyph glyph-name="degree" unicode="&#xb0;" horiz-adv-x="837" 
d="M849 2029q239 0 239 -196q0 -42 -11 -92q-61 -289 -350 -289q-238 0 -238 197q0 41 11 92q61 288 349 288zM822 1902q-161 0 -195 -161q-6 -28 -6 -52q0 -110 133 -110q162 0 196 162q6 28 6 51q0 110 -134 110z" />
    <glyph glyph-name="plusminus" unicode="&#xb1;" horiz-adv-x="1014" 
d="M609 899h-298l38 180h298l63 297h179l-63 -297h297l-38 -180h-297l-63 -297h-179zM962 327l-34 -158h-772l34 158h772z" />
    <glyph glyph-name="uni00B2" unicode="&#xb2;" horiz-adv-x="629" 
d="M326 1065q31 144 200 250q198 122 220 218l49 232q4 21 4 38q0 74 -85 74h-1q-105 0 -129 -112l-27 -127h-109l27 127q47 219 261 219q176 0 176 -148q0 -32 -8 -71l-50 -236q-31 -148 -201 -254q-199 -123 -221 -225l-21 -102h320l-23 -107h-429z" />
    <glyph glyph-name="uni00B3" unicode="&#xb3;" horiz-adv-x="634" 
d="M692 1256q6 26 6 47q0 45 -28 59q-21 9 -57 9h-28l23 107h41q32 0 55 12q43 23 59 100l38 179q6 26 6 46q0 45 -28 60q-21 9 -59 9q-11 0 -20 -2q-92 -3 -115 -113l-27 -129h-109l27 130q33 155 126 197q70 34 136 34q63 0 122 -29q60 -29 60 -119q0 -37 -10 -83
l-38 -181q-21 -99 -166 -167q98 -57 98 -136q0 -15 -3 -30l-46 -218q-30 -140 -107 -188q-51 -30 -149 -34h-15q-87 0 -126 27q-47 31 -47 111q0 36 10 84l27 130h109l-28 -131q-4 -21 -4 -38q0 -76 88 -76q108 0 132 114z" />
    <glyph glyph-name="acute" unicode="&#xb4;" horiz-adv-x="663" 
d="M958 2000l-298 -168h-141l260 199h186z" />
    <glyph glyph-name="mu" unicode="&#xb5;" horiz-adv-x="1030" 
d="M440 370q-7 -31 -7 -56q0 -112 130 -112q159 0 195 169l269 1268h231l-269 -1268q-76 -358 -385 -391q-20 -3 -37 -3q-87 0 -194 81l-82 -389h-231l418 1970h231z" />
    <glyph glyph-name="paragraph" unicode="&#xb6;" horiz-adv-x="1142" 
d="M1430 1967l-419 -1971h-146l388 1825h-294l-388 -1825h-146l225 1058q-221 0 -260 34q-27 24 -27 93q0 56 18 141l78 367q40 190 113 240q57 38 241 38h617z" />
    <glyph glyph-name="periodcentered" unicode="&#xb7;" horiz-adv-x="516" 
d="M170.146 1077.59h233.743l-50.1484 -233.744h-233.743z" />
    <glyph glyph-name="periodcentered" unicode="&#x2219;" horiz-adv-x="516" 
d="M170.146 1077.59h233.743l-50.1484 -233.744h-233.743z" />
    <glyph glyph-name="cedilla" unicode="&#xb8;" horiz-adv-x="584" 
d="M224 -92q60 31 104 31q8 0 18 -2q47 -7 61 -31q9 -15 9 -37q0 -14 -4 -31l-13 -60q-20 -93 -120 -101q-17 -2 -39 -2q-12 0 -23 1q-98 3 -98 73q0 13 3 28h75q-2 -9 -2 -16q0 -40 54 -40q63 0 75 57l13 60q2 10 2 18q0 41 -49 43h-3q-48 0 -62 -22h-72l50 123h69z" />
    <glyph glyph-name="uni00B9" unicode="&#xb9;" horiz-adv-x="1028" 
d="M810 1951l-214 -1006h159l-22 -104h-424l22 104h159l192 902h-159l22 104h265z" />
    <glyph glyph-name="ordmasculine" unicode="&#xba;" horiz-adv-x="734" 
d="M849 1106q-41 -195 -288 -195q-212 0 -212 143q0 24 6 52l140 656q41 195 288 195q212 0 212 -143q0 -24 -6 -52zM858 1762q4 17 4 31q0 73 -97 74q-116 0 -138 -105l-140 -656q-4 -17 -4 -31q0 -74 97 -74q116 0 138 105zM239 511l25 119h473l-25 -119h-473z" />
    <glyph glyph-name="guillemotright" unicode="&#xbb;" horiz-adv-x="1322" 
d="M440 1457l402 -455l-598 -464l53 246l293 205l-205 211zM929 1457l402 -455l-598 -464l53 246l293 205l-205 211z" />
    <glyph glyph-name="onequarter" unicode="&#xbc;" horiz-adv-x="1597" 
d="M1666 1099l-152 -714h65l-22 -103h-65l-61 -286h-106l61 286h-341l23 109l435 708h163zM1156 385h252l136 639zM1723 1967l-1144 -1971h-116l1145 1971h115zM803 1966l-214 -1006h159l-22 -104h-424l22 104h159l192 902h-159l22 104h265z" />
    <glyph glyph-name="onehalf" unicode="&#xbd;" horiz-adv-x="1678" 
d="M1663 1967l-1144 -1971h-116l1145 1971h115zM743 1966l-214 -1006h159l-22 -104h-424l22 104h159l192 902h-159l22 104h265zM1196 220q30 144 199 249q199 122 220 219l50 232q4 20 4 37q0 75 -86 75h-1q-105 0 -128 -112l-28 -128h-109l28 128q46 218 260 218
q177 0 177 -148q0 -32 -8 -70l-51 -236q-31 -148 -201 -254q-199 -123 -220 -225l-22 -103h320l-23 -106h-429z" />
    <glyph glyph-name="threequarters" unicode="&#xbe;" horiz-adv-x="1535" 
d="M1603 1098l-151 -714h65l-22 -103h-65l-61 -286h-106l61 286h-340l23 110l433 707h163zM1095 384h251l136 640zM1662 1966l-1144 -1971h-116l1145 1971h115zM695 1270q6 26 6 47q0 45 -28 60q-21 8 -57 8h-28l23 108h41q32 0 55 11q43 23 59 101l38 178q6 26 6 47
q0 45 -28 60q-21 8 -59 8q-11 0 -20 -1q-91 -3 -115 -114l-27 -128h-109l27 129q33 155 126 198q70 33 136 33q63 0 122 -29q60 -28 60 -118q0 -37 -10 -84l-38 -180q-21 -100 -166 -167q98 -57 98 -137q0 -15 -3 -30l-46 -217q-30 -140 -107 -189q-51 -30 -148 -33h-15
q-87 0 -127 27q-47 30 -47 110q0 37 10 85l27 129h109l-27 -130q-5 -21 -5 -39q0 -75 88 -75q108 0 133 114z" />
    <glyph glyph-name="questiondown" unicode="&#xbf;" 
d="M723 1459h-275l58 275h275zM-177 331q52 246 291 441q260 215 295 380l17 77h231l-22 -102q-51 -241 -290 -436q-260 -213 -293 -367l-42 -197q-6 -31 -6 -56q0 -113 128 -113h2q159 0 194 169l52 241h231l-52 -241q-84 -397 -475 -397q-320 0 -320 269q0 57 15 128z" />
    <glyph glyph-name="Agrave" unicode="&#xc0;" horiz-adv-x="1124" 
d="M1049 682l-54 -686h-235l35 431h-353l-150 -431h-233l235 682l477 1288h349zM813 655l90 1113l-384 -1113h294zM652 2264h186l174 -199h-141l-226 168z" />
    <glyph glyph-name="Aacute" unicode="&#xc1;" horiz-adv-x="1124" 
d="M1049 682l-54 -686h-235l35 431h-353l-150 -431h-233l235 682l477 1288h349zM813 655l90 1113l-384 -1113h294zM1259 2233l-298 -168h-141l260 199h186z" />
    <glyph glyph-name="Acircumflex" unicode="&#xc2;" horiz-adv-x="1124" 
d="M1049 682l-54 -686h-235l35 431h-353l-150 -431h-233l235 682l477 1288h349zM813 655l90 1113l-384 -1113h294zM591 2066l244 198h249l161 -198h-177l-130 102l-171 -102h-176z" />
    <glyph glyph-name="Atilde" unicode="&#xc3;" horiz-adv-x="1124" 
d="M1049 682l-54 -686h-235l35 431h-353l-150 -431h-233l235 682l477 1288h349zM813 655l90 1113l-384 -1113h294zM685 2043l-77 47l32 46q88 124 181 129h6q61 0 150 -63q52 -39 95 -39q45 0 80 39l34 42l72 -55l-37 -44q-77 -93 -159 -97h-6q-60 0 -148 64q-63 46 -84 49
h-7q-48 0 -101 -73z" />
    <glyph glyph-name="Adieresis" unicode="&#xc4;" horiz-adv-x="1124" 
d="M1049 682l-54 -686h-235l35 431h-353l-150 -431h-233l235 682l477 1288h349zM813 655l90 1113l-384 -1113h294zM658 2254h189l-40 -188h-189zM1068 2254h190l-40 -188h-190z" />
    <glyph glyph-name="Aring" unicode="&#xc5;" horiz-adv-x="1056" 
d="M812 649l90 1113l-384 -1113h294zM1004 2242q-114 0 -139 -114q-4 -20 -4 -37q0 -78 94 -78q115 0 139 115q4 20 4 37q0 77 -94 77zM1053 1960h66l-71 -1284l-54 -686h-235l34 431h-353l-149 -431h-233l235 683l477 1287h66q-35 68 -35 128q0 20 4 40q37 174 211 174
q144 0 144 -119q0 -25 -6 -55q-16 -77 -101 -168z" />
    <glyph glyph-name="AE" unicode="&#xc6;" horiz-adv-x="1456" 
d="M656 427h-214l-150 -431h-233l235 682l477 1288h910l-48 -227h-467l-137 -644h402l-49 -228h-402l-137 -644h467l-48 -227h-698zM704 655l177 832l22 280l-384 -1112h185z" />
    <glyph glyph-name="Ccedilla" unicode="&#xc7;" horiz-adv-x="990" 
d="M385 -28q-214 40 -214 259q0 58 15 128l265 1244q84 395 474 395q321 0 321 -267q0 -58 -15 -128l-52 -243h-231l52 243q6 30 6 55q0 112 -129 113h-2q-158 0 -193 -168l-265 -1244q-6 -30 -6 -55q0 -113 130 -113q159 0 194 168l52 243h231l-52 -243q-84 -395 -474 -396
q-24 0 -46 1l-29 -56q60 31 104 31q8 0 18 -2q47 -7 61 -31q9 -15 9 -37q0 -14 -4 -31l-13 -60q-20 -93 -120 -101q-17 -2 -39 -2q-12 0 -23 1q-98 3 -98 73q0 13 3 28h75q-2 -9 -2 -16q0 -40 54 -40q63 0 75 57l13 60q2 10 2 18q0 41 -49 43h-3q-48 0 -62 -22h-72z" />
    <glyph glyph-name="Egrave" unicode="&#xc8;" horiz-adv-x="968" 
d="M996 1095l-49 -228h-402l-137 -644h467l-48 -227h-698l419 1970h698l-48 -227h-467l-137 -644h402zM603 2264h186l174 -199h-141l-226 168z" />
    <glyph glyph-name="Eacute" unicode="&#xc9;" horiz-adv-x="968" 
d="M996 1095l-49 -228h-402l-137 -644h467l-48 -227h-698l419 1970h698l-48 -227h-467l-137 -644h402zM1212 2233l-298 -168h-141l260 199h186z" />
    <glyph glyph-name="Ecircumflex" unicode="&#xca;" horiz-adv-x="968" 
d="M974 1095l-49 -228h-402l-137 -644h467l-48 -227h-698l419 1970h698l-48 -227h-467l-137 -644h402zM520 2066l244 198h249l161 -198h-177l-130 102l-171 -102h-176z" />
    <glyph glyph-name="Edieresis" unicode="&#xcb;" horiz-adv-x="968" 
d="M996 1095l-49 -228h-402l-137 -644h467l-48 -227h-698l419 1970h698l-48 -227h-467l-137 -644h402zM610 2254h189l-40 -188h-189zM1020 2254h190l-40 -188h-190z" />
    <glyph glyph-name="Igrave" unicode="&#xcc;" horiz-adv-x="564" 
d="M556 1966h231l-419 -1970h-231zM378 2264h186l174 -199h-141l-226 168z" />
    <glyph glyph-name="Iacute" unicode="&#xcd;" horiz-adv-x="564" 
d="M529 1966h231l-419 -1970h-231zM959 2233l-298 -168h-141l260 199h186z" />
    <glyph glyph-name="Icircumflex" unicode="&#xce;" horiz-adv-x="576" 
d="M518 1966h231l-419 -1970h-231zM278 2066l244 198h249l161 -198h-177l-130 102l-171 -102h-176z" />
    <glyph glyph-name="Idieresis" unicode="&#xcf;" horiz-adv-x="574" 
d="M559 1966h231l-419 -1970h-231zM387 2254h189l-40 -188h-189zM797 2254h190l-40 -188h-190z" />
    <glyph glyph-name="Eth" unicode="&#xd0;" horiz-adv-x="1087" 
d="M609 903l-145 -680h160q159 0 195 169l251 1177q7 31 7 57q0 113 -130 113h-160l-145 -679h102l-33 -157h-102zM411 1060l193 906l421 -1q292 0 292 -260q0 -61 -16 -136l-251 -1177q-84 -395 -444 -395q-7 0 -20 -1h-401l193 907h-128l33 157h128z" />
    <glyph glyph-name="Ntilde" unicode="&#xd1;" horiz-adv-x="1100" 
d="M548 1966h237l33 -1415l300 1411l210 3l-419 -1969h-237l-30 1380l-293 -1380h-220zM678 2043l-77 47l32 46q88 124 181 129h6q61 0 150 -63q52 -39 95 -39q45 0 80 39l34 42l72 -55l-37 -44q-77 -93 -159 -97h-6q-60 0 -148 64q-63 46 -84 49h-7q-48 0 -101 -73z" />
    <glyph glyph-name="Ograve" unicode="&#xd2;" 
d="M976 359q-84 -395 -474 -396q-321 0 -321 268q0 58 15 128l265 1244q84 395 474 395q321 0 321 -267q0 -58 -15 -128zM1010 1603q6 30 6 55q0 112 -129 113h-2q-158 0 -193 -168l-265 -1244q-6 -30 -6 -55q0 -113 130 -113q159 0 194 168zM635 2264h186l174 -199h-141
l-226 168z" />
    <glyph glyph-name="Oacute" unicode="&#xd3;" 
d="M976 359q-84 -395 -474 -396q-321 0 -321 268q0 58 15 128l265 1244q84 395 474 395q321 0 321 -267q0 -58 -15 -128zM1010 1603q6 30 6 55q0 112 -129 113h-2q-158 0 -193 -168l-265 -1244q-6 -30 -6 -55q0 -113 130 -113q159 0 194 168zM1243 2233l-298 -168h-141
l260 199h186z" />
    <glyph glyph-name="Ocircumflex" unicode="&#xd4;" 
d="M976 359q-84 -395 -474 -396q-321 0 -321 268q0 58 15 128l265 1244q84 395 474 395q321 0 321 -267q0 -58 -15 -128zM1010 1603q6 30 6 55q0 112 -129 113h-2q-158 0 -193 -168l-265 -1244q-6 -30 -6 -55q0 -113 130 -113q159 0 194 168zM573 2066l244 198h249l161 -198
h-177l-130 102l-171 -102h-176z" />
    <glyph glyph-name="Otilde" unicode="&#xd5;" 
d="M976 359q-84 -395 -474 -396q-321 0 -321 268q0 58 15 128l265 1244q84 395 474 395q321 0 321 -267q0 -58 -15 -128zM1010 1603q6 30 6 55q0 112 -129 113h-2q-158 0 -193 -168l-265 -1244q-6 -30 -6 -55q0 -113 130 -113q159 0 194 168zM668 2043l-77 47l32 46
q88 124 181 129h6q61 0 150 -63q52 -39 95 -39q45 0 80 39l34 42l72 -55l-37 -44q-77 -93 -159 -97h-6q-60 0 -148 64q-63 46 -84 49h-7q-48 0 -101 -73z" />
    <glyph glyph-name="Odieresis" unicode="&#xd6;" 
d="M976 359q-84 -395 -474 -396q-321 0 -321 268q0 58 15 128l265 1244q84 395 474 395q321 0 321 -267q0 -58 -15 -128zM1010 1603q6 30 6 55q0 112 -129 113h-2q-158 0 -193 -168l-265 -1244q-6 -30 -6 -55q0 -113 130 -113q159 0 194 168zM640 2254h189l-40 -188h-189z
M1050 2254h190l-40 -188h-190z" />
    <glyph glyph-name="multiply" unicode="&#xd7;" horiz-adv-x="985" 
d="M675 855l-255 -211l-100 128l256 210l-166 210l153 127l167 -211l253 211l99 -128l-254 -209l165 -210l-153 -127z" />
    <glyph glyph-name="Oslash" unicode="&#xd8;" horiz-adv-x="1020" 
d="M423 276q27 -84 128 -84q159 0 195 169l248 1169zM469 553l532 1172q-45 48 -113 48h-2q-158 0 -194 -169zM1177 1934q78 -76 78 -208q0 -56 -14 -122l-264 -1243q-84 -396 -475 -397q-104 0 -203 37l-100 -217h-80l120 265q-56 73 -56 187q0 57 14 125l264 1243
q84 396 474 396q87 0 178 -27l64 138h82z" />
    <glyph glyph-name="Ugrave" unicode="&#xd9;" 
d="M977 360q-85 -396 -475 -397q-320 0 -320 268q0 58 15 129l341 1607h231l-341 -1607q-7 -31 -7 -57q0 -112 130 -112q159 0 195 169l341 1607h231zM635 2264h186l174 -199h-141l-226 168z" />
    <glyph glyph-name="Uacute" unicode="&#xda;" 
d="M977 360q-85 -396 -475 -397q-320 0 -320 268q0 58 15 129l341 1607h231l-341 -1607q-7 -31 -7 -57q0 -112 130 -112q159 0 195 169l341 1607h231zM1243 2233l-298 -168h-141l260 199h186z" />
    <glyph glyph-name="Ucircumflex" unicode="&#xdb;" 
d="M977 360q-85 -396 -475 -397q-320 0 -320 268q0 58 15 129l341 1607h231l-341 -1607q-7 -31 -7 -57q0 -112 130 -112q159 0 195 169l341 1607h231zM573 2066l244 198h249l161 -198h-177l-130 102l-171 -102h-176z" />
    <glyph glyph-name="Udieresis" unicode="&#xdc;" 
d="M977 360q-85 -396 -475 -397q-320 0 -320 268q0 58 15 129l341 1607h231l-341 -1607q-7 -31 -7 -57q0 -112 130 -112q159 0 195 169l341 1607h231zM640 2254h189l-40 -188h-189zM1050 2254h190l-40 -188h-190z" />
    <glyph glyph-name="Yacute" unicode="&#xdd;" horiz-adv-x="1139" 
d="M722 1966l35 -889l414 889h245l-597 -1141l-176 -829h-231l176 829l-110 1141h244zM1261 2233l-298 -168h-141l260 199h186z" />
    <glyph glyph-name="Thorn" unicode="&#xde;" horiz-adv-x="984" 
d="M708 1633h126q6 0 18 -1h21q290 0 290 -259q0 -61 -16 -136l-65 -306q-62 -292 -338 -376q-68 -21 -191 -21h-78l-186 -871h-231l491 2309h231zM660 1406l-137 -645h97q68 0 99 11q107 41 132 159l65 306q7 31 7 57q0 112 -129 112h-134z" />
    <glyph glyph-name="germandbls" unicode="&#xdf;" horiz-adv-x="1020" 
d="M1180 1268q-39 -182 -260 -283q146 -83 146 -220q0 -30 -7 -63l-112 -526q-84 -395 -441 -395l48 226q126 0 162 169l112 526q5 26 5 48q0 79 -70 110q-27 12 -95 12h-122l-185 -872h-231l335 1574q84 396 474 396q321 0 321 -268q0 -58 -15 -128zM595 1099h122
q68 0 99 11q107 38 133 158l65 306q6 30 6 55q0 113 -129 114h-2q-158 0 -193 -169z" />
    <glyph glyph-name="agrave" unicode="&#xe0;" horiz-adv-x="1123" 
d="M1031 599l-36 -603h-235l24 379h-353l-139 -379h-233l218 601l444 1133h349zM796 576l62 980l-356 -980h294zM651 2031h186l174 -199h-141l-226 168z" />
    <glyph glyph-name="aacute" unicode="&#xe1;" horiz-adv-x="1123" 
d="M1031 599l-36 -603h-235l24 379h-353l-139 -379h-233l218 601l444 1133h349zM796 576l62 980l-356 -980h294zM1259 2000l-298 -168h-141l260 199h186z" />
    <glyph glyph-name="acircumflex" unicode="&#xe2;" horiz-adv-x="1123" 
d="M1031 599l-36 -603h-235l24 379h-353l-139 -379h-233l218 601l444 1133h349zM796 576l62 980l-356 -980h294zM590 1833l244 198h249l161 -198h-177l-130 102l-171 -102h-176z" />
    <glyph glyph-name="atilde" unicode="&#xe3;" horiz-adv-x="1123" 
d="M1031 599l-36 -603h-235l24 379h-353l-139 -379h-233l218 601l444 1133h349zM796 576l62 980l-356 -980h294zM684 1810l-77 47l32 46q88 124 181 129h6q61 0 150 -63q52 -39 95 -39q45 0 80 39l34 42l72 -55l-37 -44q-77 -93 -159 -97h-6q-60 0 -148 64q-63 46 -84 49h-7
q-48 0 -101 -73z" />
    <glyph glyph-name="adieresis" unicode="&#xe4;" horiz-adv-x="1123" 
d="M1031 599l-36 -603h-235l24 379h-353l-139 -379h-233l218 601l444 1133h349zM796 576l62 980l-356 -980h294zM657 2021h189l-40 -188h-189zM1067 2021h190l-40 -188h-190z" />
    <glyph glyph-name="aring" unicode="&#xe5;" horiz-adv-x="1053" 
d="M795 568l61 984l-357 -984h296zM952 2005q-114 0 -138 -114q-4 -20 -4 -37q0 -78 94 -78q115 0 139 115q4 20 4 36q0 78 -95 78zM1001 1723h67l-38 -1129l-38 -600h-233l24 381h-353l-139 -381h-232l217 597l442 1132h66q-34 68 -34 127q0 21 4 41q37 174 211 174
q144 0 144 -119q0 -25 -6 -55q-16 -77 -102 -168z" />
    <glyph glyph-name="ae" unicode="&#xe6;" horiz-adv-x="1545" 
d="M646 381h-215l-139 -381h-232l217 597l443 1132h911l-42 -193h-467l-122 -575h402l-41 -192h-402l-122 -576h467l-41 -193h-698zM687 574l155 728l15 257l-357 -985h187z" />
    <glyph glyph-name="ccedilla" unicode="&#xe7;" horiz-adv-x="990" 
d="M384 -29q-220 37 -220 238q0 47 12 103l233 1094q74 348 464 348q328 0 328 -246q0 -46 -12 -102l-46 -214h-231l46 214q5 24 5 45q0 103 -132 103h-2q-158 0 -189 -148l-233 -1094q-5 -24 -5 -45q0 -104 133 -104q159 0 190 149l46 213h231l-46 -213q-74 -348 -464 -349
q-24 0 -46 1l-29 -56q60 31 104 31q8 0 18 -2q47 -7 61 -31q9 -15 9 -37q0 -14 -4 -31l-13 -60q-20 -93 -120 -101q-17 -2 -39 -2q-12 0 -23 1q-98 3 -98 73q0 13 3 28h75q-2 -9 -2 -16q0 -40 54 -40q63 0 75 57l13 60q2 10 2 18q0 41 -49 43h-3q-48 0 -62 -22h-72z" />
    <glyph glyph-name="egrave" unicode="&#xe8;" horiz-adv-x="948" 
d="M498 1730h698l-43 -200h-467l-120 -567h402l-43 -201h-402l-121 -567h467l-42 -199h-698zM603 2031h186l174 -199h-141l-226 168z" />
    <glyph glyph-name="eacute" unicode="&#xe9;" horiz-adv-x="948" 
d="M498 1730h698l-43 -200h-467l-120 -567h402l-43 -201h-402l-121 -567h467l-42 -199h-698zM1212 2000l-298 -168h-141l260 199h186z" />
    <glyph glyph-name="ecircumflex" unicode="&#xea;" horiz-adv-x="948" 
d="M476 1730h698l-43 -200h-467l-120 -567h402l-43 -201h-402l-121 -567h467l-42 -199h-698zM520 1833l244 198h249l161 -198h-177l-130 102l-171 -102h-176z" />
    <glyph glyph-name="edieresis" unicode="&#xeb;" horiz-adv-x="948" 
d="M498 1730h698l-43 -200h-467l-120 -567h402l-43 -201h-402l-121 -567h467l-42 -199h-698zM610 2021h189l-40 -188h-189zM1020 2021h190l-40 -188h-190z" />
    <glyph glyph-name="igrave" unicode="&#xec;" horiz-adv-x="525" 
d="M506 1729h231l-368 -1729h-231zM378 2031h186l174 -199h-141l-226 168z" />
    <glyph glyph-name="iacute" unicode="&#xed;" horiz-adv-x="525" 
d="M479 1729h231l-368 -1729h-231zM959 2000l-298 -168h-141l260 199h186z" />
    <glyph glyph-name="icircumflex" unicode="&#xee;" horiz-adv-x="537" 
d="M468 1729h231l-368 -1729h-231zM278 1833l244 198h249l161 -198h-177l-130 102l-171 -102h-176z" />
    <glyph glyph-name="idieresis" unicode="&#xef;" horiz-adv-x="535" 
d="M509 1729h231l-368 -1729h-231zM387 2021h189l-40 -188h-189zM797 2021h190l-40 -188h-190z" />
    <glyph glyph-name="eth" unicode="&#xf0;" horiz-adv-x="1020" 
d="M614 1385l-78 122l256 183q-89 63 -175 99l91 173q165 -52 271 -140l197 141l77 -122l-181 -129q85 -156 85 -369q0 -133 -33 -288l-140 -662q-85 -397 -474 -397q-321 0 -321 268q0 58 15 129l80 378q80 375 413 375q98 0 196 -94q32 152 32 275q0 144 -44 249zM435 393
q-7 -31 -7 -56q0 -113 131 -113q158 0 194 169l80 378q7 35 7 62q0 102 -102 107q-17 1 -32 1q-61 0 -94 -13q-70 -28 -97 -157z" />
    <glyph glyph-name="ntilde" unicode="&#xf1;" horiz-adv-x="1100" 
d="M498 1730h237l69 -1246l264 1242l210 3l-369 -1733h-237l-65 1214l-258 -1214h-220zM678 1810l-77 47l32 46q88 124 181 129h6q61 0 150 -63q52 -39 95 -39q45 0 80 39l34 42l72 -55l-37 -44q-77 -93 -159 -97h-6q-60 0 -148 64q-63 46 -84 49h-7q-48 0 -101 -73z" />
    <glyph glyph-name="ograve" unicode="&#xf2;" 
d="M966 312q-74 -348 -464 -349q-328 0 -328 247q0 46 12 102l233 1094q74 348 464 348q328 0 328 -246q0 -46 -12 -102zM968 1406q5 24 5 45q0 103 -132 103h-2q-158 0 -189 -148l-233 -1094q-5 -24 -5 -45q0 -104 133 -104q159 0 190 149zM635 2031h186l174 -199h-141
l-226 168z" />
    <glyph glyph-name="oacute" unicode="&#xf3;" 
d="M966 312q-74 -348 -464 -349q-328 0 -328 247q0 46 12 102l233 1094q74 348 464 348q328 0 328 -246q0 -46 -12 -102zM968 1406q5 24 5 45q0 103 -132 103h-2q-158 0 -189 -148l-233 -1094q-5 -24 -5 -45q0 -104 133 -104q159 0 190 149zM1243 2000l-298 -168h-141
l260 199h186z" />
    <glyph glyph-name="ocircumflex" unicode="&#xf4;" 
d="M966 312q-74 -348 -464 -349q-328 0 -328 247q0 46 12 102l233 1094q74 348 464 348q328 0 328 -246q0 -46 -12 -102zM968 1406q5 24 5 45q0 103 -132 103h-2q-158 0 -189 -148l-233 -1094q-5 -24 -5 -45q0 -104 133 -104q159 0 190 149zM573 1833l244 198h249l161 -198
h-177l-130 102l-171 -102h-176z" />
    <glyph glyph-name="otilde" unicode="&#xf5;" 
d="M966 312q-74 -348 -464 -349q-328 0 -328 247q0 46 12 102l233 1094q74 348 464 348q328 0 328 -246q0 -46 -12 -102zM968 1406q5 24 5 45q0 103 -132 103h-2q-158 0 -189 -148l-233 -1094q-5 -24 -5 -45q0 -104 133 -104q159 0 190 149zM668 1810l-77 47l32 46
q88 124 181 129h6q61 0 150 -63q52 -39 95 -39q45 0 80 39l34 42l72 -55l-37 -44q-77 -93 -159 -97h-6q-60 0 -148 64q-63 46 -84 49h-7q-48 0 -101 -73z" />
    <glyph glyph-name="odieresis" unicode="&#xf6;" 
d="M966 312q-74 -348 -464 -349q-328 0 -328 247q0 46 12 102l233 1094q74 348 464 348q328 0 328 -246q0 -46 -12 -102zM968 1406q5 24 5 45q0 103 -132 103h-2q-158 0 -189 -148l-233 -1094q-5 -24 -5 -45q0 -104 133 -104q159 0 190 149zM640 2021h189l-40 -188h-189z
M1050 2021h190l-40 -188h-190z" />
    <glyph glyph-name="divide" unicode="&#xf7;" horiz-adv-x="1072" 
d="M1120 1073l-38 -180h-772l38 180h772zM650 1641h274l-58 -274h-274zM429 601h274l-59 -275h-274z" />
    <glyph glyph-name="oslash" unicode="&#xf8;" horiz-adv-x="1009" 
d="M424 218q44 -51 120 -51q159 0 192 152l180 849zM434 397l539 1039q1 9 1 17q0 113 -131 114q-160 0 -192 -153zM1172 1660q39 -63 39 -149q0 -45 -11 -97l-233 -1095q-74 -345 -464 -345q-96 0 -191 28l-175 -338l-79 5l191 369q-73 70 -73 185q0 45 11 96l233 1095
q73 346 463 346q126 0 233 -48l129 249l79 -6z" />
    <glyph glyph-name="ugrave" unicode="&#xf9;" 
d="M966 312q-74 -348 -464 -349q-328 0 -328 247q0 46 12 102l301 1414h231l-301 -1414q-5 -24 -5 -44q0 -104 133 -104q159 0 190 148l301 1414h231zM635 2031h186l174 -199h-141l-226 168z" />
    <glyph glyph-name="uacute" unicode="&#xfa;" 
d="M966 312q-74 -348 -464 -349q-328 0 -328 247q0 46 12 102l301 1414h231l-301 -1414q-5 -24 -5 -44q0 -104 133 -104q159 0 190 148l301 1414h231zM1243 2000l-298 -168h-141l260 199h186z" />
    <glyph glyph-name="ucircumflex" unicode="&#xfb;" 
d="M966 312q-74 -348 -464 -349q-328 0 -328 247q0 46 12 102l301 1414h231l-301 -1414q-5 -24 -5 -44q0 -104 133 -104q159 0 190 148l301 1414h231zM573 1833l244 198h249l161 -198h-177l-130 102l-171 -102h-176z" />
    <glyph glyph-name="udieresis" unicode="&#xfc;" 
d="M966 312q-74 -348 -464 -349q-328 0 -328 247q0 46 12 102l301 1414h231l-301 -1414q-5 -24 -5 -44q0 -104 133 -104q159 0 190 148l301 1414h231zM640 2021h189l-40 -188h-189zM1050 2021h190l-40 -188h-190z" />
    <glyph glyph-name="yacute" unicode="&#xfd;" horiz-adv-x="1138" 
d="M672 1730l58 -782l391 782h245l-568 -1005l-155 -729h-231l155 729l-139 1005h244zM1259 2000l-298 -168h-141l260 199h186z" />
    <glyph glyph-name="thorn" unicode="&#xfe;" horiz-adv-x="976" 
d="M708 1633h126q6 0 18 -1h21q290 0 290 -259q0 -61 -16 -136l-65 -306q-62 -292 -338 -376q-68 -21 -191 -21h-78l-186 -871h-231l491 2309h231zM660 1406l-137 -645h97q68 0 99 11q107 41 132 159l65 306q7 31 7 57q0 112 -129 112h-134z" />
    <glyph glyph-name="ydieresis" unicode="&#xff;" horiz-adv-x="1138" 
d="M672 1730l58 -782l391 782h245l-568 -1005l-155 -729h-231l155 729l-139 1005h244zM658 2021h189l-40 -188h-189zM1068 2021h190l-40 -188h-190z" />
    <glyph glyph-name="dotlessi" unicode="&#x131;" horiz-adv-x="462" 
d="M503 1729h231l-368 -1729h-231z" />
    <glyph glyph-name="circumflex" unicode="&#x2c6;" horiz-adv-x="985" 
d="M556 1833l244 198h249l161 -198h-177l-130 102l-171 -102h-176z" />
    <glyph glyph-name="caron" unicode="&#x2c7;" horiz-adv-x="985" 
d="M774 2031l128 -102l173 102h177l-245 -198h-249l-160 198h176z" />
    <glyph glyph-name="uni02C9" unicode="&#x2c9;" horiz-adv-x="860" 
d="M557 2009h600l-38 -177h-600z" />
    <glyph glyph-name="breve" unicode="&#x2d8;" horiz-adv-x="958" 
d="M1259 2029q-144 -206 -400 -206h-8q-256 5 -290 206h153q8 -112 174 -112h1q167 0 222 112h148z" />
    <glyph glyph-name="dotaccent" unicode="&#x2d9;" horiz-adv-x="450" 
d="M561 2026h190l-40 -188h-190z" />
    <glyph glyph-name="ring" unicode="&#x2da;" horiz-adv-x="609" 
d="M737 2035q144 0 144 -119q0 -25 -6 -55q-38 -175 -213 -175q-143 0 -143 118q0 26 7 57q37 174 211 174zM724 1975q-114 0 -138 -114q-4 -21 -4 -38q0 -77 93 -77q115 0 140 115q4 20 4 36q0 78 -95 78z" />
    <glyph glyph-name="tilde" unicode="&#x2dc;" horiz-adv-x="889" 
d="M602 1810l-77 47l32 46q88 124 181 129h6q61 0 150 -63q52 -39 95 -39q45 0 80 39l34 42l72 -55l-37 -44q-77 -93 -159 -97h-6q-60 0 -148 64q-63 46 -84 49h-7q-48 0 -101 -73z" />
    <glyph glyph-name="endash" unicode="&#x2013;" horiz-adv-x="1148" 
d="M234 868l39 179h1036l-39 -179h-1036z" />
    <glyph glyph-name="emdash" unicode="&#x2014;" horiz-adv-x="2057" 
d="M234 868l39 179h1972l-39 -179h-1972z" />
    <glyph glyph-name="quoteleft" unicode="&#x2018;" horiz-adv-x="507" 
d="M713 1330h-300l56 263l177 351h130l-132 -339h127z" />
    <glyph glyph-name="quoteright" unicode="&#x2019;" horiz-adv-x="560" 
d="M543 1944h300l-56 -263l-176 -351h-131l132 339h-127z" />
    <glyph glyph-name="quotesinglbase" unicode="&#x201a;" horiz-adv-x="507" 
d="M185 306h301l-56 -262l-177 -352h-130l132 339h-128z" />
    <glyph glyph-name="quotedblleft" unicode="&#x201c;" horiz-adv-x="1057" 
d="M713 1330h-300l56 263l177 351h130l-132 -339h127zM1203 1330h-300l56 263l177 351h130l-132 -339h127z" />
    <glyph glyph-name="quotedblright" unicode="&#x201d;" horiz-adv-x="1110" 
d="M543 1944h300l-56 -263l-176 -351h-131l132 339h-127zM1033 1944h300l-56 -263l-176 -351h-131l132 339h-127z" />
    <glyph glyph-name="quotedblbase" unicode="&#x201e;" horiz-adv-x="1110" 
d="M543 307h300l-56 -263l-176 -351h-131l132 339h-127zM1033 307h300l-56 -263l-176 -351h-131l132 339h-127z" />
    <glyph glyph-name="dagger" unicode="&#x2020;" horiz-adv-x="1435" 
d="M1071 1432l467 61q12 2 23 2q44 0 44 -58q0 -24 -7 -57q-25 -117 -96 -117q-10 0 -18 2l-430 63q-21 -254 -86 -562l-35 -166q-67 -311 -84 -519q0 -12 -2 -22q-14 -62 -127 -63q-106 0 -106 57q0 7 2 15q2 9 6 18q71 198 133 487q11 53 22 109q8 43 17 87
q64 300 157 555l-468 -61q-11 -2 -22 -2q-45 0 -45 61q0 23 6 54q25 117 95 117q11 0 20 -2l430 -65l36 455q0 13 1 22q14 62 129 62q104 0 104 -55q0 -7 -2 -15q-3 -11 -6 -20z" />
    <glyph glyph-name="daggerdbl" unicode="&#x2021;" horiz-adv-x="1435" 
d="M1229 1875q-95 -266 -113 -349q-4 -18 -4 -32q0 -17 7 -25q10 -13 49 -13q81 0 369 37q12 2 23 2q45 0 45 -60q0 -23 -7 -55q-25 -117 -96 -117q-10 0 -18 2l-431 63l-13 -175q25 -24 25 -49q0 -5 -1 -10q-2 -6 -4 -14q-16 -44 -26 -94q-12 -54 -17 -113q0 -8 -1 -14
q-7 -29 -55 -56l-60 -165l467 60q12 2 23 2q45 0 45 -61q0 -22 -6 -53q-26 -118 -99 -118q-8 0 -16 2l-430 65l-37 -454q0 -12 -2 -22q-14 -62 -128 -63q-105 0 -105 57q0 7 2 15q2 9 6 18l159 443l-467 -60q-14 -3 -23 -3q-44 0 -44 59q0 24 7 56q25 117 95 117q10 0 19 -2
l431 -63l13 175q-26 24 -26 50q0 5 1 10q2 6 4 14q17 44 27 93q12 54 16 113q0 8 1 14q6 29 56 56l60 166l-468 -61q-11 -2 -22 -2q-45 0 -45 60q0 23 7 55q25 117 95 117q10 0 19 -2l430 -65l36 454q0 13 2 22q14 63 128 63q104 0 104 -56q0 -7 -2 -16t-5 -18z" />
    <glyph glyph-name="bullet" unicode="&#x2022;" horiz-adv-x="951" 
d="M982 1227q57 -72 57 -166q0 -37 -9 -78q-30 -143 -152 -245q-123 -100 -267 -100q-143 0 -224 100q-56 74 -56 169q0 36 8 76q31 144 152 244q123 102 266 102q144 0 225 -102z" />
    <glyph glyph-name="ellipsis" unicode="&#x2026;" horiz-adv-x="2058" 
d="M179 276h275l-59 -275h-275zM862 276h275l-59 -275h-275zM1545 276h275l-59 -275h-275z" />
    <glyph glyph-name="guilsinglleft" unicode="&#x2039;" horiz-adv-x="759" 
d="M884 1200l-294 -211l206 -205l-53 -246l-400 464l596 455z" />
    <glyph glyph-name="guilsinglright" unicode="&#x203a;" horiz-adv-x="759" 
d="M440 1457l402 -455l-598 -464l53 246l293 205l-205 211z" />
    <glyph glyph-name="fraction" unicode="&#x2044;" horiz-adv-x="285" 
d="M976 1967l-1144 -1971h-116l1145 1971h115z" />
    <glyph glyph-name="fraction" unicode="&#x2215;" horiz-adv-x="285" 
d="M976 1967l-1144 -1971h-116l1145 1971h115z" />
    <glyph glyph-name="franc" unicode="&#x20a3;" horiz-adv-x="932" 
d="M290 551l301 1415h699l-48 -227h-468l-137 -644h402l-49 -228h-402l-67 -316h193l-33 -156h-193l-85 -399h-231l85 399h-123l33 156h123z" />
    <glyph glyph-name="lira" unicode="&#x20a4;" horiz-adv-x="1099" 
d="M517 1212l83 390q84 397 474 397q321 0 321 -269q0 -58 -15 -128l-52 -241h-231l52 241q6 30 6 55q0 114 -130 114h-2q-157 0 -192 -169l-83 -390h344l-22 -102h-344l-48 -226h344l-22 -102h-344l-52 -246q-37 -174 -157 -314h558l-48 -227h-898l48 227h40q159 0 195 170
l83 390h-199l22 102h199l48 226h-199l22 102h199z" />
    <glyph glyph-name="peseta" unicode="&#x20a7;" horiz-adv-x="2188" 
d="M702 1740l-137 -645h91q61 0 90 11q99 41 124 158l65 306q7 34 7 61q0 109 -116 109h-124zM1129 1533l-57 -269q-63 -293 -312 -377q-60 -19 -170 -19h-74l-185 -872h-202l419 1971l353 -1q240 0 255 -241h743l-14 -63q163 92 329 92q329 0 329 -245q0 -46 -12 -101
l-44 -209h-231l44 209q6 26 6 48q0 105 -131 106q-160 0 -193 -154l-34 -161q-3 -14 -3 -29q0 -128 224 -290q186 -136 186 -312q0 -37 -8 -76l-48 -227q-74 -345 -463 -345q-329 0 -329 244q0 46 12 101l44 211h231l-44 -211q-6 -26 -6 -48q0 -104 133 -104q158 0 191 152
l43 204q4 17 4 34q0 135 -223 296q-185 135 -185 314q0 38 9 79l35 168q10 48 39 125h-207l-327 -1537h-231l327 1537h-223z" />
    <glyph glyph-name="Euro" unicode="&#x20ac;" horiz-adv-x="1066" 
d="M430 1196l87 407q84 396 474 396q321 0 321 -268q0 -58 -15 -128l-52 -242h-231l52 242q6 30 6 55q0 113 -129 113h-2q-158 0 -193 -168l-87 -407h396l-21 -101h-396l-49 -228h396l-21 -102h-396l-87 -406q-6 -30 -6 -55q0 -113 130 -113q159 0 194 168l52 243h231
l-52 -243q-84 -395 -474 -395q-321 0 -321 267q0 58 15 128l87 406h-146l21 102h146l49 228h-146l21 101h146z" />
    <glyph glyph-name="uni2116" unicode="&#x2116;" horiz-adv-x="1872" 
d="M548 1966h237l33 -1415l300 1411l210 3l-419 -1969h-237l-30 1380l-293 -1380h-220zM1927 1106q-41 -195 -288 -195q-212 0 -212 143q0 24 6 52l140 656q41 195 288 195q212 0 212 -143q0 -24 -6 -52zM1936 1762q4 17 4 31q0 73 -97 74q-116 0 -138 -105l-140 -656
q-4 -17 -4 -31q0 -74 97 -74q116 0 138 105zM1317 511l25 119h473l-25 -119h-473z" />
    <glyph glyph-name="trademark" unicode="&#x2122;" horiz-adv-x="1081" 
d="M741 1712l-12 -54h-123l-148 -697h-71l148 697h-123l12 54h317zM978 1071l313 642h78l-160 -751h-64l145 680l-313 -680h-43l-28 672l-143 -672h-65l160 751h77z" />
    <glyph glyph-name="partialdiff" unicode="&#x2202;" horiz-adv-x="1020" 
d="M893 1052q28 133 28 244q0 365 -305 493l92 173q449 -141 449 -621q0 -131 -33 -286l-140 -662q-85 -397 -475 -397q-320 0 -320 268q0 58 15 129l80 378q80 375 412 375q99 0 197 -94zM435 393q-7 -31 -7 -56q0 -113 131 -113q158 0 194 169l80 378q7 34 7 61
q0 103 -104 108q-16 1 -31 1q-60 0 -93 -13q-70 -28 -97 -157z" />
    <glyph glyph-name="minus" unicode="&#x2212;" horiz-adv-x="1012" 
d="M1120 1073l-38 -180h-772l38 180h772z" />
    <glyph glyph-name="approxequal" unicode="&#x2248;" horiz-adv-x="1129" 
d="M407 928l-106 78l52 61q125 145 245 145h10q80 -5 192 -104q65 -59 121 -59q48 0 85 36l56 57l94 -90l-56 -56q-107 -107 -211 -107h-11q-80 5 -189 103q-74 66 -97 70q-7 2 -16 2q-52 0 -118 -76zM407 557l-106 78l52 61q125 145 245 145h10q80 -5 192 -104
q65 -59 121 -59q48 0 85 36l56 57l94 -90l-56 -56q-107 -107 -211 -107h-11q-80 5 -189 103q-74 66 -97 70q-7 2 -16 2q-52 0 -118 -76z" />
    <glyph glyph-name="lessequal" unicode="&#x2264;" horiz-adv-x="1074" 
d="M355 1065l866 434l-45 -213l-716 -350l569 -341l-45 -213l-685 419zM1120 207l-38 -180h-772l38 180h772z" />
    <glyph glyph-name="greaterequal" unicode="&#x2265;" horiz-adv-x="1074" 
d="M1073 801l-863 -419l45 213l715 341l-568 350l45 213l682 -434zM1120 207l-38 -180h-772l38 180h772z" />
    <glyph glyph-name="uniF001" unicode="&#xf001;" horiz-adv-x="1488" 
d="M498 1730h698l-43 -200h-467l-120 -567h402l-43 -201h-402l-163 -766h-231zM1435 1730h231l-369 -1734h-231z" />
    <glyph glyph-name="uniF001" unicode="&#xfb01;" horiz-adv-x="1488" 
d="M498 1730h698l-43 -200h-467l-120 -567h402l-43 -201h-402l-163 -766h-231zM1435 1730h231l-369 -1734h-231z" />
    <glyph glyph-name="uniF002" unicode="&#xf002;" horiz-adv-x="1872" 
d="M498 1730h698l-43 -200h-467l-120 -567h402l-43 -201h-402l-163 -766h-231zM1053 -4l369 1734h231l-327 -1535h467l-42 -199h-698z" />
    <glyph glyph-name="uniF002" unicode="&#xfb02;" horiz-adv-x="1872" 
d="M498 1730h698l-43 -200h-467l-120 -567h402l-43 -201h-402l-163 -766h-231zM1053 -4l369 1734h231l-327 -1535h467l-42 -199h-698z" />
    </font>
</defs>
</svg>
